<?xml version="1.0" encoding="utf-8"?>
<!-- Generator: Adobe Illustrator 25.2.3, SVG Export Plug-In . SVG Version: 6.00 Build 0)  -->
<svg version="1.1" id="レイヤー_1" xmlns="http://www.w3.org/2000/svg" xmlns:xlink="http://www.w3.org/1999/xlink" x="0px"
	 y="0px" viewBox="0 0 960.2 71.5" style="enable-background:new 0 0 960.2 71.5;" xml:space="preserve">
<style type="text/css">
	.st0{fill:#E3D7C6;}
</style>
<path class="st0" d="M229.2,58c0.1-0.6-3.2-1,1.7-1.6c15.5-1.7,28.1-0.5,43.6-2.2l1-1c12.1-0.4,24.6-0.8,37.5-1.1l70.3-5
	c-0.6-0.3-0.9-0.6,1.4-0.9c9.7-0.8,23.2-1.3,37.1-1.9l6.1-0.5c1.6-0.3,2-0.6,2.2-0.9c6.3-0.3,11.9-0.5,17.1-0.7
	c68.3-5.4,137.8-10.6,213.2-15.2c15.9-1.4,31.9-2.7,47.2-3.6c22.8-1,51.9-1,74.1-1.4c-3.5-3.3,50.7-6,39.7-9.2
	c14.8-0.2,37.1-0.3,38.2-1.3c3.4-2.9,14.7-6.5,54.1-8.5c15.4-0.5,39.1,0.6,44.6-0.1c8.6-1-20-1.9-11.5-2.9
	C889.7-0.2,833.4,0.6,777,1.9c-56.4,1.4-112.8,3.3-170.5,5.4c-9.8,0.7-33.7,2-65.1,3.5l-51.9,2.7c-18.6,0.9-38.3,2.1-58.2,3.2
	c-39.8,2.2-80.4,4.7-115.4,6.9l-81.2,5.2l-6.2,0.5c-18.5,1.3-39,2.8-58.8,4.5c-19.8,1.8-38.8,3.7-54.4,5.6
	c-14.3,2-28.8,4.2-43.2,6.4c6.8,0,13.1,0,18.6,0.1c-14.8,1.2-29.6,2.4-35.2,3.5c-31.3,4.3-13.3,4.4-1,5.6c8.8,0.2-2.8,2.8,10.9,2.7
	l-24.6,2.1c-1,1,30.3-3.2,23.6-1c-9.5,0.4-20,2-29.9,2.9c3.5,1,34.1-2.6,32.7-1.1c-5.3,0.7-27.8,0.7-29.5,2.5
	c-0.3,0.4,9.5-0.5,14.4-0.9C22,65.3,5.5,68.3,33.3,67.6C23.7,68.4,10.1,69,0,70.1c0,0,0.1,0,0.1,0c5.1-0.4,13.8-0.9,18.5-1.3
	L1.3,70.3c0.9,0.1,2,0.3,3.1,0.4c4.3-0.2,8.7-0.4,13.1-0.8l-11.5,1c2.9,0.3,6.3,0.5,9.9,0.6c13.7-0.2,26.9,0.1,34.3-0.5
	C109.9,66.5,169.7,62.1,229.2,58z"/>
</svg>
