<svg xmlns="http://www.w3.org/2000/svg" width="430.883" height="1043.74" viewBox="0 0 430.883 1043.74"><g transform="translate(-468.521 251.201)"><path d="M511.8,791.559a29.385,29.385,0,0,0-5-.933c-4.994-.133-15.835-4.867-18.455-8-1.32-1.6-1.84-3.134-2.18-6.534-.247-2.467-.713-6.267-1.04-8.467s-1.08-7.467-1.667-11.668c-.593-4.267-1.347-8.6-1.68-9.667-.333-1.133-1.193-6.067-1.92-11-.727-5-2.107-13.535-3.067-19-1.86-10.734-2.46-14.4-3.96-24.336-.52-3.534-1.553-10.334-2.287-15.2-.74-4.8-1.547-11.268-1.793-14.335-.427-5.267-.373-5.6,1.267-7.6,4.614-5.467,20.388-10.734,35.45-11.868a76.511,76.511,0,0,0,8.334-1.133,89.092,89.092,0,0,1,12.5-.8l9.494-.067.313-2c.173-1.133,1.267-8.2,2.434-15.668,2.367-15.268,2.734-18,2.28-17-.527,1.067-4.92,22.4-5.36,26-.787,6.334-1.02,7-2.467,7-1.233,0-1.327-.333-.993-3.2.207-1.733.827-5.134,1.38-7.467,2.26-9.734,3.674-16.8,5.027-25,.787-4.8,1.56-9.334,1.727-10.068.267-1.2-.38-1.6-5.24-3.267-7.074-2.333-16.915-7.514-18.6-9.781-2.18-2.934-2.674-7.447-1.253-11.461,2.534-7.154,4.307-10.108,6.187-10.321A5.056,5.056,0,0,0,524,557.378c.993-1.113,3.274-13.368,4.12-22.135.607-6.294,1.68-11.334,2.407-11.334.347,0,.967-.733,1.38-1.627.633-1.4.487-1.934-1.073-3.787-1.473-1.747-1.733-2.554-1.36-4.207.26-1.127.687-4.447.953-7.381a27.571,27.571,0,0,1,1.867-8.167,34.262,34.262,0,0,0,2.18-7.667c.44-2.66,1.627-8.434,2.64-12.834,3.554-15.421,3.634-16.035,2.434-17.755-1.493-2.134-1.347-5.681.587-14.248,1.467-6.5,1.9-7.534,3.807-9.1,2.04-1.673,2.1-1.867,1.213-3.527-.827-1.547-.787-2.387.307-6.9,1.88-7.747,2.9-10.361,4.527-11.614,1.253-.96,1.354-1.32.64-2.334-1.614-2.307-1.607-2.867.167-9.107,1.413-4.98,1.627-6.587,1.04-7.687a10.773,10.773,0,0,1-.1-7.914c1.953-4.707,8.267-6.821,20.375-6.814,6.934,0,11.628.473,23.029,2.314,2,.32,1.9.233-.667-.627a87.509,87.509,0,0,0-10.248-2.113l-7.241-1.12.407-2.954a15,15,0,0,1,.833-3.647c.26-.427,2.24-.567,5.167-.36,3.634.26,4.354.173,3.08-.347-2.32-.953-21.842-.853-24.276.12-3.18,1.273-3.394.347-2.06-8.874,1.047-7.2,1.08-8.5.273-9.608-.52-.707-3.214-4.094-5.994-7.534-5.9-7.294-11.281-14.881-11.281-15.888a.666.666,0,0,0-.6-.707c-.733,0-5.934-10.061-8.274-16-2.587-6.581-5.021-18.382-5.514-26.789-.76-12.874.373-19.815,9.994-61.219,1.667-7.147,3.474-14.648,4.014-16.668s2.067-8.114,3.374-13.548l2.374-9.881-2.08-4.454c-1.147-2.447-2.327-4.92-2.62-5.5-.82-1.62-4.487-10.614-5.68-13.955a54.069,54.069,0,0,1-1.667-10c-.333-3.847-1.053-9.4-1.607-12.334-2.007-10.614-2.034-14.115-.147-20,.94-2.934,2.707-8.781,3.92-13l2.214-7.667-3.14-8.767a131.779,131.779,0,0,1-4.127-13.515,74.987,74.987,0,0,0-5.087-13.408c-2.253-4.76-4.26-9.654-4.46-10.874-.607-3.734,2.94-23,4.827-26.242a15.235,15.235,0,0,1,2.227-3.16c.333-.207.3-1.493-.08-2.994-.573-2.254-.273-4.207,2.08-13.508,2.647-10.481,2.84-10.954,5.4-13.228,1.967-1.74,2.66-2.86,2.667-4.334.02-4.754,2.807-11.679,8.041-19.98a44.388,44.388,0,0,0,4.507-11.128c2.127-7.655,4.454-13.046,6.194-14.353a9.172,9.172,0,0,0,1.887-4,56.5,56.5,0,0,1,2.954-7.855,125.89,125.89,0,0,0,4.447-11.961c2.66-8.435,3.467-9.419,12.314-15.041,3.174-2.017,8.521-5.528,11.881-7.8s9.854-6.663,14.441-9.75A68.012,68.012,0,0,0,621.661-124.7c4.654-5.105,12.421-11.854,21.089-18.333a40.507,40.507,0,0,0,4.16-3.786,10.776,10.776,0,0,1,2.894-2.417c.367-.046.993-.121,1.387-.167a23.567,23.567,0,0,0,4.5-3.645c5.607-5.274,15.948-13.261,20.048-15.481a16.379,16.379,0,0,0,5.187-4.347,22.247,22.247,0,0,1,4.074-4.34c3.66-2.854,9.481-8.767,9.481-9.634,0-.413,1.807-2.64,4.02-4.94,3.914-4.08,4.24-4.26,12.061-6.781l8.034-2.587,2.98-4.787c3.454-5.534,9.261-11.548,13.361-13.841,1.567-.88,9.681-4.06,18.035-7.067s17.882-6.527,21.182-7.814,10.648-3.907,16.335-5.834,14.235-4.907,19-6.627c10.641-3.854,13.448-4.567,14.781-3.8a5.659,5.659,0,0,0,3.2.1c2.4-.533,2.934-.28,8.134,3.527a41.579,41.579,0,0,1,11,12.408c2.134,3.707,2.534,6.887,1.2,9.387-.533,1.073-.267,1.873,1.733,4.474,2.267,2.967,2.4,3.394,2,6.641-.333,3.054-.2,3.7,1.267,5.447a6.933,6.933,0,0,1,1.667,4.067,10.448,10.448,0,0,0,1.867,4.834c1,1.507,2.2,3.38,2.667,4.154,1,1.693,1.067,4.834.133,5.4-.333.24.467,2.027,1.933,4.207,3.734,5.48,6.734,11.061,6.734,12.374a7.281,7.281,0,0,0,1.267,2.947c5.467,8.034,6.734,10.821,9.934,21.81,1.534,5.016,3.467,15.634,3.534,19.169.067,1.191.2,1.716.4,1.166.8-2.076,1.667-2.726,2.667-1.927,1.2,1.021,1.2,12.464-.067,25.6-.533,5.5-1.133,11.8-1.333,14l-.333,4,.933-4a41.227,41.227,0,0,0,1-8.04c0-4.618,1.2-7.077,2.6-5.408,1,1.2,1.133,21.861.133,25.715-.333,1.321-.733,3.214-1,4.208l-.4,1.806,2.867-1a20.053,20.053,0,0,0,5.667-3.764c1.534-1.52,2.934-2.6,3.134-2.4.867.846-.933,13.944-2.534,18.57-1,2.7-1.534,5.077-1.333,5.279s.533,0,.667-.448c.2-.572.933-.384,2.267.626,1.067.794,1.733,1.611,1.467,1.817a6.5,6.5,0,0,0-1.2,2.346c-.733,2.151-.8,2.2-17.668,8.021-4.534,1.586-11.6,4.132-15.668,5.658-4,1.525-10,3.678-13.335,4.784-3.267,1.106-6.6,2.264-7.334,2.574-2.4,1.018-12.134,4.048-17.135,5.327-2.667.69-6.5,1.726-8.514,2.3A57.744,57.744,0,0,1,809.3-21.7c-3.034.235-5.694.7-5.9,1.043a32.18,32.18,0,0,0-.393,6.4,24.48,24.48,0,0,1-1.66,10.114c-.907,2.387-1.9,5.087-2.207,6s-1.513,4.22-2.68,7.334c-2.66,7.114-3.167,13.688-2.907,37.67.247,22.975.68,28.069,3.02,35.23a52.513,52.513,0,0,1,1.92,6.921c0,1.313-3.707,12.141-5.007,14.635a8.861,8.861,0,0,0-.993,2.92c0,.567-1.287,2.82-2.86,5-3.84,5.32-11.194,20.635-13.588,28.3a157.02,157.02,0,0,0-4.454,22.409c-1.067,8.334-2.027,10.354-5.841,12.3-3.32,1.693-4.98,1.633-10.721-.373-2.627-.913-4.82-1.667-4.887-1.667-.24,0-1.687,5.38-3.234,12-.893,3.854-2.54,10.6-3.66,15s-2.98,12.2-4.147,17.335c-2.547,11.194-6.481,26.916-6.921,27.622a26.926,26.926,0,0,0-.96,4.107c-.36,1.987-1.253,6.307-1.98,9.607s-2.087,9.6-3.014,14c-4.614,21.9-9.787,37.85-17.075,52.671-7.634,15.521-15.821,26.129-25.982,33.65-5.48,4.067-19.475,11.281-26.409,13.621a87.846,87.846,0,0,0-8.947,3.594c-3.62,1.787-3.694,1.88-5.461,7.087-.987,2.9-2.42,5.9-3.18,6.661-1.327,1.327-1.467,1.34-3.207.253-3.027-1.88-8.074-4.527-8.634-4.52-.287,0,1.127.993,3.147,2.207s3.754,2.687,3.874,3.28a12.6,12.6,0,0,1-.547,3.86c-.64,2.387-.953,2.727-2.207,2.414-1.213-.307-1.133-.127.487,1.067a49.973,49.973,0,0,1,4.5,4.02c2.04,2.06,2.56,3.087,2.56,5.047,0,2.7-2.454,6.914-4.734,8.134-1.16.62-1.3,1.133-.927,3.34.547,3.227-2.034,12.568-3.627,13.134-2.374.84-2.807,1.62-1.62,2.934.987,1.093,1.033,1.673.333,4.687-1.7,7.387-2.96,10.721-4.86,12.888s-1.94,2.307-.86,3.954c1.053,1.613,1.02,2.08-.727,9.2-2.273,9.268-3.64,12.141-6.221,13.034-1.707.593-2.093,1.233-2.98,4.907-.56,2.327-1.947,7.681-3.087,11.894s-3.427,12.921-5.08,19.335c-4.72,18.328-5.307,19.855-8.094,21.022-2.14.893-2.32,1.167-1.947,3.027.413,2.054-3.46,13.141-9.2,26.342-2.474,5.68-2.36,6.947.893,9.888,1.74,1.573,1.753,3.467.093,10.488-1.12,4.734-1.66,5.867-3.694,7.667-3.06,2.667-7.127,3.667-14.261,3.534l-5.694-.133-.133,6.934c-.073,3.8-.453,10.668-.847,15.268-.953,11.134-1.14,23.2-.367,23.869.347.333,3.674,1.067,7.387,1.667,12.468,1.933,24.849,8.267,25.922,13.134,1.007,4.6-1.474,20-8.321,51.671-1.82,8.4-3.76,17.868-4.3,21-.547,3.067-1.74,9.267-2.654,13.668s-2.273,11.4-3.014,15.668c-.74,4.2-1.807,10.2-2.367,13.335a64.5,64.5,0,0,0-1.02,7.534c0,2.2-2.3,5.8-3.68,5.8a28.325,28.325,0,0,0-5.127,1.867c-5.114,2.333-7.941,3.134-14.861,4.067-7.427,1-33.836.8-37.67-.333Zm46.5-9.334c.56-.133.833-1.733.833-4.867a117.733,117.733,0,0,1,1.333-13.4c.733-4.867,1.333-10.268,1.333-11.934,0-4.2,1.513-6.334,4.087-5.867,1.06.267,1.914.133,1.914-.267,0-.333.447-.6,1-.6,1.233,0,1.233.2,0,5.4-2.247,9.534-3.04,13.2-4.074,18.935-2.087,11.468-2.047,12,.7,9.934a5.412,5.412,0,0,1,2.78-.933c1.654,0,1.46.6,3.587-11.334,3.874-21.8,8.841-47.871,11.314-59.339,2.507-11.668,8.027-41.07,8.027-42.737,0-.533-.5-.4-1.34.4-2.227,2-2.387.467-.187-1.867,2.694-2.867,3.167-4.6,1.887-7.067-2.247-4.4-14.715-9.268-24.7-9.734-3.3-.133-4.954-.133-3.667.067,9.528,1.133,16.768,3.134,22.5,6.2,4.147,2.2,4.84,3,4.84,5.534,0,3.134-2.434,6-7.254,8.534-2.66,1.4-3.167,1.867-1.747,1.534a12.919,12.919,0,0,0,3.12-1c2.114-1.067,2.82-.6,1.433.934-1.02,1.133-2.16,5.734-4.767,19.2-1.88,9.668-3.887,20.335-4.447,23.669-.567,3.267-1.5,8-2.073,10.4-.953,4.067-.953,4.6.013,6.067,1.3,2,.607,2.934-1.06,1.4-1.62-1.467-1.554-.533.113,1.6,1.653,2.067,1.66,3.267.027,11-.72,3.4-2.54,12.6-4.047,20.535-1.507,7.867-3.054,14.6-3.447,15-1.28,1.2,0-11,2.214-21.135,1.16-5.267,2.254-10.6,2.427-11.8l.327-2.267-2.827.4c-3.62.6-4.674-.267-4.674-3.8a6.869,6.869,0,0,1,1.98-5.134c1.214-1.4,2.18-2,2.5-1.6,1.047,1.333,4.187,3,4.187,2.2,0-1.267-2.094-3.2-3.44-3.2-1.713,0-1.533-1.667.273-2.534.827-.4,1.093-.733.6-.8-.493,0-1.967,1.067-3.267,2.334-1.573,1.6-2.594,2.133-3.034,1.733-1.547-1.6,4.474-7.134,7.014-6.534,1.32.333,1.02,1.667,3.9-17.2,3.12-20.468,3.18-20.869,4.574-29,1.173-6.934,1.273-8.8.433-8-.64.667-3.047,14.468-6.747,38.67-1.687,11-3.074,15.468-4.42,14.135-.32-.333-.133-2.934.42-5.867s1.467-8.734,2.04-12.935c.573-4.267,1.934-12.534,3.014-18.535,1.087-5.934,1.974-11.668,1.974-12.734,0-1.934-.027-2-2.467-1.333a42.861,42.861,0,0,1-6.827,1.133l-4.36.467-.447,3c-.24,1.6-1.527,10.334-2.847,19.335-3.887,26.336-3.794,26-6.807,26-1.54,0-1.58-.133-1.153-3.734l.44-3.734-1.934.2-1.933.267-.02-4.334c-.013-5.267.7-20.6,1.373-29.4l.493-6.4-14.595.267c-10.721.2-17.062,0-23.922-.8-16.128-1.867-19.235-2.334-23-3.8-4-1.467-7.334-2.267-7.334-1.667,0,.2.913,7.067,2.034,15.268,1.12,8.134,2.294,17.4,2.614,20.535.313,3.067.96,8.267,1.427,11.468.82,5.6.527,7.867-.76,5.8-.847-1.333-1.627-5.8-3.274-18.6-.773-6.067-1.707-12.668-2.06-14.735-.36-2-.953-7.534-1.313-12.334s-.973-8.734-1.353-8.867a16.785,16.785,0,0,1-2.674-1.867c-1.087-.933-1.973-1.333-1.973-.933,0,.933,2.274,16.868,4,28.069,2.58,16.668,3.994,25.736,4.734,30.4l.753,4.734,2.927-2.934,2.927-2.934-.68-4.467c-.373-2.467-1.14-8.667-1.7-13.8-2.894-26.469-3.554-33.27-3.247-33.8.18-.267,1.053-.2,1.934.2,1.733.8,2.134,2.267,2.694,9.868.173,2.4.633,6.734,1.02,9.667s1.127,8.8,1.633,13.068c.513,4.2,1.253,9.668,1.653,12.2.4,2.467.507,4.867.247,5.267a6.326,6.326,0,0,0-.54,2.4,4.305,4.305,0,0,1-1.473,2.734c-1.193.933-1.253,1.267-.42,1.733.854.533.807.867-.3,2.334a10.6,10.6,0,0,0-1.74,3.467c-.52,2.133-2.38,2.467-2.894.533-.193-.733-.633-1.333-.987-1.333s-.473.467-.287,1.133a34.851,34.851,0,0,1,.693,3.534c.2,1.267,1.253,8.334,2.354,15.668s2.34,15.535,2.754,18.335c.78,5.2,1.547,7.334,2.634,7.334,1.027,0,.807-2.067-2.054-19.335-1.487-8.934-2.527-16.668-2.32-17.2a2.5,2.5,0,0,0-.687-2.2,3.275,3.275,0,0,1-.853-2.333c.333-1.667,4.474-3.6,7.761-3.6,2.687,0,2.86-.133,2.434-1.534a10.516,10.516,0,0,0-2.04-3.2c-1.767-1.867-2.107-3.934-.653-3.934a5.528,5.528,0,0,1,2.667,2,6.919,6.919,0,0,1,1.727,5.2c0,3.067-.02,3.133-3.387,4.667-3.34,1.534-3.367,1.6-2.167,2.934.907,1,1,1.467.367,1.667-.467.133.433.933,2,1.733l2.854,1.467.76,5.8c.42,3.134.98,10.134,1.247,15.468.447,8.868.387,9.734-.64,9.734-.833,0-1.067.467-.913,1.8.2,1.733.447,1.867,3.714,2.067,3.994.2,3.907.4,2.854-6.2-.607-3.8-2.687-24.536-2.687-26.736,0-.867.713-1,4.834-.6,6.234.6,6.4.667,6.781,1.067a81.826,81.826,0,0,1,1.033,9.6c.387,5.134.88,10.068,1.087,11.068.467,2.133-1.147,3.934-3.054,3.467-1.2-.333-1.347-.067-1.34,2.534.013,3.467.593,5.934,1.407,5.934.32,0,.587-.933.587-2a3.361,3.361,0,0,1,.64-2.333c1.02-.667,3.36,2.133,3.36,4,0,.867.34,1.667.753,1.667.547,0,.647-2.134.347-7.534-.227-4.134-.613-13.134-.854-20.068-.427-12.068-.393-12.534.82-12.334,1.127.2,1.32,1.133,1.767,8.6,1.407,23.535,2.06,30,3.04,30,.713,0,.853-.533.547-2.067-.793-4,1.627-5.8,4.767-3.6,1.054.733,1.493,1.733,1.52,3.534.04,2.267.087,2.333.7.8a9.416,9.416,0,0,0,.46-3.667c-.193-1.934-.353-2-3.454-2.134a18.931,18.931,0,0,1-3.48-.4c-.3-.267-1.4-10.934-1.98-19.068l-.447-6.267,5.58.467c3.067.2,6.854.6,8.414.8l2.834.4v5.467c0,3-.287,7.867-.64,10.8-1.473,12.2-1.207,18.2.573,12.734.8-2.467,2.734-20.935,2.734-26.2v-3.467l7.167-.6a53.446,53.446,0,0,1,7.414-.467,16.773,16.773,0,0,1-.333,4.067c-.553,3.667-.673,3.867-2.58,3.934-3.874.2-8.414.733-8.747,1.067-.187.2.413,1.133,1.333,2.067,1.767,1.733,2.414,1.667,2.414-.333,0-1.733,1.647-1.534,2.52.267l.72,1.534.047-1.6c.033-1.2.367-1.467,1.547-1.333,1.173.2,1.447.6,1.267,1.934a10.42,10.42,0,0,1-.34,1.733c-.06.067-1.76.267-3.767.467-6.267.6-6.494.733-6.934,5a98.918,98.918,0,0,0-.193,14.2l.133,3.134,7.334-.333c4.034-.2,7.707-.467,8.167-.6Zm-12.5-37.537c0-2.267.36-2.467,6.581-3.134,3.46-.333,4.167-.267,3.834.467a20.53,20.53,0,0,0-.82,2.067c-.247.667-1.387,1.267-2.834,1.534C545.207,746.755,545.8,746.822,545.8,744.688Zm-45.557-3.867a14.125,14.125,0,0,1-.447-4.534c.007-4.667,1.627-8,4.447-9.067,2.234-.867,3.827-.333,3.28,1.133-.3.733-.12.933.647.667,1.107-.467,3.627.6,3.627,1.467,0,.267-.827.867-1.833,1.267l-1.833.667,2.087.133c2.074.067,3.967,1.4,3.127,2.267-.707.733-6.847.533-8.307-.267a1.539,1.539,0,0,1-.96-1.867c.24-.667-.113-.467-.947.467-.94,1.133-1.333,2.534-1.333,4.867,0,3-.48,3.867-1.553,2.8Zm35.223-.267a49.216,49.216,0,0,0-7.207-.6c-4.607,0-5.5-.867-1.787-1.667,3.22-.733,2.374-1.8-1.007-1.333-2.954.467-3,.4-3.04-1.467l-.047-1.867-.653,1.6c-.893,2.267-1.073,2.334-2.247,1.4-1.753-1.467-1.14-3.6,1.854-6.534,3.607-3.6,6.427-4.467,9.647-3.134,1.293.533,2.16,1.2,1.927,1.4-.24.267.48,1,1.6,1.667a11.168,11.168,0,0,1,3.314,4.067c1.273,2.8,1.78,7.267.813,7.067a30.184,30.184,0,0,1-3.167-.6Zm-4.46-10.468c-.32-1.667-2.06-1.733-3.047-.2-.773,1.267-.68,1.4,1.213,1.4,1.593,0,2.007-.267,1.833-1.2Zm13.961,10.134c-1.313-1.333-.067-5.867,2.46-8.934l1.373-1.667-1.78,1.534a8.187,8.187,0,0,0-2.187,3.2c-.447,1.8-1.9,1.8-2.247.067a7.775,7.775,0,0,1,.927-3.467c1.714-3.667,6.954-5.934,6.954-3,0,1,.447,1.333,1.853,1.333a7.234,7.234,0,0,1,3.334,1c1.24.867,1.48,1.667,1.48,5,0,2.133-.253,4.067-.567,4.267-1.007.6-11.088,1.2-11.6.667Zm8.834-12.268a.667.667,0,1,1,1.333,0,.667.667,0,1,1-1.333,0Zm-52.625-5.267-2.947-.4-.893-3.934a168.974,168.974,0,0,1-2.2-20.335c-.007-1.133.313-1.467,1.38-1.333,1.12.2,1.807,1.533,3.5,6.734,1.633,5.067,2.767,7.267,5.02,9.868,1.594,1.867,2.74,3.534,2.54,3.734s-.087,1.133.247,2c.48,1.267.327,1.867-.707,2.934a3.547,3.547,0,0,1-2.154,1.2c-.46-.067-2.16-.267-3.787-.467Zm32.316-11.134.467-4.334-1.847.467-1.853.467.453-4.6c1.04-10.6,1.133-10.934,2.767-10.934,1.714,0,2.32-1.133,2.32-4.334,0-4.134,1-5.267,2.887-3.4.98,1,.98,1.8.04,9.534-.193,1.6-.627,2.667-.973,2.467s-.62-.067-.62.267a.954.954,0,0,0,.627.867c.387.133.393,2,.02,4.934a80.132,80.132,0,0,0-.627,8c-.02,3.6-.833,5-2.874,5C533.133,715.952,533.066,715.552,533.493,711.552Zm6.307-4.467a2.841,2.841,0,0,1,2.514-2.467c.567,0,.833.533.7,1.467C542.774,707.752,539.8,708.685,539.8,707.085Zm1.12-5c-.32-.533.533-12.068,1.367-18.4.333-2.6.907-4.2,1.647-4.667,2.194-1.4,2.194-1.534.127,18.735-.253,2.534-.72,3.734-1.6,4.2-.687.333-1.38.4-1.54.133Zm-8.287-27.936a2.389,2.389,0,0,0-1.667,0c-.46.2-.087.333.833.333S533.093,674.349,532.633,674.149Zm7.667-.667a4.611,4.611,0,0,0-2.333,0c-.64.133-.12.267,1.167.267S540.94,673.615,540.3,673.482Zm22.5-.933c2.48-.4,1.707-.467-3-.2a53.8,53.8,0,0,0-6.607.6C552.721,673.415,559.255,673.148,562.8,672.548Zm-16.521-.6c2.727,0,2.8-.067,2.187-1.667-.64-1.733.687-20.335,1.98-27.669.353-2.067,1.1-9.4,1.667-16.335.56-7,1.327-15.535,1.693-19,1.167-11,1.92-17.6,2.4-20.935.347-2.4.267-3.2-.3-2.8a3.634,3.634,0,0,0-.78,2.6c0,1.133-.627,6.6-1.387,12.134-.76,5.467-1.627,12.8-1.914,16.335-.66,7.867-4.48,39.67-5.367,44.671a42.928,42.928,0,0,0-.66,5.867c0,1.133-.293,2.134-.653,2.134-1.073,0-1.553-3.2-1.18-7.934a40.264,40.264,0,0,0-.107-7.4c-.42-2.8-.493-2.534-.973,2.934-.52,6.067-1.133,7.734-2.847,7.734-1.133,0-.567-3.133.88-4.8.813-.933.793-1.133-.127-1.467-.813-.333-.96-.933-.62-2.734.347-1.867.227-2.334-.573-2.334-1.173,0-1.033-3.667.587-15.268a51.941,51.941,0,0,0,.733-7.2c-.573-.6-1.753,3.334-2.934,9.734-.707,3.8-1.633,7.067-2.067,7.2-.433.2-.787-.2-.787-.8,0-.733-.593-1-2.167-.933-2.02.133-2.04.133-.333.4,3.667.533,1.714,1.534-3.074,1.534-4.974,0-22.262,1.534-27.763,2.467l-3,.533-.14,9.334c-.133,9.467.08,11.668,1.187,11.668.353,0,.62-3.934.62-9.067,0-7.467.173-9.067,1.027-9.4a1.937,1.937,0,0,1,1.313-.133,60.843,60.843,0,0,1,.727,7.6c.247,4,.533,7.734.64,8.334a16.564,16.564,0,0,1,.24,2.067c.04.8,1.073,1.2,4.22,1.6,5.561.667,27.316,1.534,31.5,1.267,1.833-.2,4.6-.267,6.147-.267Zm-24.482-2c-1.3-.867-1.013-8.4.407-10.534a14.86,14.86,0,0,0,1.393-4.867c.267-2.334.78-3.534,1.64-4,1.833-1,1.954-.133,1.394,10.4-.5,9.268-.507,9.334-2.167,9.468a4.745,4.745,0,0,1-2.667-.467Zm17.335-1.534a2.247,2.247,0,0,1,1.04-2.067c.813-.333,1,0,.833,1.333C540.733,670.015,539.133,670.615,539.133,668.415Zm0-3a3.2,3.2,0,0,1,2.134-2.134c.973,0,.547,1.8-.52,2.267-1.38.467-1.613.467-1.613-.133Zm-11.268-4.934a25.772,25.772,0,0,1,.5-5c.48-1.534,4.607-5.267,5.207-4.667,1.067,1.067-.673,6.467-3.134,9.734l-2.64,3.534Zm5.934,2.133a.667.667,0,1,1,1.333,0,.667.667,0,1,1-1.333,0Zm.547-4.334c-.54-.6.193-3.667.867-3.667.32,0,.58.467.573,1.133C535.773,657.147,534.853,658.747,534.346,658.28Zm.5-6.934a2.874,2.874,0,0,1,.407-2.267l.847-1.467.24,1.534c.267,1.8-.793,3.334-1.493,2.2Zm20.335,19.735c-.027-.267-.047-1.733-.047-3.267,0-3.534-.367-3.134-.967,1-.34,2.334-.253,3.2.3,3C554.888,671.682,555.208,671.348,555.181,671.081Zm18.288-.133c3.547-1.2.967-1.2-3.667-.067-3.187.8-3.36.933-1.333.933A20.109,20.109,0,0,0,573.47,670.948Zm-6.687-.933c3.04-.533,2.967-.333,4.294-12.734.547-5.134.547-7.067-.007-7.4-.887-.533-6.707-1.4-7.067-1.067-.14.133-.727,4.134-1.3,8.867-1.133,9.268-2.34,12.868-3.9,11.6a4.549,4.549,0,0,1-1.16-2.267c-.133-.8-.373-.2-.56,1.467l-.32,2.867,3.687-.467c2.027-.267,4.88-.667,6.334-.867Zm-73.653-.067c0-.4-.687-.667-1.52-.667a5.894,5.894,0,0,1-2.874-1,2.043,2.043,0,0,0-2.3-.333c-1.1.667-.633.933,3.694,1.867,1.467.4,2.74.667,2.834.733C493.056,670.548,493.129,670.281,493.129,669.948Zm83.361-4.867a65.321,65.321,0,0,1,.973-8.134c.887-5,.873-6.467-.067-5.534-.307.333-2.047,12.8-2.234,16a.6.6,0,0,0,.64.533c.367,0,.673-1.333.687-2.867Zm-94.7,1.867a16.119,16.119,0,0,0-3.214-2c-3.014-1.667-5.454-4.534-5.454-6.4,0-.4,1.073-1.8,2.38-3.067,2.994-2.8,2.474-2.934-.693-.133-4.147,3.6-2.82,7.267,3.847,10.468C481.842,667.348,481.795,667.348,481.795,666.948Zm-.6-7.4-.56-5.267-.087,5c-.073,4.4.287,6.467,1.007,5.8a38.037,38.037,0,0,0-.36-5.534Zm77.06,4.267c-.213-.533-.367-.4-.4.4-.033.667.127,1.067.347.867a1.3,1.3,0,0,0,.053-1.267ZM491.4,656.347c-.253-2.8-.727-5.067-1.053-5.067-.553,0-.147,7.8.513,9.934C491.562,663.414,491.829,661.014,491.4,656.347Zm67.066,1.467c0-5-.333-4.867-.913.267-.273,2.4-.187,3.867.24,3.867.38,0,.673-1.8.673-4.134Zm21.8-3.067c-.167-.667-.307-.133-.307,1.2,0,1.267.14,1.8.307,1.133A5.509,5.509,0,0,0,580.264,654.747Zm7.541,2.2a.954.954,0,0,0-.96-1c-1.113,0-1.867.933-1.247,1.534C586.4,658.28,587.8,657.947,587.8,656.947ZM483.128,651.28c.547-.4.7-.667.333-.667a3.525,3.525,0,0,0-1.667.667c-.553.333-.7.6-.333.6A4.163,4.163,0,0,0,483.128,651.28Zm9.888-2.734c1.947-.4,3.394-.933,3.214-1.067-.427-.467-7.787,1.133-9.1,1.933C486.075,650.013,486.089,650.013,493.016,648.546Zm51.258-3.467c-.16-.8-.3-.267-.307,1.2s.127,2.133.293,1.467A7.252,7.252,0,0,0,544.274,645.079Zm14.515-5.134c.24-4.267.72-10.868,1.06-14.668.34-3.867.58-8.2.54-9.668-.113-3.8-2.5,22.335-2.547,27.936C557.782,650.48,558.288,648.546,558.788,639.946Zm-55.492,6.2a2.39,2.39,0,0,0-1.667,0c-.46.2-.087.333.833.333S503.757,646.346,503.3,646.146Zm4-.667a2.39,2.39,0,0,0-1.667,0c-.46.2-.087.333.833.333S507.757,645.68,507.3,645.479Zm6.341-.667a5.984,5.984,0,0,0-2.667,0c-.827.133-.307.267,1.16.267S514.278,644.946,513.638,644.813Zm29.776-14.068c1.62-12.4,2.107-14.735,3.387-16.268,1.687-2,1.887-2.934,3.3-14.535.553-4.6,1.273-9.734,1.593-11.468.64-3.4-.06-5.66-1.22-3.867a5.13,5.13,0,0,0-.673,2.334c-.007.733-.62,4.134-1.36,7.667-.74,3.467-1.613,8.4-1.953,11-.333,2.534-1.373,9-2.314,14.335-.94,5.267-2.007,12.334-2.38,15.668-.367,3.267-.84,6.8-1.053,7.8s-.12,1.867.2,1.867,1.433-6.534,2.474-14.535Zm-17.441,13.4a11.031,11.031,0,0,0-3.334-.067c-1.013.2-.34.333,1.494.333S526.792,644.279,525.972,644.146Zm20.8-18.2c.22-2,.187-3.4-.073-3.134-.513.467-2.22,15.535-2.133,18.8C544.614,643.346,545.661,635.945,546.774,625.944Zm-4.44-25.336v-1.667l-.533,1.667a12.709,12.709,0,0,0-.533,3.334v1.667l.533-1.667A13.657,13.657,0,0,0,542.334,600.609Zm1.787-7.734c1.407-7.334,1.147-8.534-.36-1.6-1.267,5.8-1.533,7.8-.973,7.2a37.538,37.538,0,0,0,1.333-5.6Zm32.823-.267c3.414-.867,5.054-2.867,4.1-4.934-1.147-2.467-8.147-6.721-15.575-9.454-4.334-1.594-6.714-2.207-18.335-4.714a128.827,128.827,0,0,0-15.508-1.36c-10.188-.387-11.294-.32-12.5.773a4.083,4.083,0,0,0-1.327,2.52c0,3.1,8.207,8.234,17.935,11.168,4.067,1.267,4.974,1.333,5.461.533.973-1.533.767-1.667-3.914-3.2-8.161-2.6-11.921-5.447-10.408-7.861,1.093-1.747,5.674-1.78,16.115-.12,11.168,1.78,20.582,4.487,25.856,7.447,6.374,3.6,5.434,6.534-2.087,6.534-2.687,0-2.954.133-2.954,1.6a1.611,1.611,0,0,0,1.5,1.867,35.37,35.37,0,0,0,11.641-.8Zm6.547-10.841c.467-3.394.42-3.534-1.867-5.5-3.467-2.987-8.534-5.307-17.488-8.014-13.168-3.987-26.609-6.321-36.43-6.334-5.3-.007-6.627.893-8.127,5.494-.96,2.94-.953,3.167.1,3.167.8,0,1.433-1.04,2.134-3.5.86-3.007,1.24-3.507,2.68-3.534a6.131,6.131,0,0,0,2.494-.54c1.28-.793,1.693,1.24.807,3.927a7.106,7.106,0,0,0-.56,2.627,51.439,51.439,0,0,0,6.234.56c10.421.593,18.888,2.18,30.669,5.76,3.667,1.113,7,1.9,7.414,1.747s.953-1.367,1.207-2.7c.34-1.8.747-2.367,1.587-2.2.913.187,1.1.92.993,3.874-.133,3.627-.127,3.634.513,1.02a15.284,15.284,0,0,1,.887-2.86,7.515,7.515,0,0,1,2.7,1.22c2.427,1.44,2.46,1.507,2.027,4.667a9.867,9.867,0,0,0-.013,3.894c.913,1.467,1.58.6,2.04-2.774ZM537.8,579.5c0-.94-.293-1.487-.667-1.253a2.86,2.86,0,0,0-.667,2.08c0,.94.287,1.487.667,1.253A2.848,2.848,0,0,0,537.8,579.5Zm46.758-21.742c2.22-5.6,4.787-12.068,5.7-14.375,1.893-4.794,1.753-5.194-2.734-7.787-10.434-6.034-30.849-10.981-45.444-11.008-8.461-.02-8.387-.113-10.308,14.321-2.12,15.955-2.227,17.562-1.293,18.688.887,1.067,3.034,1.32,3.587.42.193-.307,1.267-6.081,2.387-12.834s2.42-13.921,2.874-15.941c.78-3.44.96-3.68,2.987-3.874,2.88-.28,2.9-.793-.793,20.875-1.833,10.761-2.067,13.668-1.107,13.668.74,0,.78-.193,3.72-17,3.154-17.975,2.9-17,4.387-17,1.74,0,1.68,2.373-.347,13.461-1.56,8.554-3.327,19.515-3.36,20.862-.007.36,1.933.993,4.32,1.407s7.307,1.4,10.941,2.18a62.379,62.379,0,0,0,6.754,1.26c.467-.573,5.647-13.655,8.554-21.629,1.9-5.207,3.647-9.654,3.88-9.888s1.027-.107,1.753.287c1.3.693,1.28.84-.993,6.554-3.627,9.094-8.888,23.7-8.888,24.649,0,2.874,1.753-.853,6.674-14.208,3.06-8.287,5.947-15.215,6.427-15.395,1.007-.387,5.28,2.087,5.761,3.334.173.467-2.194,7.127-5.267,14.808s-5.587,14.568-5.574,15.308c.02,1.227.08,1.247.693.193.373-.64,2.487-5.741,4.707-11.334Zm7.587-23.329a3.734,3.734,0,0,1,2.273-1.847c1.354-.313,1.814-1.133,2.847-5.02.68-2.56,1.68-6.3,2.22-8.321s1.914-7.567,3.047-12.334,3.674-14.308,5.661-21.2,3.614-12.961,3.614-13.488c0-.993-8.974-7.654-10.321-7.654a24.974,24.974,0,0,1-4.727-1.907c-6.367-3.074-19.762-7.461-24.289-7.954-1.654-.18-6.754-.347-11.334-.373-9.454-.047-13.728.853-14.681,3.1-.607,1.427-5.781,22.742-7.154,29.469-.373,1.833-1.573,6.787-2.667,11s-2.367,9.641-2.84,12.048c-.84,4.274-.813,4.454.907,7.394a13.292,13.292,0,0,1,1.767,4.12c0,2.12,1.907,1.173,2.127-1.06l.207-2.167,4.667-.413c4.634-.407,4.627-.413-1.333-.353-4.86.047-6-.127-6-.92,0-.82,1.467-.96,8.867-.86a89.105,89.105,0,0,1,31.656,6.054c6.461,2.46,4.607,3.054-2.52.813-5.114-1.607-14.615-3.987-15.928-3.987-.227,0-.407.453-.407,1s-.3,1-.667,1-.68-.527-.687-1.167c-.02-1.107-.053-1.107-.7,0-.927,1.587-2.614,1.48-2.614-.167,0-1.613-1.147-1.787-1.453-.213-.167.873-1.013,1.12-3.994,1.167a12.456,12.456,0,0,0-4.234.507c-.993.993.553,1.8,4.187,2.194a135.794,135.794,0,0,1,31.769,7.347c2.534.953,5.38,1.627,6.334,1.493,1.407-.193.553-.8-4.607-3.26-3.487-1.667-7.534-3.407-9-3.874-2.947-.94-4.14-1.773-3.48-2.44,1.107-1.1,23.149,8.154,23.149,9.714a1.417,1.417,0,0,1-.667,1.033c-.78.48-.913,3-.16,3,.28,0,.807-.667,1.167-1.48Zm-.34-4.854a2.823,2.823,0,0,0-1.58-1.02,4.672,4.672,0,0,1-1.967-.94c-1.16-.88-1.127-1.247.907-8.814,1.167-4.34,2.66-9.394,3.32-11.228s1.567-4.98,2.027-7,1.393-5.314,2.094-7.334a79.971,79.971,0,0,0,2.214-8.334c1.04-5.154,4.24-17.148,4.694-17.595s5.074,2.18,5.447,3.127c.44,1.107-.187,3.96-4.754,21.669-5.5,21.315-10.541,38.47-11.3,38.47a3.277,3.277,0,0,1-1.1-1Zm-8.441-5.04c-.707-.7,2.094-12.9,5.107-22.3,2.64-8.214,5.334-17.508,5.334-18.4,0-.5,1.093-4.894,2.44-9.761,2.02-7.327,2.647-8.841,3.687-8.841a1.771,1.771,0,0,1,1.587.88c.287.76-2.894,12.594-9.274,34.456-.907,3.12-1.854,6.721-2.1,8s-1.007,4.287-1.687,6.667-1.56,5.607-1.967,7.167C585.757,525.209,584.737,525.909,583.364,524.535Zm-40.677-11.008c-.48-1.247,1.153-8.514,6.567-29.289,2.194-8.434,4.714-18.162,5.594-21.622s1.867-6.561,2.194-6.887a4.787,4.787,0,0,1,2.84-.373c2.214.213,2.247.267,2.067,3.12a19.842,19.842,0,0,1-1.213,5.334,34.545,34.545,0,0,0-1.593,5.094c-2.674,12.454-11,43.9-11.848,44.744C546.047,514.9,543.187,514.821,542.687,513.528Zm72.853-41.9a15.745,15.745,0,0,0-3.88-4.06c-3.8-2.754-5.36-3.527-2.52-1.247,5.347,4.287,6.734,6.054,6.314,8.041-.353,1.66-.307,1.727.407.6C616.507,473.938,616.44,473.291,615.54,471.631Zm3.187-9.061,1.16-5-2.827-2.454a16.428,16.428,0,0,0-4.04-2.767c-1.76-.46-.807.72,1.58,1.953,1.9.987,2.014,1.24,1.633,3.827a48.758,48.758,0,0,1-1.127,5.32c-.713,2.514-.747,2.534-2.347,1.487-2.774-1.82-1.773-.547,1.213,1.54,1.56,1.093,3,1.78,3.214,1.54a35.824,35.824,0,0,0,1.54-5.447Zm-15.981-.653c-1.42-1.427-13.681-6.161-20.942-8.094-9.914-2.634-9.487-2.58-20-2.56-11.381.013-16.695.88-18.722,3.034-.833.887-1.16,1.607-.733,1.607a.717.717,0,0,0,.787-.6c0-2.5,20.282-4.474,27.4-2.667,1.98.5,3.9.96,4.267,1.013s.967.167,1.333.253a9.518,9.518,0,0,0,2.073.04c1.814-.14,16.862,4.887,20.855,6.967,3.26,1.693,4.794,2.113,3.68,1.007Zm5.727-1.573a24.905,24.905,0,0,1,1.247-5.354c1.24-3.747,1.233-3.8-.053-4.494-.72-.387-1.38-.6-1.473-.48-.56.747-1.84,9.954-1.507,10.828.62,1.6,1.787,1.273,1.787-.5Zm-12.368-5.034a6.871,6.871,0,0,0-2.3-1.027l-1.667-.433,1.667,1C595.658,455.969,597.125,456.263,596.105,455.309Zm-5.3-2.193c-.733-.407-1.427-.813-1.54-.907-.38-.3,2.04-7.967,2.634-8.347,1.04-.673-8.481-3.387-15.215-4.34a99.368,99.368,0,0,0-10.634-.94l-4.087-.013-1.08,4.307c-1.453,5.774-1.453,5.767,1.42,5.634,4.574-.207,16.221,1.453,22.055,3.147a56.513,56.513,0,0,1,6.041,1.953,1.635,1.635,0,0,0,1.02.273c.393-.007.12-.353-.613-.767Zm27-2.067c0-2.094-17.281-10.141-28.669-13.355a95.926,95.926,0,0,0-27.2-3.747c-9.027.1-11.468.373-11.468,1.293,0,.287,3.74.36,8.321.16a91.393,91.393,0,0,1,37.017,5.934c8.307,3.1,8.794,3.327,15.668,7.381C617.274,452.136,617.807,452.329,617.807,451.049Zm-69.453-2.16a48.207,48.207,0,0,0,1.433-4.927c1.04-4.04,1.073-4.727.233-4.727a11.007,11.007,0,0,0-4.047,1.64,24.211,24.211,0,0,0-.793,3.414,37.026,37.026,0,0,1-1.1,4.52c-.433,1.113-.247,1.193,1.787.76A13.871,13.871,0,0,0,548.354,448.889ZM622.2,447.4c.233-1.007.987-4.067,1.68-6.794s1.26-5.16,1.26-5.414c0-.58-8.9-6.7-12-8.247-8-3.994-20.3-7.787-31.669-9.761-8.774-1.527-12.574-1.613-13.861-.333-.873.873-3.807,11.094-3.807,13.261,0,.693,1.553,1.033,6.167,1.353,5.947.413,15.248,2.294,16.241,3.287a3.359,3.359,0,0,0,1.92.48,33.841,33.841,0,0,1,6.334,1.667c5.374,1.827,7.141,1.873,2.394.06-1.633-.627-3.074-1.647-3.2-2.267-.26-1.273,2.013-11.561,2.7-12.221,1.02-.987,18.095,5.314,18.122,6.687.007.227-.64,2.894-1.44,5.934-1.02,3.9-1.24,5.734-.74,6.234.68.687,2.187-3.334,3.267-8.741.473-2.367,1.14-2.48,4.074-.693,2.48,1.513,2.567,2.16,1.133,8.467-1.787,7.881-1.747,7.834-4.92,5.574-2.527-1.8-13.661-7.367-14.728-7.367-.48,0,2.574,1.733,6.781,3.854a107.035,107.035,0,0,1,9.608,5.314c2.694,2.007,4.174,1.9,4.687-.333Zm-22.4-12.834c0-.367-.467-.667-1.04-.667s-.853.3-.627.667a1.428,1.428,0,0,0,1.04.667A.648.648,0,0,0,599.805,434.567Zm-47.138-3.5c1.073-.8,4.4-13.455,3.714-14.141a4.326,4.326,0,0,0-2.28.2c-1.813.48-2.08.96-3.427,6.147-1.847,7.114-1.907,8.627-.333,8.627a4.638,4.638,0,0,0,2.327-.833Zm75.78-7.747c1.62-6.287,1.007-6.961-11.308-12.281-15.088-6.527-27.462-9.954-39.123-10.841l-6.114-.46-1.053,3.534c-1.727,5.827-1.753,5.787,4.12,6.3a114.45,114.45,0,0,1,20.3,4.04,21.225,21.225,0,0,0,3.207.953c.28,0,.713-1.387.973-3.087a29.846,29.846,0,0,1,.813-4c.487-1.273,3.08-1.133,6.747.367,1.72.707,5.074,2.047,7.461,2.98,4.2,1.64,4.327,1.76,4.154,3.887-.32,3.827-1.487,6.521-2.834,6.521a2.115,2.115,0,0,1-1.607-.587c-.36-.587-3.047-1.5-3.047-1.04a55.8,55.8,0,0,0,6.167,3.32c5.427,2.707,5.894,2.84,3.88,1.14l-2.287-1.94.853-3.28c.467-1.8.967-3.68,1.12-4.167.2-.673.867-.527,2.767.607,1.373.82,2.727,1.687,3,1.92.68.58-1.38,8.3-2.3,8.621-.4.14-.02.793.853,1.453s1.693,1.093,1.82.967A42.915,42.915,0,0,0,628.448,423.32Zm-21.642-6.087a1.551,1.551,0,0,0-1.207-.653c-.48.007-.393.267.207.653C607.086,418.059,607.319,418.059,606.806,417.233Zm-21.5-3.107a2.55,2.55,0,0,0-1.667,0c-.46.187-.087.333.833.333S585.764,414.312,585.3,414.126ZM559.982,412.8a3.8,3.8,0,0,0-2-.027c-.653.167-.28.32.82.333S560.429,412.979,559.982,412.8Zm66.826-.9a1.439,1.439,0,0,0-1.053-.667,11.811,11.811,0,0,1-3.127-1.64c-5.487-3.62-25.456-10.954-27.682-10.168-.447.16.54.667,2.194,1.14a141.509,141.509,0,0,1,22.215,8.674C625.481,412.4,627.581,413.152,626.808,411.9Zm7.641-1.287c1.36-2.54.78-4.674-2.054-7.574-2.034-2.067-2.294-2.227-1-.587,1.707,2.167,2.154,4.28,1.34,6.394-.44,1.14-2.273,1.407-3.294.473-1.753-1.607-12.008-6.561-19.515-9.428-5.841-2.233-8.094-3.374-7.287-3.68,2.06-.8,1.26-1.567-2.88-2.787-4.207-1.24-5.187-2.374-2.354-2.734,1.82-.227,5.74.847,12.648,3.467,2.52.96,4.66,1.74,4.754,1.74a3.466,3.466,0,0,0,.54-1.387c.287-1.1-.107-1.58-1.887-2.327-3.234-1.353-15.155-4.68-20.989-5.861-5.474-1.107-11.488-1.894-10.168-1.333,2.434,1.033.053,1.58-6.667,1.527-8.407-.06-14.648,1.413-15.048,3.547-.16.867.227,1.167,1.5,1.167,2.114,0,2.22.9.213,1.82-1.093.5.393.593,5.5.353,8.4-.393,16.761.547,28.089,3.16,9.921,2.287,17.288,5.14,28.249,10.954a89.509,89.509,0,0,0,8.807,4.307c.447.04,1.12-.507,1.5-1.213Zm-75.907-1.3c.76-.767,2.447-8.754,1.92-9.081-1.247-.773-4.687.553-5,1.92-.98,4.347-1.633,7.474-1.647,7.9-.013.54,4.094-.1,4.727-.74Zm69.826-5.334a9.394,9.394,0,0,0-2.84-2.427l-2.053-1.173,1.5,1.453a4.786,4.786,0,0,1,1.5,2.427c0,.533.6.973,1.34.973C628.955,405.231,629.035,405.051,628.368,403.978Zm-37.9-5.827a54.217,54.217,0,0,0-8.334-1.233l-4.667-.3,3.667.62c2.014.34,5.014.9,6.667,1.233C592.511,399.438,594.545,399.191,590.471,398.151Zm-22.5-2.054a11.831,11.831,0,0,0-3.334-.013c-1.013.153-.34.287,1.493.293S568.8,396.257,567.976,396.1Zm-9.508-1.587c.547-.047.28-.28-.607-.527-2.64-.74-3.247-2.407-1.647-4.56,1.62-2.187,3.847-3.38,7.747-4.154,2.487-.487,2.58-.567.773-.633a15.44,15.44,0,0,0-8.381,2.707c-3.107,2.16-3.374,8.441-.327,7.627A16.246,16.246,0,0,1,558.468,394.511Zm68.973.113c-.74-.707-10.141-5.447-13.8-6.961-2.227-.92-3.534-3.1-1.854-3.1.353,0,.48-.42.287-.933a1.168,1.168,0,0,1,.367-1.38.781.781,0,0,0,.367-1.02c-.607-.98,1.053-1.52,2.56-.84,4.82,2.187,11.108,4.687,11.108,4.414,0-1.127-20.348-8.907-23.282-8.907-.467,0-.347.627.333,1.653.84,1.28.947,2.227.493,4.154-.58,2.454-.647,2.494-3.567,2.387-2.767-.107-2.654-.033,1.687,1.087a110.87,110.87,0,0,1,19.855,7.441c5.58,2.7,6.534,3.047,5.447,2.007Zm-53.471-10.5a2.551,2.551,0,0,0-1.667,0c-.46.187-.087.333.833.333S574.43,384.31,573.97,384.123Zm59.419-3.727c.527-1.927,1.333-5.4,1.793-7.727l.833-4.227,6.741-3.16c5.961-2.787,13.475-7.387,12.074-7.387a27.189,27.189,0,0,0-4.36,2.34c-4.347,2.64-6.861,3.774-13.948,6.287l-4.96,1.76-.827,3.307c-1.667,6.654-2.094,8.167-2.507,8.841-.393.627,2.607,3.4,3.727,3.447C632.222,383.89,632.868,382.323,633.388,380.4Zm-31.583-4.787a14.976,14.976,0,0,0-3.834-1.047c-2.107-.413-4.434-.927-5.167-1.127s-1.12-.147-.86.133C592.7,374.369,601.806,376.256,601.806,375.609Zm13.335-1.38c-.633-.76-.647-1.22-.06-1.927.627-.753.307-1.04-1.7-1.513-3.48-.82-3.914-2.487-.547-2.094,2.394.28,2.454.24,1.087-.667-1.96-1.307-1.82-2.134.367-2.134H616.1l-1.573-1.107c-1.507-1.053-1.527-1.14-.353-2,.667-.487.86-.893.427-.893a.913.913,0,0,1-.793-1,.968.968,0,0,1,.927-1c.507,0,.88-.527.833-1.167-.067-.807.367-1.147,1.407-1.113,2.714.1,1.567-.733-2.234-1.613a16.611,16.611,0,0,0-3.927-.653c-.473.5-3.207,13.741-3.274,15.841-.067,2.18.093,2.34,2.934,3.107a29.422,29.422,0,0,0,4.247.867c1.033.06,1.107-.1.42-.933Zm-31.7-5.62a.775.775,0,0,0-.3-1.04c-.367-.227-.673.053-.673.62C582.471,369.362,582.871,369.535,583.444,368.608Zm-11.4-3.547c.547-1.927,1.2-4.7,1.447-6.167s.847-4.094,1.34-5.834l.9-3.167h-1.953c-1.594,0-2.014.333-2.307,1.834-.2,1.007-1.107,4.874-2.014,8.594-2.027,8.287-2.027,8.241-.033,8.241,1.38,0,1.767-.513,2.62-3.5Zm9.508-5.5c1.2-4.767,2.2-8.894,2.214-9.167.067-.847-4.52-.547-5.08.333-.76,1.193-4.187,14.541-4.2,16.375-.013,1.373.26,1.52,2.434,1.333l2.447-.207,2.187-8.667ZM679.813,353c7.021-5.38,11.514-10.341,17.008-18.808,9.368-14.428,10.468-17.048,19.642-46.931,3.56-11.588,7.494-28.883,5.394-23.7-.3.733-1.207,4.187-2.02,7.667s-2.02,7.827-2.7,9.661-2.04,6.187-3.034,9.668c-3.034,10.621-8.761,25.782-12.174,32.23-7.834,14.781-13.788,22.242-23.942,29.976-3.467,2.64-6.947,5.36-7.741,6.041-2.727,2.34,5.227-2.48,9.568-5.8Zm-31.57-8.141c9.908-4.334,21-13.948,27.263-23.635,4.68-7.227,10.894-20.442,10.968-23.3,0-.16-1.527,2.687-3.394,6.334-4.52,8.821-12.968,19.988-18.642,24.636-.893.74-3.14,2.607-4.994,4.16-3.127,2.62-7.634,4.44-7.634,3.08,0-.327,2.1-2.754,4.667-5.387,5.34-5.48,6.187-7.567,1.5-3.694a107,107,0,0,1-13.335,9.514c-1.56.867-2.834,1.834-2.834,2.16s.3.393.667.167.667-.107.667.267c0,.967-1.473,4.067-1.94,4.08a4.211,4.211,0,0,0-1.367.627c-.833.527-.8.807.26,1.974,1.407,1.56,2.694,1.407,8.147-.98Zm-73.02-1.027c1.587-1.133,2.147-1.24,2.947-.573s1.22.613,2.147-.207c1.707-1.513,7.094-3.147,10.674-3.24l3.147-.08-2.9-.693c-3.547-.853-12.174.347-16.935,2.354-3.36,1.413-3.64,1.767-2.367,3.034,1.033,1.033.987,1.04,3.287-.593Zm11.994-44.117a43.653,43.653,0,0,1-1.453-4.494c-.52-2.06-.393-2.474,1.067-3.554.907-.68,1.513-1.447,1.347-1.713s-.953-4.82-1.753-10.108a193.527,193.527,0,0,1-1.787-23.869l-.333-14.235-2.72.433c-4.774.76-4.66.32-4.267,16.361.26,10.574.72,16.281,1.747,21.682,2.474,12.974,6.574,24.1,8.267,22.409C587.9,302.062,587.871,301.322,587.218,299.715Zm-8.841-2.42c.753-.48.66-1.253-.527-4.427-.793-2.12-2.354-9.281-3.474-15.915-1.833-10.888-2-13.088-1.727-22.569.173-5.774.127-10.488-.1-10.481a53.308,53.308,0,0,0-5.08,2.5l-4.667,2.48-.453,4.667a93.206,93.206,0,0,0,.233,13c.733,8.821,3.5,24.549,4.487,25.542.34.333,1.207.253,2.054-.2,2.474-1.32,4.487-.307,5.947,3,1.367,3.094,1.76,3.38,3.307,2.4Zm-19.288-15.408c0-1.28-.433-5.334-.96-9a95.571,95.571,0,0,1-.98-9.854c-.013-3.027-.087-3.154-1.407-2.447a22.15,22.15,0,0,0-7.954,8.467c-1.46,3.12-1.467,3.16-.367,10.881.6,4.267,1.4,8.861,1.773,10.208l.68,2.46,4.6-4.187c4.014-3.654,4.607-4.494,4.614-6.527Zm130.665,8c-.02-.66-.227-.547-.607.333-.787,1.833-.787,2.887,0,1.667A4.115,4.115,0,0,0,689.753,289.888Zm-19.882-2.5a47.591,47.591,0,0,0,7.487-17.982c.38-1.98.167-2.314-2.614-4.234a11.939,11.939,0,0,0-3.214-1.847,35.168,35.168,0,0,0-.927,4.034c-1.273,6.574-3.487,12.981-5.794,16.815l-2.227,3.7,1.7,1.34a6.294,6.294,0,0,0,2.48,1.34c.427,0,1.82-1.427,3.107-3.167Zm-7.294-7.834c3.234-5.974,7.107-16.681,6.327-17.462a19.035,19.035,0,0,0-3.074-1.6l-2.66-1.193-.7,2.794a135.234,135.234,0,0,1-6.147,17.1L654.41,283.5l1.533,1.187a4.218,4.218,0,0,0,2.46,1.027c.513-.087,2.394-2.86,4.174-6.161ZM547.454,265.259c.507-1.593,7.454-8.041,8.661-8.041.907,0,1.687-1.407,1.687-3.054,0-.52-.26-.947-.58-.947-1.513,0-11.421,11.074-11.421,12.768C545.8,267.086,547.047,266.539,547.454,265.259Zm96.355-8.014c1.013-2.967,2.187-5.174,3-5.62a6.715,6.715,0,0,0,1.76-1.333c.373-.513,1.794-7.634,3.847-19.262.62-3.52.32-3.907-3.687-4.767l-2.08-.447-1.087,4.867c-.593,2.68-1.7,8.167-2.46,12.2s-1.947,9.874-2.647,12.974c-.98,4.354-1.087,5.761-.46,6.161C641.489,262.965,642.129,262.165,643.809,257.245Zm10.994-7.421c.453-3.607-.587-1.6-1.247,2.394-.313,1.874-.247,2.354.213,1.607A13.7,13.7,0,0,0,654.8,249.824Zm43.3-16.395c3.914-16.688,10.181-42.4,11.354-46.551,2.967-10.494,12.875-52.058,20.108-84.341,8.121-36.223,8.081-36,7.007-36-.313,0-1.373,3.374-2.347,7.5s-2.04,8.4-2.367,9.5-.793,3.054-1.033,4.334-1.594,7.134-3,13-3.074,12.921-3.7,15.668c-2.04,9.021-10.354,43.624-10.961,45.671-.333,1.1-1.994,7.854-3.7,15-4.467,18.735-6.514,26.122-7.341,26.442-.4.153-3.26-1.413-6.354-3.48-6.034-4.034-18.508-10.548-22.922-11.974-1.487-.48-6.154-2.1-10.368-3.6s-10.821-3.494-14.668-4.447c-8.054-1.987-10.148-2.887-6.761-2.92,4.927-.04,20.368,4.5,33.416,9.828,7.807,3.194,19.422,9.314,23.455,12.368a17.7,17.7,0,0,0,3.527,2.334c.16-.207,4.54-17.942,14.341-58,6.954-28.456,12.088-50.7,11.854-51.4-.113-.347-1.94,6.381-4.06,14.948-3.96,16.008-4.654,18.882-8.834,36.57-4.14,17.515-10.848,44.517-12.968,52.171-.38,1.373-.913,2.5-1.193,2.5a31.125,31.125,0,0,1-4.714-2.727c-11.954-7.774-33.856-16.475-50.9-20.228-1.007-.22-1.833-.74-1.833-1.147,0-.993,4.9-.307,10.234,1.427,2.254.733,8.2,2.66,13.215,4.28,8.761,2.834,14.761,5.574,27.462,12.561a46.331,46.331,0,0,0,6.047,3.04c.44-.627,12.028-47,16.961-67.879,2.214-9.347,6.734-28.216,10.054-41.93s6.021-25.409,6.014-26c-.053-2.814-1.554,2.394-6.594,22.929-2.974,12.1-6.141,24.7-7.027,28-1.84,6.781-6.141,24.722-8.721,36.337-2.4,10.814-4.4,19.148-5.334,22.249-.533,1.787-2.067,7.787-3.394,13.335s-2.52,10.474-2.654,10.948c-.253.907-2.487-.193-5.26-2.587a92.842,92.842,0,0,0-9.668-5.347c-5.16-2.594-7.874-4.287-7.127-4.447,1.393-.3,8.967,3.174,15.508,7.121,2.5,1.507,4.74,2.514,4.98,2.24.953-1.107,8.674-31.369,14.581-57.178,1.847-8.067,3.667-15.715,4.04-16.995.98-3.32.893-3.54-1.147-3.014a44.312,44.312,0,0,1-5.5.787c-4.074.353-19.775,3.54-27,5.48-9.7,2.6-12.434,3.454-28.669,8.961-28.069,9.514-34.443,11.808-40.67,14.635-6.494,2.947-7.481,3.56-6.807,4.234.24.24.88.073,1.427-.38,1.04-.867,3.714-.38,3.714.68,0,.347.58.267,1.28-.173,1.68-1.047,4.72.233,4.72,1.987,0,2.854-2.06,8.067-3.347,8.474-2.167.687-3.987-.247-3.987-2.054,0-1.64.913-2.167,1.667-.953.907,1.473,2.207.513,2.88-2.127.867-3.407.62-3.894-1.667-3.28a3.66,3.66,0,0,0-2.547,2.734c-.973,2.9-2.5,3.92-4,2.674-.753-.627-1.033-1.64-.86-3.127.167-1.427-.027-2.207-.553-2.207a1.268,1.268,0,0,1-1.093-.833c-.273-.813-2.894.16-8.828,3.274-9.167,4.807-15.328,8.187-19,10.428-2.387,1.453-6.074,3.68-8.207,4.947-3.04,1.8-3.714,2.487-3.134,3.18.927,1.113-.427,2.174-1.453,1.147-.753-.753-5.207,1.507-5.207,2.64,0,.353-.527.48-1.167.28-.96-.307-1.433.493-2.66,4.454-1.867,6.034-3.507,13.361-3.507,15.648v1.74l1.5-1.38c4.067-3.747,22.182-8.947,35.5-10.188,10.654-.993,29.789-.793,38.363.393,7.474,1.04,21.9,3.98,22.509,4.587.44.44,2.8-.913,2.8-1.6,0-.527-3.594-1.48-12.668-3.34-19.375-3.994-49.824-3.747-66.119.533-6.127,1.607-12.648,3.74-14.568,4.767-.973.527-1.687.56-2.134.12-.827-.827.207-1.38,6.814-3.647a86.383,86.383,0,0,1,18-4.487c16.155-2.727,41.95-2.387,56.672.753,9.768,2.08,17.482,3.954,19.522,4.727,1.02.387,2,.56,2.18.38.58-.573-7.787-3.347-15.035-4.987-21.622-4.887-51.1-5.734-68.253-1.96a104.641,104.641,0,0,0-13.188,3.84c-4.9,1.96-7.087,2.174-5.461.547,1.46-1.46,14.421-5.287,22.635-6.687,10.254-1.753,32.456-2.1,42.931-.68,19.175,2.607,33.823,5.974,42.337,9.728,1.1.48,4.4,1.827,7.334,2.987s6.267,2.614,7.407,3.234,4.634,2.427,7.761,4.014c5.354,2.707,9.754,6.114,7.9,6.114a12.392,12.392,0,0,1-3.614-1.88,31.86,31.86,0,0,0-5.12-2.774,15.217,15.217,0,0,1-3.334-1.72c-1.033-.847-10.228-5.627-10.828-5.627a31.307,31.307,0,0,1-3.587-1.453,31.728,31.728,0,0,0-4.254-1.633c-.553-.1-1.9-.36-3-.587-2.187-.44,8.954,4.52,11.681,5.207,1.754.433,16.2,8.187,21.189,11.368a10.975,10.975,0,0,1,3.214,2.734c.193.5-.613,5.214-1.793,10.474s-2.627,11.874-3.234,14.695a29.087,29.087,0,0,1-1.547,5.58c-.247.247-2.333-.9-4.647-2.54a81.745,81.745,0,0,0-8.861-5.34c-5.24-2.634-8.227-4.82-7.541-5.514.253-.253,2.054.433,4,1.533s5.34,2.96,7.541,4.154a62.624,62.624,0,0,1,6.174,3.787c1.6,1.193,2.26,1.393,2.5.747.18-.48,1.66-6.574,3.28-13.541l2.947-12.668-2.087-1.833a50.013,50.013,0,0,0-7.454-4.607c-2.947-1.527-6.414-3.434-7.694-4.234-3.514-2.194-22.622-9.621-24.836-9.654-.273,0-.5.393-.5.873s-1.053,2.107-2.334,3.607-2.174,3.16-1.974,3.68c.473,1.24-2.64,7.427-5.527,10.974l-2.287,2.807,1.894.413c4.82,1.067,15.781,5.3,16.088,6.227.38,1.127-.353.967-8.247-1.84-6.474-2.3-13.848-4.14-12.948-3.227a42.035,42.035,0,0,0,5.667,1.807,73.765,73.765,0,0,1,7.334,2.374c1.1.493,4.7,1.993,8,3.327,5.9,2.394,8.307,3.887,7.521,4.674-.22.22-4.247-1.233-8.961-3.234-12.068-5.114-25.509-8.834-26.449-7.321-.213.347,1.927,1.167,4.754,1.827,16.715,3.914,41.85,15.228,52.938,23.842l2.467,1.913.773-2.86c1.04-3.854,5.747-24.236,6.32-27.376.44-2.42,1.34-3.68,2.087-2.934.2.2-.26,2.86-1.027,5.9-1.9,7.594-5.9,24.4-6.427,27.036a5.273,5.273,0,0,1-.987,2.5c-.3.193-2.114-.887-4.014-2.394-10.061-7.954-32.009-18.215-48.338-22.6-10.761-2.894-17.288-3.92-30.316-4.787a115.876,115.876,0,0,0-28.189,1.113c-.82.127-3.747.593-6.494,1.027-7.167,1.14-18.848,5.167-24.442,8.427-1.527.887-2.954,1.333-3.16.993-.527-.84.453-1.547,6.081-4.36,7.727-3.867,18.942-6.721,34.45-8.761,8.387-1.1,31.383-.287,39.91,1.42,1.94.387,2.56-.653.787-1.333-2.727-1.04-17.515-2.427-26.556-2.487a157.778,157.778,0,0,0-31.143,3.1c-5.021,1.053-16.355,5.16-19.728,7.147-2.16,1.28-3.42,1.267-2.627-.02.573-.92,8.5-4.687,13.708-6.507,4.314-1.507,10.768-2.88,20.388-4.334,10.454-1.58,30.456-1.38,41,.413,2.22.38,2.34.3,2.474-1.633.14-2.16-.367-2.4-6.141-2.907-2.58-.227-2.84-2.587-.36-3.174,1.313-.307,1.86-1.127,2.7-4.027.72-2.487,1.44-3.714,2.273-3.874,1.827-.353,2.36,1.127,1.313,3.634-1.86,4.454-.98,5.734,3.66,5.314a3.639,3.639,0,0,0,2.92-1.46c2.08-3.927,10.441-9.6,12.808-8.694a1.687,1.687,0,0,0,1.714-.6c.947-1.14.813-1.2-5.694-2.654a205.722,205.722,0,0,0-30.169-4.074l-8.834-.44.013,1.934.013,1.933,1.227-1.587c.673-.88,1.394-1.313,1.607-.973.453.74,3.794.74,4.98,0,.507-.32.993-.12,1.233.52.993,2.58-1.94,4.827-3.507,2.687-.493-.68-.9-.947-.9-.6s-1.8.693-4,.767-4-.02-4-.207a13.243,13.243,0,0,1,1.013-2.307c.967-1.867.953-1.967-.333-1.967-1.093,0-1.347.433-1.347,2.334,0,2.04-.207,2.334-1.654,2.334-1.473,0-1.607-.207-1.247-2,.36-1.813.24-2-1.353-2-.96,0-1.747.333-1.747.74s.467.56,1.047.333c.787-.3.993-.033.827,1.1-.153,1.1-.607,1.453-1.707,1.333-1.947-.207-1.947,1.313,0,2.174s2.234,3.447.82,7.687c-1.32,3.98-4.1,5.921-6.747,4.714-.867-.393-1.573-1.12-1.573-1.607,0-1.4,1.907-7.474,3.007-9.581.927-1.78.907-1.907-.407-2.114-1.393-.22-1.433-.787-.247-3.68.4-.98.247-1.18-.76-.987-.953.187-1.207.707-1.033,2.16.227,1.907-.687,3.034-2.48,3.054-.687.007-.82-.607-.533-2.394.36-2.227.287-2.374-1.08-2.014a12.015,12.015,0,0,1-2.313.407c-.553.007-.713.547-.46,1.56a2.261,2.261,0,0,1-2.994,2.794c-.793-.253-1.367-.14-1.367.273,0,1.227-2,.78-2.027-.453-.013-.907-.213-.813-.9.427-.6,1.073-1.04,1.333-1.373.8-.373-.607-.707-.607-1.427-.007-.52.427-.953.513-.96.193s-.293-.113-.633.46a2.776,2.776,0,0,1-2.647.9c-1.12-.073-2.034.133-2.034.46s-.62.6-1.38.6a3.9,3.9,0,0,0-2.38,1c-1.68,1.673-3,1.267-2.487-.767.24-.98.173-1.62-.16-1.433a17.094,17.094,0,0,1-1.833.773c-1,.353-1.087.633-.447,1.407a1.638,1.638,0,0,1,.373,1.66c-.74,1.193-1.687.76-1.747-.807-.047-1.127-.22-.94-.707.74a3.889,3.889,0,0,1-1.834,2.554c-.94.24-1.58,2.167-3.027,9.094-1.007,4.827-2.287,10.434-2.834,12.448a71.237,71.237,0,0,0-2.18,9.894c-.013.533,1.227-.013,3.14-1.387,9.934-7.127,24.529-12.188,40.217-13.935,8.441-.947,29.989-.86,35.957.133,21.129,3.527,35.21,8.074,49.338,15.928,12.234,6.807,17.748,10.154,20.409,12.394,1.987,1.674,2.714,1.974,3.1,1.287.28-.493,1.833-6.541,3.447-13.434Zm-16.288-4.007c-4.22-2.407-9.768-5.26-12.334-6.354-4.687-1.987-6.914-3.494-6.214-4.2.213-.207,1.393.067,2.627.613a199.346,199.346,0,0,1,20.7,10.641c1.7,1.12,1.794,1.12,2.134-.033.987-3.374,4.427-18.135,4.427-19,0-.553-1.167-1.527-2.594-2.174a46.8,46.8,0,0,1-5.44-3.054l-2.847-1.887-1.273,1.62c-1.353,1.713-3.74,2.127-5.007.867-.413-.42-2.054-.753-3.634-.747a11.318,11.318,0,0,1-3.527-.38,34.455,34.455,0,0,0-6.321-.627c-3.114-.127-5.821-.493-6.021-.813a1.89,1.89,0,0,0-1.593-.467c-1.653.16-3-1.893-1.933-2.954.593-.6,1.227-.6,2.694.007a16.531,16.531,0,0,0,4.707.907c1.534.06,2.787.407,2.787.767s.36.3.8-.14c1.12-1.12,1.867-.993,1.867.307,0,.993.133.98,1.333-.107,1.287-1.16,1.333-1.16,1.333,0,0,1.107.093,1.12,1.167.153a1.755,1.755,0,0,1,2.347-.4,3.7,3.7,0,0,0,2.56.227,2.442,2.442,0,0,1,2.674.96,4.558,4.558,0,0,0,1.907,1.393c1.047,0,1.367-1.153.507-1.847-1.393-1.12-18.222-7.787-21.328-8.454-1.7-.36-2.68-2.367-1.16-2.367.373,0,4.647,1.513,9.5,3.367,8.147,3.114,23.789,11.081,27.1,13.808l1.407,1.16-2.62,10.668c-1.44,5.867-2.72,11.174-2.84,11.794C689.52,233.589,688.067,232.989,681.813,229.422Zm-137.646-.82c-.513-.82,1.567-2.84,2.394-2.327.393.24.193.927-.487,1.674-1.32,1.453-1.393,1.48-1.907.653Zm1.76-5.427a2.071,2.071,0,0,1,1.167-1.167c.5-.167.747.08.58.58a2.07,2.07,0,0,1-1.167,1.167C546.007,223.922,545.761,223.675,545.927,223.175Zm140.239-2.594a1.12,1.12,0,0,0-1.307-.293,1.127,1.127,0,0,1-1.333-.333,1.194,1.194,0,0,0-1.4-.307,1.056,1.056,0,0,1-1.354-.62,1.309,1.309,0,0,0-1.674-.66c-1.333.347-1.8-.76-.62-1.487a1.513,1.513,0,0,0,.667-1.133c0-.4-.76.093-1.693,1.1-1.027,1.113-2.094,1.673-2.72,1.427a6.847,6.847,0,0,0-1.307-.393c-.753,0-.147-2.707.827-3.68.88-.88,1.734-1,4.167-.6,1.68.273,3.66.56,4.394.633,2.56.26,5,1.133,5,1.794,0,.367.44.493.98.287,1.68-.647,1.813.787.26,2.887S686.82,221.635,686.166,220.582Zm-139.7-1.287c0-.867,1.72-2.134,2.22-1.633s-.767,2.22-1.633,2.22a.583.583,0,0,1-.587-.587Zm4-2.034c0-2.194,11.414-6.821,22.242-9.014a120.35,120.35,0,0,1,32.69-2.714c5.821.253,11.074.547,11.668.653s2.794.4,4.894.66,4.02.78,4.26,1.167c.307.493-1.547.533-6.154.12-3.627-.32-12.894-.58-20.6-.58-11.721.007-15.408.26-22.649,1.56-8.114,1.453-20.529,5.474-24.169,7.814C550.934,218.041,550.468,218.115,550.468,217.261Zm115.69-.693c-.22-.353-1.287-.467-2.374-.247-1.167.233-1.974.113-1.974-.293,0-.38-.527-.56-1.167-.407a3.147,3.147,0,0,1-2.133-.353c-.8-.52-.68-.86.667-1.987,2.14-1.774,2.874-1.747,2.407.1l-.387,1.5,1.14-1.473c1.02-1.32,1.547-1.433,4.974-1.073,4.214.44,4.7,1.167,2.287,3.434Q667.108,218.108,666.158,216.568Zm-118.684-3.187c.267-.64,1.273-3.374,2.24-6.067,1.88-5.26,3.24-6.1,2.84-1.767-.133,1.467-.287,3.84-.333,5.28-.087,2.56-1.72,4.34-1.787,1.947-.033-1.08-.167-1.047-1.087.273C548.114,214.821,546.781,215.061,547.474,213.381Zm105.836.26c-1.627-.8-1.88-1.447-.833-2.094a1.528,1.528,0,0,0,.667-1.153c0-.407-.753-.033-1.673.827-1.28,1.2-1.867,1.393-2.454.8s-.527-1.06.253-1.954a2.527,2.527,0,0,0,.727-2.02c-.407-1.133.007-1.06,3.127.567,2.92,1.527,3.107,1.854,1.854,3.287-.46.52-.153.373.68-.32,1.967-1.64,3.374-.567,2.047,1.553-.96,1.533-2.067,1.66-4.394.507Zm-99.5-2.927a23.59,23.59,0,0,1,.967-4.334c.853-2.814.847-3.167-.053-3.167-1.594,0-.793-2.167,1.213-3.294.987-.553,2.007-.787,2.267-.527.593.593-1.527,10.434-2.507,11.614C554.681,212.234,553.8,212.094,553.808,210.714Zm117.4-.107a1.419,1.419,0,0,1-.507-1.687c.333-.873.94-1.007,2.934-.647,3.02.547,3.107.607,2.607,1.914C675.819,211.307,672.732,211.568,671.212,210.607Zm-10.6-.993c-3.674-.787-3.834-.933-3.267-3.087.46-1.753,2.374-1.673,3.047.133.293.8.72,1.147.947.78.54-.867,4.474-.3,4.474.653,0,.473.267.453.8-.08,1.24-1.24,1.867-.953,1.867.867,0,1.453-.273,1.653-2.167,1.573A43.332,43.332,0,0,1,660.611,209.614Zm-102.809-.46a7.109,7.109,0,0,1,1.293-2.547,11.4,11.4,0,0,0,1.5-5.054c.213-3.394,1.873-5.214,1.873-2.06,0,2.374,1.073,2.167,1.567-.293.373-1.84,2.013-3.294,2.82-2.487.187.187-.367,2.847-1.227,5.921-1.433,5.107-1.7,5.574-3.194,5.5a2.592,2.592,0,0,0-2.167.833C559.635,210.054,557.8,210.194,557.8,209.154Zm8.254-2.24a1.643,1.643,0,0,1,1.72-2.367c.873,0,1.547-.913,2.294-3.12,1.34-3.927,1.373-3.767-.6-3.274-1.22.307-1.667.153-1.667-.567,0-2.114,5.034-3.267,5.78-1.32.58,1.52-1.827,8.941-3.374,10.381C568.623,208.127,566.569,208.254,566.056,206.914Zm132.192-.253c-.607-.673-.913-1.413-.68-1.64.66-.66,2.914.8,2.914,1.887C700.481,208.234,699.581,208.134,698.247,206.66Zm-125.111-.567c0-1.58,2.954-10.714,3.72-11.514,1.867-1.947,2.347.16.94,4.147a26.931,26.931,0,0,0-1.327,4.76,3.56,3.56,0,0,1-1.047,2.013c-1.087,1.08-2.287,1.393-2.287.593Zm4.667-1.3c0-2.127,2.14-9.281,3.1-10.348,1.36-1.52,3.294-1.913,4.62-.94,1.04.76,1.027,1.14-.14,5.68-1.133,4.42-2.3,6.194-3.374,5.127-.22-.22.067-2.054.647-4.08s.78-3.834.46-4.027-1.2,1.713-1.953,4.254-1.82,4.787-2.367,5C578.177,205.694,577.8,205.447,577.8,204.794Zm36.73-1.027c.12-3.26,2.907-10.2,4.194-10.448,1.093-.207,1.2.06.827,2.047-.933,4.974-2.76,9.5-3.914,9.721-.853.167-1.153-.193-1.107-1.32Zm-5.394-.133a18.186,18.186,0,0,1,1-3.754c1.28-3.627,1.26-4-.22-4-1.573,0-2.114-.56-1.667-1.733.233-.6,1.393-.933,3.294-.933,3.467,0,3.514.207,1.567,6.761-1.087,3.634-1.633,4.574-2.667,4.574C609.726,204.547,609.14,204.133,609.14,203.633Zm-10-.813a1.707,1.707,0,0,1,1.34-1.413c.947-.247,1.64-1.433,2.394-4.107.973-3.427,2.34-5.42,3.727-5.42.84,0,.64,2.14-.533,5.587-1.013,2.967-1.007,3.207.1,4.02,1.914,1.393.493,2.394-3.4,2.394-2.874,0-3.627-.22-3.627-1.06Zm-45.877-10.981a2.07,2.07,0,0,1,1.167-1.167c.5-.167.747.08.58.58a2.07,2.07,0,0,1-1.167,1.167C553.341,192.586,553.095,192.339,553.261,191.839Zm59.879-1.627c0-.547.333-1,.747-1,.52,0,.493-.307-.08-1-.693-.833-.607-1,.5-1a3.338,3.338,0,0,1,2.227,1.073c.753.913.7,1.213-.38,2C614.493,191.5,613.14,191.466,613.14,190.212Zm-58.672-2.294a1.428,1.428,0,0,1,.667-1.04c.367-.227.667.06.667.627s-.3,1.04-.667,1.04A.648.648,0,0,1,554.468,187.919Zm1-4.04c-.227-.367.073-.667.667-.667s.893.3.667.667-.527.667-.667.667S555.695,184.245,555.468,183.878Zm129.858-1.313a44.335,44.335,0,0,0-6-2.714c-3.38-1.073-3.907-1.673-2.607-2.974,1.36-1.367,1.4-2.334.093-2.334-.553,0-1-.28-1-.627,0-1.493,1.6-1.313,5.68.633,3.847,1.84,4.334,2.28,4.174,3.8-.107.947.187,1.854.647,2.013.493.173.833-.273.833-1.093,0-.933.427-1.393,1.293-1.393,1.714,0,2.26,1.007,1.407,2.6-.493.933-.473,1.367.093,1.553.827.28.28,2.54-.607,2.48a27.172,27.172,0,0,1-4.007-1.947Zm-5.06-5.481c-.213-.527-.367-.373-.4.407-.033.7.127,1.093.347.873A1.327,1.327,0,0,0,680.266,177.084Zm-121.8,5.627c0-1,10.768-4.807,13.635-4.827,2.36-.013.153,1.1-5.807,2.92-3.214.987-6.294,1.96-6.834,2.174s-.993.087-.993-.267Zm108.03-4c-10.761-4.454-29.843-8.761-45.357-10.228-9.988-.947-30.683-.367-38,1.06-2.754.54-6.607,1.3-8.567,1.7-4.387.887-5.194.36-1.7-1.113,6.887-2.9,30.976-4.82,46.084-3.66,14.281,1.093,34.876,5.467,47.518,10.1,5.727,2.1,7.341,2.994,7.341,4.054,0,.92-1.26.593-7.314-1.914Zm31.009,1.473c-.927-.7-1.253-1.653-1.14-3.314.167-2.547-.307-2.92-1.547-1.227-1.313,1.8-2.52.433-2.067-2.34l.4-2.427-1.353,2.5c-1.313,2.434-2.82,3.187-3.654,1.833a2.111,2.111,0,0,0-1.633-.667,1.822,1.822,0,0,1-1.613-1.007c-.213-.553-.62-.967-.9-.92-1.76.287-2.087-.2-1.714-2.574.387-2.44.36-2.474-.913-1.347-1.173,1.04-1.447,1.053-2.74.147-.887-.62-1.28-1.407-1.027-2.06.347-.9.193-.947-1.053-.28-1.947,1.04-3.867.347-5.054-1.84-.76-1.4-.973-1.52-.993-.547-.02,1.013-.36,1.16-1.86.787-3.087-.753-3.774-1.853-2.86-4.614a5.544,5.544,0,0,0,.367-3.067c-.547-.887.933-.86,3.56.053,1.173.413,2.1,1.2,2.1,1.8,0,.833.18.893.8.267,1.193-1.193,3.034-.967,4.567.567a2.818,2.818,0,0,0,2.56.993,3.712,3.712,0,0,1,2.8.847,13.243,13.243,0,0,0,2.76,1.653c.887.327,1.06.893.753,2.447-.493,2.447.213,2.68,1.093.36.86-2.26,1.72-2.094,2.627.5l.767,2.167,1.447-2.52c1.84-3.207,3.574-3.107,3.307.2-.173,2.194-.127,2.247.833,1.027a4.806,4.806,0,0,0,1.02-1.887c0-.327.373-.473.833-.32.587.2.84,2.147.853,6.561a39.024,39.024,0,0,0,.58,7.774c.64,1.727-.027,1.893-1.907.473Zm-8.694-7.641c.227-.367.113-.667-.253-.667a1.463,1.463,0,0,0-1.08.667c-.227.367-.113.667.253.667A1.462,1.462,0,0,0,688.813,172.544Zm-3.88-2.127c-.213-.527-.367-.373-.4.407-.033.7.127,1.093.347.873a1.327,1.327,0,0,0,.053-1.28Zm-9.788-7.874c0-.733-.3-1.333-.667-1.333s-.667.6-.667,1.333.3,1.333.667,1.333S675.146,163.277,675.146,162.543Zm-5.774-2.134c.36-1.38.08-2.434-.48-1.807-.68.747-1.093,3.274-.54,3.274C668.705,161.876,669.158,161.216,669.372,160.41ZM557.135,178.538c0-.793.34-1.153.88-.947.487.187,2.22-.233,3.854-.933a43.86,43.86,0,0,1,6.621-2.067c2.007-.44,6.347-1.387,9.647-2.107,8.881-1.927,21.289-2.807,33.336-2.374,5.867.213,10.741.4,10.834.413s.167.313.167.673c0,.42-5.014.52-13.848.293-10.8-.287-15.315-.133-20.5.693-6.827,1.08-19.762,3.94-23.322,5.154C557.408,179.858,557.135,179.9,557.135,178.538Zm77.894-.993c-1.073-1.073-18.768-2.52-30.709-2.514-7.234,0-13.021-.207-12.861-.46.887-1.44,25.469-1.293,37.017.227,4.947.653,9.288,1.46,9.634,1.8.4.387.353.613-.113.613a5.757,5.757,0,0,0-1.667.353,1.412,1.412,0,0,1-1.3-.02Zm-56.838-.973a12.455,12.455,0,0,1,4.28-1.067c2.434-.307,3.44-.233,3,.207-.367.367-2.294.847-4.28,1.067C579.01,177.018,577.817,176.938,578.19,176.571Zm10.154-1.813a1.347,1.347,0,0,1,1.28.053c.22.22-.173.38-.873.347-.78-.027-.94-.187-.407-.4Zm43.464-1.34c-8.387-1.58-9.681-2.227-3.667-1.827s10.334,1.36,10.334,2.314C638.476,174.658,638.342,174.644,631.808,173.417Zm7.334-.207a.667.667,0,1,1,.667.667A.669.669,0,0,1,639.142,173.211ZM660.3,166.55a3.868,3.868,0,0,0-2.387-1.34c-2.147,0-3.447-2.107-3-4.86.267-1.633.147-2.474-.353-2.474-.413,0-.753.6-.753,1.333,0,1.44-.973,1.787-1.7.613-.247-.4-1.18-.533-2.107-.307a3.344,3.344,0,0,1-2.594-.36c-.713-.593-1.18-.573-1.987.1-.867.72-1.147.707-1.634-.073a2.739,2.739,0,0,0-2.114-.953c-.927-.013-1.46-.373-1.347-.913.1-.493-.2-.773-.667-.613s-.947,1.08-1.067,2.06c-.153,1.28-.593,1.78-1.573,1.78-1.12,0-1.287-.293-.94-1.667.227-.913.133-1.667-.213-1.667s-.733.673-.847,1.5-.667,1.5-1.214,1.5c-.76,0-.973-.727-.893-3,.053-1.647-.04-2.474-.22-1.833-.313,1.147-2.887,1.7-2.887.62,0-.3-1.2-.447-2.667-.333s-2.667-.08-2.667-.433-.873-.48-1.98-.253c-3.627.72-4.04.16-3.027-4.194.493-2.114,1.427-4.234,2.08-4.707,1.387-1.013,5.594-1.167,5.594-.2a10.038,10.038,0,0,0,.067,1.167c.04.273-.86.407-2,.287-1.167-.127-2.067.093-2.067.5,0,.733.807.953,2.774.76,1.567-.153,2.007.893,1.233,2.94-.373.98-.4,1.593-.06,1.38a5,5,0,0,0,1.067-2.44c.413-1.88.633-2.027,2.474-1.66a22.184,22.184,0,0,0,2.607.4c.327,0,.447.827.267,1.834l-.333,1.833.78-1.833c.867-2.027,2.347-2.414,2.974-.773.327.847.513.88.96.167.427-.693.827-.72,1.8-.12a2.181,2.181,0,0,0,2.16.207c1.4-.867,2.667.587,2.28,2.6l-.34,1.753.827-1.667c1.474-2.96,3.694-3.314,2.807-.44-.447,1.42-.427,1.42.947.193a2.955,2.955,0,0,1,3.254-.72,20.078,20.078,0,0,0,2.527.58c.367.033.76.727.88,1.553.26,1.853.88,1.907,1.967.167a3.039,3.039,0,0,1,2.994-1.267,21.854,21.854,0,0,0,3.467-.167c1.813-.32,2.18,1.967.507,3.14a8.433,8.433,0,0,0-2.094,4.014c-.673,2.687-.633,3.2.327,3.9,1.147.84,1.113,3.107-.06,3.5-.373.12-1.2-.38-1.827-1.113Zm-.693-7.021c.38-1.66.46-3.154.187-3.327-.84-.52-2.027,1.413-2.44,3.947-.3,1.833-.16,2.394.587,2.394.607,0,1.233-1.127,1.667-3.014Zm-19.262-6c-.207-.207-.58.16-.833.82-.36.947-.28,1.027.373.373C640.349,154.269,640.549,153.729,640.349,153.529Zm-.54,6.681a1,1,0,1,1,1,1A1,1,0,0,1,639.809,160.21Zm28.669-8.227c0-.427.967-.773,2.147-.773h2.147l-1.52-1.5c-1.427-1.407-1.567-1.427-2.387-.333a3.244,3.244,0,0,1-2.294,1.167c-1.193,0-1.44-.413-1.507-2.5-.04-1.373-.213-1.9-.387-1.167-1.013,4.314-8.867,3.687-8.867-.7,0-3.794,6.087-5.967,8.207-2.94l.953,1.36.38-1.427c.607-2.347,2.1-1.08,2.467,2.094.32,2.84.367,2.894,1.22,1.387.6-1.053,1.3-1.453,2.16-1.233,1.433.38,1.72-.833.493-2.06-.987-.987-.287-1.78,1.093-1.247.707.273,1.027,1.3,1.027,3.34,0,2.18.307,3.08,1.167,3.447,1.007.433.933.567-.5,1.007-1.627.493-1.614.513.333.567a28.68,28.68,0,0,0,4.507-.353c2.26-.373,2.394-.5,1.333-1.307-.713-.54-.847-.9-.34-.913.993-.02,1.14-1.353.147-1.353-.373,0-.973.773-1.333,1.713-.42,1.113-1.06,1.64-1.813,1.493-1.567-.3-2.76-7.087-1.4-7.947s2.567-.707,2.567.34a1.566,1.566,0,0,0,1,1.307c.68.267,1-.033,1-.927,0-1.553,2.5-1.847,3.074-.353a1.009,1.009,0,0,0,1.273.613.933.933,0,0,0,.58-1.18c-.193-.513.687-1.133,2.287-1.613,3.894-1.16,4.714-.993,5.147,1.053a13.814,13.814,0,0,0,1.033,3.027c.813,1.493.247,2.474-1.427,2.474-.833,0-1.62-.807-2.26-2.334a9.644,9.644,0,0,0-1.18-2.334,11.735,11.735,0,0,0,.04,3.08l.247,3.08,2.9-.393c4.4-.607,3.127,1.173-1.58,2.2a47.593,47.593,0,0,0-5.4,1.46c-2.574,1.02-16.735,1.593-16.735.68Zm16.335-2.774c.227-.367-.04-.667-.587-.667a1.81,1.81,0,0,0-1.414.667c-.227.367.04.667.587.667A1.81,1.81,0,0,0,684.813,149.209Zm-23-2.927c0-1.447-.38-2.407-1.053-2.667-1.5-.573-1.467-.607-1.947,1.58-.52,2.38-.033,3.347,1.707,3.347,1.027,0,1.293-.467,1.293-2.26Zm23.062-2.234c-.733-.733-1.227.427-.707,1.633.493,1.14.533,1.14.807-.027A2.15,2.15,0,0,0,684.873,144.048Zm-33.61,5.167a8.247,8.247,0,0,1-3.567-1.973c-1.247-1.333-1.267-1.54-.287-2.627,1.32-1.46,1.387-3.407.12-3.407-1.04,0-2.72,4.254-2.094,5.274.687,1.113-.733,1.407-3.054.633-2.954-.98-4.054-2.074-3.514-3.48.413-1.087.507-1.087,1.72.007s1.253,1.1.807-.067a1.689,1.689,0,0,1,.753-2.12c1.74-1.273.933-1.7-1.16-.62-2.16,1.127-2.647.733-1.693-1.36.727-1.607,2.12-2.107,2.8-1.007.2.32,2.013.793,4.04,1.047s4.074.853,4.554,1.34a3.274,3.274,0,0,0,2.74.527l1.86-.353-.513,2.92a24.536,24.536,0,0,0-.42,4.427c.06.827-.12,1.473-.387,1.433s-1.494-.307-2.707-.593Zm-.12-3.047c0-.527-.3-.96-.667-.96s-.667.62-.667,1.373.3,1.187.667.96A1.757,1.757,0,0,0,651.143,146.168Zm1.773-.46c-.187-.46-.333-.08-.333.833s.147,1.293.333.833A2.55,2.55,0,0,0,652.917,145.708Zm42.224-3.84c-1.6-2.02-1.98-2.94-1.433-3.487s1.187-.507,2.427.153c1.947,1.047,2.914.493,1.7-.967-.693-.833-.62-1.08.407-1.413a44.708,44.708,0,0,0,4.36-2.027l3.114-1.613,1.053,1.493a5.808,5.808,0,0,1,1.047,2.267,2.655,2.655,0,0,0,1,1.6,2.7,2.7,0,0,1,1,1.487c0,.36-.453.487-1,.273-.6-.233-1,0-1,.573,0,1.053-1.993,2.334-3.627,2.334a4.823,4.823,0,0,1-2.547-1.727l-1.493-1.727-.333,2.554c-.46,3.534-2,3.607-4.674.227Zm10.241-3.994c-.967-1.934-2.234-2.694-2.234-1.333,0,.74,2.08,3.194,2.78,3.28C706.175,139.848,705.928,138.974,705.382,137.874Zm-37.2,2.054c-.607-.98.46-1.273,5.967-1.633a88.738,88.738,0,0,0,15.495-2.347c2.934-.873,3.48.313.673,1.48a58.982,58.982,0,0,1-12.168,2.394c-.733.053-3.174.26-5.427.46C670.1,140.521,668.465,140.394,668.178,139.928Zm-2.22-6.421c-2.927-2.054-1.493-5.527,3.067-7.434,2.407-1.007,3.034-.807,3.154,1.007.04.62.12,1.78.187,2.58a4.756,4.756,0,0,0,1.22,2.56c.94.94.96,1.2.167,1.707C672.239,134.887,667.565,134.634,665.958,133.507Zm3.46-2.8c-.533-2.947-.633-3.1-1.56-2.527-.96.593-.907,3.234.087,4.227C669.378,133.841,669.878,133.26,669.418,130.707Zm9.174-.873c-1.147-4.967-1.067-5.294,1.293-5.294,1.567,0,1.974.247,1.687,1a4.165,4.165,0,0,0,.193,2.5c.52,1.353.627,1.38,1.06.313a1.259,1.259,0,0,1,1.8-.767c1.133.36,1.253.2.84-1.147-.76-2.5-.713-2.9.333-2.9a1.448,1.448,0,0,1,1.193,1.333c.513,3.387.913,4.334,1.833,4.334,1.34,0,1.253,1.94-.113,2.467a5.549,5.549,0,0,1-3.107-.34c-1.594-.6-2.154-.567-2.734.16a4.9,4.9,0,0,1-2.114,1.32c-1.213.36-1.48-.007-2.167-2.98Zm-17.235-.36c-.473-1.227,1.14-2.507,2.034-1.613.727.727.06,2.68-.913,2.68-.393,0-.893-.48-1.12-1.067Zm12.914-2.067c-.66-.173-1.087-.66-.94-1.087.4-1.22,2.767-.913,3.02.387.227,1.187.047,1.253-2.08.7ZM554.315,243.424c4.22-3.147,16.168-7.861,25.909-10.214,1.974-.48,2.867-1.087,3.14-2.134a4.233,4.233,0,0,0,.233-1.62c-.7-.7-19.188,6.281-26.129,9.861-7.967,4.107-8.334,4.374-8.334,6.007,0,1.107.193,1.173,1.5.5A34.138,34.138,0,0,0,554.315,243.424Zm103.969-10.054c.58-1.567.867-3.034.64-3.26-.58-.58-1.72,2.68-2.093,5.981-.167,1.54-.147,2.194.047,1.46S657.711,234.936,658.284,233.369Zm-82.194-8.154c.207-.733.547-1.934.76-2.667.287-1.013.06-1.333-.967-1.333-1.66,0-1.92.42-2.487,3.974-.44,2.727-.4,2.814.927,2.107a4.031,4.031,0,0,0,1.767-2.08Zm10.474-.98c2.2-.347,2.46-.613,2.707-2.76l.28-2.367-4.707.453a21.611,21.611,0,0,0-5.154.887c-.387.38-.813,3.7-.627,4.867.04.233,1.2.173,2.574-.133s3.594-.733,4.927-.947Zm10.921.987c1.06-.007,1.507-.687,2.094-3.174a27.545,27.545,0,0,0,.653-3.267c-.227-.253-2.307-.387-4.88-.313-2.994.087-3.047.16-3.874,5.007l-.44,2.6,2.554-.42a33.053,33.053,0,0,1,3.894-.433Zm44.324-16.635a1.428,1.428,0,0,0-.667-1.04c-1.387-.853-.58-2.434,1.74-3.407,1.32-.553,2.267-1.14,2.1-1.307a5.823,5.823,0,0,0-2.72.707c-3.08,1.287-5.787,1.313-5.787.053a10.62,10.62,0,0,1,.7-2.8c.667-1.753.64-1.793-.5-.753a15.753,15.753,0,0,0-2.46,3.44c-1.18,2.214-1.193,2.454-.153,4.047.94,1.433,1.613,1.687,4.427,1.687C640.316,209.214,641.809,208.934,641.809,208.587Zm-10.128-1.707c-.413-.92-.88-1.547-1.033-1.393-.313.313,1.04,3.06,1.5,3.06C632.315,208.547,632.1,207.8,631.682,206.88Zm-40.644-6.167a15.5,15.5,0,0,0,1.013-3.5c.22-1.28.233-1.96.02-1.5a1.5,1.5,0,0,1-1.247.833c-.867,0-1.66,1.974-1.68,4.167-.007.64.28,1.167.633,1.167s.92-.527,1.26-1.167ZM568.469,191.2c0-.293-.6-.373-1.333-.18s-1.333.587-1.333.88.6.367,1.333.173S568.469,191.486,568.469,191.2Zm9.147-1.32c-.053-.733-.487-1.333-.953-1.333s-.86.6-.86,1.333.433,1.333.96,1.333c.547,0,.913-.573.854-1.333Zm13.521-1.667c0-.913-.3-1.667-.667-1.667s-.667.753-.667,1.667.3,1.667.667,1.667S591.138,189.132,591.138,188.212ZM546.121,166.89c-1.273-4.34-2.32-9.107-2.32-10.588,0-2.127-.173-2.52-.82-1.874s-.573,1.74.333,5.194c1.693,6.461,4.62,15.675,4.894,15.4A61.925,61.925,0,0,0,546.121,166.89Zm7.941-5.014c3.794-16.755,4.534-18.775,11.408-31.336,3.514-6.414,6.834-13.014,7.381-14.668,1.227-3.72,3.087-7.334,3.774-7.334.28,0,.513-.693.513-1.547,0-2.374,8.281-14.135,23.035-32.71a22.357,22.357,0,0,1,12.768-8.1c3.634-.82,15.068-5.167,16.535-6.287.367-.273,3.067-1.8,6-3.387s9.834-5.781,15.335-9.327c12.374-7.987,11.381-7.481,21.555-11.041,8.854-3.1,11.581-4.567,24.115-12.974,8.814-5.907,12.961-8.141,14.548-7.814.927.187.8.527-.727,1.954-1.213,1.14-1.693,2.114-1.413,2.854.28.72-.2,1.78-1.354,2.98L705.755,25l4.44.42a115.1,115.1,0,0,0,12.6,0c8.334-.42,10.1.007,8.414,2.04-1.14,1.38,3.5,2.407,10.848,2.407,4.974,0,6.427.207,6.427.907,0,1.193-8.961,2.747-12.814,2.22a17,17,0,0,0-6.354.627l-3.494,1.007,2.827,3.367c1.56,1.847,4.007,4.754,5.447,6.454,2.98,3.527,7.434,12.688,10.9,22.422,2.82,7.941,3.367,14.968,1.28,16.495-1.1.8-1.147,1.38-.52,6.374.74,5.881.453,9.227-1.973,23.135-3.914,22.429-3.68,26.162,3.074,49.458.773,2.674,9.234,7.547,13.088,7.547,3.92,0,5.787-1.173,6.254-3.934.22-1.32.66-3.3.98-4.4.813-2.76,4.027-21.4,4.267-24.7.213-2.907,5.794-15.241,10.688-23.622a39.9,39.9,0,0,0,3.407-7.014c.48-1.993.473-1.993-.933-.747-2.494,2.207-13.935,4.18-13.3,2.294.14-.44,2.774-1.333,5.847-1.993s5.9-1.54,6.294-1.954c.513-.547.32-.633-.727-.313-1.393.413-6.694,1.4-11.628,2.16-3.28.507-6.607-1.24-6.607-3.46,0-2.027,1.354-2.14,3.06-.253,1.12,1.24,1.727,1.353,5.274.953,2.2-.247,5.8-.873,8-1.393,5.12-1.2,4.947-1.22,5.594.533.507,1.373.693,1.22,2.24-1.833,1.52-2.994,1.667-3.98,1.5-9.874-.14-4.854.027-6.634.667-6.874.853-.333.64-2.594-.367-3.914-1.373-1.793-5.294-12.474-4.84-13.188.28-.447.54-8.314.58-17.482.067-15.941.74-22.3,2.254-21.355.467.287,1.513-11.041,1.06-11.508A15.444,15.444,0,0,0,788.4,19.67c-1.027,4.334-2.327,4.634-2.1.48.2-3.594,5.554-20.182,9.314-28.849,2.754-6.354,2.954-7.194,2.56-10.668a77.768,77.768,0,0,1,.573-12.773,429.749,429.749,0,0,0,2.253-51c-.227-21.473.44-24.723,6.847-33.336a79.469,79.469,0,0,0,4.407-7c3.98-7.123,4.294-7.543,5.04-6.791.473.469-.333,2.684-2.547,7.029-2.994,5.867-3.52,8.276-1.447,6.6a44.872,44.872,0,0,1,5.967-2.721,98.383,98.383,0,0,0,9.667-4.611c2.534-1.416,5.067-2.776,5.734-3.02a1.962,1.962,0,0,0,1.133-1.647c0-1-1.6-7.735-3.734-15.507A125.7,125.7,0,0,0,825.406-160c-2.627-4.734-8.321-11.941-13.395-16.935-7.181-7.061-13.574-12.554-14.621-12.554-.527,0-3.274-1.313-6.1-2.92-5.367-3.047-7.867-4.027-16.135-6.314-7.607-2.107-9.554-2.32-20-2.2-10.288.113-18.815,1.12-21,2.48a43.13,43.13,0,0,1-7.327,2.274,34.876,34.876,0,0,0-6.807,2.127,1.4,1.4,0,0,1-1.48.253c-.367-.227-3.36.5-6.654,1.613a58.651,58.651,0,0,1-6.8,2.02c-.44,0-3.687,3.074-7.207,6.834-8.514,9.1-19.688,19.855-22.3,21.469-1.153.72-4.654,3.434-7.767,6.034-6.361,5.307-14.308,11-15.355,11a1.416,1.416,0,0,0-1.06.969c-.207.533-1.92,1.953-3.814,3.158-3.44,2.186-5.721,4.192-20.775,18.243a175.425,175.425,0,0,1-18.482,15.495c-4.654,3.254-22.515,14.807-22.9,14.807-1.36,0-9.627,5.663-9.627,6.6a26.668,26.668,0,0,1-2.227,5.758,84.247,84.247,0,0,0-3.42,8.315c-.653,2.017-2.46,6.367-4.014,9.668-4.007,8.521-10.261,26.1-10.588,29.758-.2,2.232-1.06,4.265-3.12,7.334a24.941,24.941,0,0,0-3.314,6.745,7.755,7.755,0,0,0-.267,2.5c.193,0,9.821-12.814,16.275-21.667a103,103,0,0,1,7.507-8.767l4.594-4.766.213-4.36a22.5,22.5,0,0,1,2.374-9.044c2.047-4.436,4.254-7.354,5-6.607.187.187-.88,3.272-2.373,6.856s-2.62,7.155-2.507,7.935c.2,1.414.92-.34,5.334-12.977a6.031,6.031,0,0,1,2.827-2.786,24.353,24.353,0,0,0,4.547-3.106c2.327-2.038,3.827-2.6,3.827-1.436,0,1.569-1.053,2.922-3.674,4.724-1.693,1.167-3.02,2.687-3.294,3.77a12.74,12.74,0,0,1-1.68,3.532,74.747,74.747,0,0,0-3.847,7.088c-2.06,4.222-3.94,6.717-8.787,11.658a111.906,111.906,0,0,0-9.227,10.62c-8.167,11.542-16.735,22.521-21.6,27.648-4.987,5.274-5.454,6.014-6.621,10.514-1.367,5.274-1.56,6.727-.667,5.174A26,26,0,0,0,538.44,3.7c.433-2.107,1.067-3.834,1.407-3.834.893,0,.76,1.553-.727,8.6-.727,3.447-1.32,6.694-1.32,7.207,0,1.94,11.181-6.794,19.682-15.375a142.337,142.337,0,0,1,14.335-12.748C578.157-16.919,589.8-28.19,589.8-29.859a51.364,51.364,0,0,1,1.74-6.851c1.68-5.557,3.234-8.4,4.26-7.764.267.166,1.027-.291,1.68-1.015a3.859,3.859,0,0,1,2.087-1.318c1.007,0,1.227,1.718.293,2.295-.327.2-.44,2.12-.247,4.257.433,4.833-.227,6.131-5.534,10.849a105.346,105.346,0,0,0-8.147,8.38,48.985,48.985,0,0,1-6.841,6.667C570.7-8.578,565.569-4.4,560.8.516c-2.934,3.027-6.214,6.294-7.287,7.261s-3.62,3.294-5.667,5.167-5.814,5.18-8.381,7.327a49.6,49.6,0,0,0-4.894,4.427,7.517,7.517,0,0,1-1.247,1.547c-.64.633-1.26,3.214-1.647,6.821a85.2,85.2,0,0,1-1.593,9.581c-1.107,4.347-1.227,3.9,4.067,14.961a119.142,119.142,0,0,1,6.834,18.735c1.687,5.974,3.3,10.861,3.594,10.861.647,0,.793-.7,2.56-12.334,1.133-7.487,1.867-10.254,3.714-14,3.214-6.541,7.781-13.335,8.954-13.335.547,0,1.507-.947,2.14-2.1a14.256,14.256,0,0,1,3.18-3.667c8.707-6.714,21.7-18.322,33.083-29.569C609.906.656,611.68-1.358,611.4-2.8c-.393-2.04,2.507-10.808,3.7-11.208.673-.227.807.773.6,4.447-.36,6.374.8,5.014,1.347-1.58l.427-5.12,2.387-.819a25.432,25.432,0,0,0,5.594-3.269c3.254-2.484,4.354-2.948,4.354-1.84,0,1.034-.787,2.722-1.267,2.722a23.735,23.735,0,0,0-3.907,3.246c-3.447,3.234-3.454,3.247-3.06,6.561.36,3.047.233,3.474-1.52,5.12A59.835,59.835,0,0,1,615.167-.6,156.844,156.844,0,0,0,603.206,10.75,314.275,314.275,0,0,1,570.9,39.912c-5.727,4.367-6.634,5.574-8.707,11.621-2.053,5.974-3.994,10.014-5.774,12-1.267,1.413-3.467,12.954-4.287,22.5-.24,2.84-.713,5.167-1.053,5.167s-.647-1.874-.687-4.167l-.08-4.167-.653,3c-.36,1.653-1.5,5.7-2.534,9-1.84,5.867-2.594,8.414-6.554,22-1.067,3.667-2.16,7.194-2.427,7.834-.667,1.6.48,1.473,1.507-.167,1.447-2.32,1.947-1.48,2.367,4.04.46,5.961,1.127,7.267,6.581,12.961,1.753,1.833,3.194,3.707,3.2,4.167.013,1.833-1.993.647-4.754-2.8a24.867,24.867,0,0,0-3.28-3.667c-.587-.053,3.267,20.969,5.167,28.176.947,3.6,1.927,6.3,2.18,6s1.58-5.487,2.954-11.541Zm198.058,1.413c-.933-.933.38-11.714,2.513-20.7.907-3.814,2.52-5.414,2.52-2.494,0,.913.34,1.78.76,1.92.547.18.353,2.347-.687,7.621-.793,4.054-1.627,8.894-1.847,10.754-.333,2.8-.62,3.367-1.68,3.287A3.533,3.533,0,0,1,752.119,163.29ZM552.048,141.115c-1.794-.487-8.247-6.887-8.247-8.181,0-1.107,1.773-.053,4.94,2.94a20.656,20.656,0,0,0,4.094,3.334c.307,0,.207-.36-.233-.8a2.883,2.883,0,0,1-.8-1.714c0-1.553,1.993-.593,3.4,1.64,1.28,2.027,1.287,2.147.14,2.734A5.328,5.328,0,0,1,552.048,141.115Zm209.772-1.92c0-.387-.707-.5-1.667-.26-1.227.307-1.667.153-1.667-.593,0-1.2,5.214-3.134,8.454-3.134,1.52,0,2.214.313,2.214,1a1,1,0,0,1-1,1,.969.969,0,0,0-1,.933,1.644,1.644,0,0,1-1.053,1.333c-1.667.633-4.28.467-4.28-.28ZM573.63,80.429c-2.86-1.047-8.834-11.894-6.547-11.894.333,0,1.907,2.22,3.5,4.934,2.2,3.774,3.514,5.26,5.554,6.294,2.307,1.18,2.44,1.36,1,1.347A12.721,12.721,0,0,1,573.63,80.429Zm-.013-5.454c-3.054-3.054-6.481-11.768-6.481-16.461,0-4.667.807-3.607,2.3,3.02,1.447,6.407,2.934,9.528,6.041,12.628a14.483,14.483,0,0,1,2.327,2.687C577.8,77.922,575.557,76.915,573.617,74.975ZM543.861,49.893c-3.04-.493-5.407-2.52-5.38-4.6.013-.893.22-.84,1.167.313,1.52,1.847,2.4,2.107,8.947,2.634,5.82.467,6.541.647,6.541,1.667C555.135,50.62,548.294,50.606,543.861,49.893Zm-2.394-6.134c-3.52-1.827-5-3.18-5-4.58a16.5,16.5,0,0,0-1.38-4.254c-1.84-4.167-1.433-6.274.593-3.06a21.577,21.577,0,0,1,2.14,4.787,6.324,6.324,0,0,0,3.007,3.9c2.734,1.687,4.307,3.16,4.307,4.027,0,.887-.653.74-3.667-.82Zm83.841-31.423c.507-1.56,5.62-3.767,13.521-5.834,4.387-1.147,9.481-2.64,11.314-3.32C655,1.4,656.7.969,656.271,1.655c-.32.52-2.094,1.467-9.194,4.907a70.144,70.144,0,0,1-7.541,1.92,79.9,79.9,0,0,0-10.481,3.034c-2.44.987-3.907,1.313-3.747.82ZM705.815,9.53a3.258,3.258,0,0,1,2.247-.98c1.393.027,1.393.04.127,1C706.388,10.91,704.681,10.9,705.815,9.53ZM648.476,8.023c0-.58,1.233-1.207,6.5-3.3.46-.187.833.153.833.753,0,1.093-2.074,2.167-5.5,2.854C649.27,8.536,648.476,8.4,648.476,8.023Zm62.672-1.14c0-1.053,7.647-4.86,14.335-7.127a27.378,27.378,0,0,1,9.981-1.28,83.912,83.912,0,0,0,22.462-3.654c2.247-.787,2.667-.787,2.98.027.587,1.533-.253,2.234-3.947,3.3a77.38,77.38,0,0,1-20.809,2.907c-6.074-.12-8.561.44-15.135,3.394a77.843,77.843,0,0,1-9.654,3.414c-.12,0-.213-.44-.213-.98Zm36.17-3.54c-2-.32-1.9-1.36.207-2.16,2.407-.913,4.294-.807,4.294.24C751.819,2.562,749.265,3.656,747.319,3.342ZM655.4-2.138c-.04-1.227.26-2,.793-2,1.253,0,1.534.793.887,2.5C656.291.469,655.49.229,655.4-2.138ZM796.35-79.632c-.753-1.835,1.1-20.048,2.787-27.358.853-3.7.86-10.246.013-11.828-.94-1.767.2-8.944,2.647-16.663,2.114-6.652,3.014-8.567,3.7-7.882.227.227-.687,4.378-2.034,9.224-2.587,9.291-2.84,11.688-1.813,16.843.533,2.671.267,4.922-1.627,14a163.591,163.591,0,0,0-2.734,17.818c-.26,3.871-.68,6.484-.94,5.844Zm-.827-39.12c-.233-.383-.127-2.428.247-4.545s1.013-6.85,1.42-10.517c.753-6.643,2.794-12.531,4.98-14.347,1.333-1.108,1.347.717.02,3.284-1.087,2.1-3.534,13.09-4.64,20.846C796.81-118.835,796.3-117.5,795.523-118.752ZM671.258-142.58a1.976,1.976,0,0,1,1.453-1.454c.88-.17,1.153.1.987.985a2,2,0,0,1-1.453,1.455C671.365-141.425,671.085-141.7,671.258-142.58Zm3.887-3.442c0-1.042,12.154-14.775,12.748-14.409.873.54.147,1.58-5.981,8.621C676.879-146.031,675.146-144.547,675.146-146.022Zm128.6-3.92a7.058,7.058,0,0,1,1.147-4.508c1.353-1.934,1.147-2.567-.693-2.1-2.08.52-2.98-.84-1.347-2.034s4.074-1.14,4.554.12c.42,1.1-1.947,8.047-2.96,8.675C804.1-149.577,803.79-149.646,803.744-149.943Zm-111.93-15.542c0-2.067,8.674-13.168,15.015-19.222,7.207-6.881,8.227-7.467,14.821-8.507,2.354-.367,2.834-.26,2.834.64,0,.6-.36,1.087-.793,1.087s-.213.447.5.987c1.12.86,1.16,1.08.293,1.66a4.777,4.777,0,0,1-2.194.68,12.34,12.34,0,0,0-3.807,1.34c-3.1,1.58-4.28,1.693-3.774.367,1.387-3.614-12.7,9.241-17.948,16.381-3.64,4.94-4.947,6.154-4.947,4.587Zm18-16.335c0-.547.3-1,.667-1s.667.453.667,1-.3,1-.667,1S709.815-181.266,709.815-181.82ZM558.555,172.045c.827-1.053.8-1.08-.253-.253-1.113.873-1.467,1.42-.913,1.42A4.345,4.345,0,0,0,558.555,172.045Zm2.667-2c.827-1.053.8-1.08-.253-.253-1.113.873-1.467,1.42-.913,1.42A4.347,4.347,0,0,0,561.222,170.045Zm2.834-4.834a.992.992,0,0,0,1.08-.86c0-.473,2.327-2.234,5.167-3.907s7.267-4.34,9.834-5.921c6.6-4.067,24.235-12.788,24.949-12.348.9.56,2.72-.32,2.72-1.313,0-.473,1.427-1.533,3.167-2.354s7.407-3.54,12.594-6.061,9.6-4.574,9.814-4.574a33.5,33.5,0,0,0,4.027-1.667,32.393,32.393,0,0,1,4.08-1.667,49.96,49.96,0,0,0,5.1-2.047,25.126,25.126,0,0,1,4.867-1.833c.787.907.927,3.114.207,3.407-.473.193-6.407,2.6-13.188,5.354s-14.435,6.027-17,7.267-6.621,3.147-9,4.227c-6.354,2.874-19.562,9.654-20.335,10.428-.367.373,2.034-.673,5.334-2.314,19.748-9.834,31.383-14.508,60.005-24.1,5.867-1.967,13.214-4.247,16.335-5.067s8.667-2.32,12.334-3.34a128.772,128.772,0,0,1,23.782-4.707l7.774-.86,6.8-27.2,6.8-27.2-1.693-4.18c-3.48-8.621-5.207-11.748-7.434-13.448a15.9,15.9,0,0,0-2.56-1.733c-.547,0-1.207,6.407-2.133,20.668-1.48,22.742-3.634,47.571-4.174,48.084a15.016,15.016,0,0,1-4.32.94c-4.807.587-4.86.467-3.927-8.507.947-9.174,1.68-26.962,1.08-26.382-.473.46-3.087,24.909-3.247,30.369-.047,1.56-.347,2.834-.667,2.834a11.421,11.421,0,0,1-2.927-1.44l-2.334-1.447.427-5.02c.38-4.514.327-4.887-.56-3.72a4.963,4.963,0,0,0-1,2.14,53.069,53.069,0,0,1-2.94,7.094c-2.874,6.147-2.967,6.261-5.647,6.714a7.893,7.893,0,0,1-3.374.053c-.387-.24-.54-2.68-.373-5.894.833-15.9.887-19.148.287-19.148-.373,0-.64,3.434-.64,8.241,0,9.761-.54,14.428-1.66,14.428a5.952,5.952,0,0,1-2.514-1.573c-1.613-1.5-1.687-1.867-1.493-7.707.107-3.38.053-5.994-.12-5.821s-1.313,3.12-2.534,6.541-2.807,7.427-3.534,8.894a65.934,65.934,0,0,0-2.574,6.227c-1.167,3.354-1.487,3.68-5.381,5.5-3.76,1.767-6.194,2.414-6.194,1.653a14.964,14.964,0,0,1,.733-2.167c.4-1.033,2.174-5.927,3.94-10.881s4.16-11.548,5.334-14.668c3.6-9.568,6.587-17.815,10.988-30.336,6.007-17.115,8.247-23.089,8.954-23.929a14.434,14.434,0,0,1,3.054-2.034c2.074-1.113,2.514-1.16,3.034-.333.34.527.633,5.761.667,11.628l.047,10.668,1.267-2.667c.693-1.467,3.5-7.387,6.241-13.161s4.774-10.614,4.527-10.761a19.384,19.384,0,0,0-4.78.647,47.884,47.884,0,0,1-5.627.927c-1.873.02-11.034,4.867-11.041,5.834,0,.913-2.38,8.081-5.04,15.181-.96,2.567-2.44,6.621-3.294,9s-3.24,8.687-5.32,14-4.487,11.621-5.347,14-2.454,6.734-3.54,9.668-2.867,7.734-3.954,10.668c-2.754,7.427-4.034,10.334-4.547,10.334-.867,0,.487-4.827,3.787-13.515,1.847-4.854,5.16-13.921,7.374-20.155s5.92-16.135,8.247-22c5.641-14.2,10.248-26.609,9.981-26.876a12.363,12.363,0,0,0-3.447,1.1c-1.78.727-4.96,2-7.074,2.84-3.1,1.227-3.767,1.753-3.454,2.727.293.933.027,1.207-1.207,1.207a13.512,13.512,0,0,0-4.36,1.34,9.707,9.707,0,0,1-3.567,1.167c-.44-.093-1.093.8-1.447,1.994-.767,2.534-2.1,2.947-1.633.5.387-2.02.28-2.02-3.494.013-2.727,1.467-2.867,1.653-1.5,2.047.827.233,1.5.853,1.5,1.373a1.626,1.626,0,0,0,1.033,1.34c1.12.433.973,1.947-.753,7.561-5.981,19.448-11.408,38.87-11.468,41a32.325,32.325,0,0,1-1.373,6.834c-.713,2.294-1.067,4.167-.78,4.167s1.14-2.327,1.887-5.167c1.333-5.054,4.274-15.855,5.4-19.835.307-1.1,2.414-8.747,4.674-16.995C655.41,61.9,657.177,56.848,657.13,59.9c-.02,1.093-1.867,8-4.014,14.968-.787,2.567-1.687,5.721-2,7-2.494,10.261-3.674,14.615-5.721,21.122-1.293,4.114-2.26,8.167-2.14,9.014.187,1.327,5.654-16.968,9.3-31.136.66-2.567,2.587-9.467,4.274-15.335,2.62-9.087,3.38-10.928,5.114-12.454,2.46-2.16,7.647-4.987,8.174-4.46.213.213-2.18,9.334-5.32,20.275s-5.62,20.308-5.514,20.822,2.56-5.62,5.46-13.628c5.934-16.408,11.441-30.736,12.375-32.2.34-.54.84-.76,1.113-.487s-.433,2.814-1.567,5.647c-3.174,7.914-8.234,21.409-9.568,25.489-2.46,7.594-12.014,32.283-13.274,34.316a22.008,22.008,0,0,0-2.073,5.674c-.893,4.154-2.907,6.354-6.794,7.4-3.687.993-4.234.213-2.82-4.034.627-1.893.993-3.587.813-3.767s-.733.947-1.233,2.5c-1.093,3.407-2.354,4.02-3.007,1.46-.433-1.687-.587-1.433-1.533,2.454-1.04,4.28-1.1,4.36-4.714,6.147-4.754,2.36-5.32,2.327-5.32-.313v-2.167l-1.373,2.774c-1.507,3.04-4.974,5.68-9.094,6.914-2.627.787-4.08.407-9.668-2.527-.26-.14-1.26,1.32-2.233,3.24a33.965,33.965,0,0,1-5.327,7.047c-2.867,2.867-3.98,3.554-5.767,3.554-2.307-.007-6.541-2.154-6.541-3.32a.676.676,0,0,0-.667-.68c-.367,0-.667.487-.667,1.073,0,.653-.373.927-.947.707-1.1-.42-1.72.873-1.72,3.607,0,1.073-.3,1.947-.667,1.947s-.673-.673-.68-1.5c-.007-1.387-.153-1.333-2,.76a7.906,7.906,0,0,0-1.987,3.407c0,1.533-2.514,4.667-3.74,4.667-.533,0-1.24-.673-1.573-1.5-.473-1.18-.613-1.247-.647-.307-.033.98-.273,1.06-1.373.473a2.64,2.64,0,0,1-1.38-1.854c-.067-1.673-1.933,4.56-1.953,6.521-.027,2.42-4.22,5.087-6.427,4.08-1.513-.693-2.187-2.08-1-2.08.32,0,.953-1.874,1.413-4.167,1.68-8.347,4.127-17.535,5.06-18.975,1.98-3.067.853-3.047-1.333.02a17.417,17.417,0,0,0-2.714,6c-.24,1.533-1.433,6.987-2.647,12.121s-2.434,10.361-2.694,11.614l-.487,2.28,3.34-2.447c1.833-1.347,3.814-2.447,4.407-2.447Zm5.414-2.667c.227-.367.113-.667-.253-.667a1.463,1.463,0,0,0-1.08.667c-.227.367-.113.667.253.667A1.463,1.463,0,0,0,569.469,162.544Zm14.668-6.847c1.033-.973-5.827,2.6-7.334,3.827-.733.593.467.12,2.667-1.06A40.538,40.538,0,0,0,584.137,155.7Zm-5,1.113c0-.147-.453-.267-1-.267s-1,.293-1,.647.447.473,1,.26,1-.5,1-.64Zm9.668-3.247c3.48-2.147,2.64-2.167-1.1-.027-1.593.913-2.6,1.66-2.234,1.667A13.243,13.243,0,0,0,588.8,153.564Zm20.628-2.1c.393-1.573.073-2.9-.533-2.194-.627.727-1.047,3.94-.513,3.94C608.72,153.21,609.193,152.424,609.433,151.463Zm-27.949-9.454a9.672,9.672,0,0,1-.427-2.354c-.06-1.107-.2-.973-.587.553a21.319,21.319,0,0,0-.567,3.667c-.06,1.62-.027,1.627.933.353A2.822,2.822,0,0,0,581.484,142.009Zm-40.5-4.627c-.087-3.26-2.38-12.788-2.487-10.308-.047,1.213,2.127,14.135,2.38,14.135a17.554,17.554,0,0,0,.107-3.827Zm42.4-.54c.227-.593.113-.86-.26-.627a1.407,1.407,0,0,0-.66,1.033C582.471,138.209,582.951,138,583.391,136.842Zm13.181-1.687c1.427-.767,4.547-6.8,4.56-8.821.007-1.913-1.133-.687-1.587,1.7a16.011,16.011,0,0,1-1.767,4.4c-1.067,1.747-1.554,2.067-2.26,1.48-.753-.627-.707-1.267.293-3.894,1.067-2.814,1.087-3.334.207-5.04-.54-1.04-1.1-1.773-1.247-1.627-.567.567-1.64,10.121-1.267,11.294C593.952,136.055,594.665,136.175,596.572,135.155Zm1.9-6.407c0-1.487-.507-.967-1.26,1.293-.66,1.987-.64,2.06.267.873A4.725,4.725,0,0,0,598.472,128.748Zm-14.215.333c-.213-.527-.367-.373-.4.407-.033.7.127,1.093.347.873a1.327,1.327,0,0,0,.053-1.28Zm-5.207-7.374c1.567-6.734,1.64-6.887,5.414-10.5,2.107-2.014,4.22-4.714,4.7-6,2.22-5.987,7.414-12.168,10.981-13.061,2.12-.533,5.134.853,4.854,2.234-.147.72.487,1.613,1.66,2.34,2.227,1.393,3.814,4.8,3.814,8.214,0,2.094.14,2.32,1,1.607,1.1-.913,1.407-6.334.393-6.961-2.154-1.333-1.06-13.361,1.7-18.708,2.267-4.394,3.347-5.534,6.554-6.961,5.727-2.547,8.7-2.254,11.528,1.147,1.8,2.16,2.274,1.713,3.88-3.687.573-1.927,1.32-3.5,1.66-3.5.88,0,.773.807-.48,3.754a33.65,33.65,0,0,0-1.56,4.58c-.46,2.034-.633,2.107-3.007,1.327-1.307-.427-1.307-.413-.053.607,3.547,2.894,4.927,7.927,2.4,8.734a5.9,5.9,0,0,0-2.48,2.374c-1.453,2.467-1.9,2.46-2.767-.04-.673-1.934-1.607-2.82-1.267-1.207.273,1.293-2.167,1.42-3.534.18-1.213-1.1-1.3-1.067-2,.773-1.153,3.04-.1,9.287,2.794,16.575,3.054,7.7,3.66,11.041,2.667,14.648-.393,1.427-.473,2.314-.173,1.98a50.064,50.064,0,0,0,2.394-7.281c1.02-3.667,2.26-7.867,2.754-9.334,1.92-5.687,8.234-28.589,7.961-28.863-.16-.16-1.354.367-2.66,1.173-2.96,1.827-2.987,1.427-.407-6.207,1.127-3.334,1.627-5.634,1.167-5.407-2.127,1.053,5.041-4.787,8.487-6.921,2.454-1.513,3.547-2.527,2.88-2.654-.593-.113-2.82,1.027-4.954,2.527s-4.994,3.474-6.354,4.374c-2.027,1.333-2.674,2.334-3.547,5.474-1.534,5.527-1.827,6.127-2.134,4.387-.14-.793.44-3.18,1.287-5.3a12.656,12.656,0,0,1,4.54-6.141c1.647-1.253,3.9-3.014,5-3.914l2-1.633-2.287,1.22c-1.253.667-3.954,2.134-6,3.26s-5.967,3.28-8.714,4.794a87.854,87.854,0,0,1-12.668,5.207,66.755,66.755,0,0,0-8.507,3.12,57.79,57.79,0,0,0-4.414,5.754,111.694,111.694,0,0,1-7.567,9.414,43.423,43.423,0,0,0-5.42,7.141c-1.22,2.4-4.54,6.9-8.694,11.788-1.04,1.22-1.007,1.227,1.067.167,2.333-1.193,3.534-1.387,3.534-.56,0,.66-4.694,2.46-5.834,2.24-.88-.173-1.113.933-.893,4.267a27.456,27.456,0,0,1-1.567,7.121c-1.753,5.214-2.08,7.174-1.207,7.174.273,0,1.213-3.08,2.08-6.834Zm2.42-10.234c2.074-1.6,3.667-2.367,3.667-1.767s-3.54,2.847-4.44,2.814C580.39,112.507,580.737,112.033,581.471,111.473Zm48.338-2.694c0-2.52,8.167-28.363,8.487-26.869.127.567-1.107,5.367-2.734,10.668s-3.447,11.354-4.04,13.461C630.442,109.853,629.808,110.867,629.808,108.78Zm-.66-7.074c1.88-6.281,3.34-10.088,4.14-10.834.5-.467.567-.267.213.667-.28.733-.793,2.387-1.14,3.667-1.52,5.587-3.374,10.668-3.894,10.668C628.155,105.873,628.461,104,629.148,101.706ZM642.8,126.168c1.373-.567,2.334-1.193,2.147-1.38s-1.647.247-3.24.98C638.282,127.341,639.2,127.675,642.8,126.168Zm-45.537-3.1c-.48-.48-.787-.52-.787-.1,0,.887.787,1.673,1.233,1.233C597.892,124.008,597.692,123.5,597.259,123.068Zm13.448-3.354c-.587-.947-1.48,1.173-1.467,3.494.007,1.533.087,1.493.973-.533C610.74,121.461,610.96,120.127,610.706,119.714Zm9.714.587c-.04-1.14-.193-1.027-.753.573a23.054,23.054,0,0,1-1.12,2.7c-.22.387.12.127.76-.573A4.492,4.492,0,0,0,620.421,120.3Zm-17.395-.667a51.428,51.428,0,0,0,.693-8.5l-.087-4.26-.56,5c-.313,2.754-.873,6.261-1.247,7.8-.833,3.38-.86,4.2-.133,4.2C601.992,123.874,602.592,121.968,603.026,119.634Zm-1.94-1.38c.9-4.934.94-13.048.067-13.048-1.067,0-2.54,2.747-3.987,7.421-1.56,5.054-1.54,7.774.053,8.627.967.513,1.22.013,1.854-3.614a57.4,57.4,0,0,0,.78-6.487,12.058,12.058,0,0,1,.62-3.614c.407-.947.58-.173.6,2.667.027,3.56-.213,5.26-1.653,11.668-.247,1.107-.153,1.44.287,1a15.106,15.106,0,0,0,1.38-4.62Zm-11.708-2.52c2.874-10.848,6.827-17.042,12.428-19.468,2.254-.973,2.274-1.007.52-1.033-3.44-.047-8,5.28-11.661,13.621-1.714,3.9-2.14,2.007-.467-2.067.587-1.42.727-2.26.32-1.867-1.48,1.427-5.434,13.535-5.32,16.288.027.553.653-.74,1.393-2.874,1.52-4.367,2.114-4.754,1.193-.773-.64,2.74-.847,5.414-.387,4.927C587.544,122.334,588.431,119.294,589.378,115.734Zm-12.688,3.554c.207-1.06.56-2.78.773-3.834s-.22-.413-.967,1.42c-1.513,3.714-1.627,4.334-.78,4.334C576.037,121.207,576.477,120.341,576.69,119.287Zm38.07-12.054c-.7-1.707-1.507,1.267-1.08,3.974l.36,2.334.567-2.64A8.729,8.729,0,0,0,614.76,107.233Zm66.386-6.194c0-1.927.167-7.4.367-12.168.347-8.427.327-8.594-.707-6-1.087,2.734-2.187,18.668-1.427,20.655C680.213,105.7,681.146,104.393,681.146,101.039Zm-81.681-6.121c2.62-1.24,3.134-2.054.84-1.327a16.172,16.172,0,0,0-7.161,5.934c-2.174,3.514-1.547,3.447,1.32-.153A18.608,18.608,0,0,1,599.465,94.918Zm101.682,6.787c0-.94,1.12-13.741,1.64-18.835l.347-3.334-1.92,4.087c-1.16,2.487-1.787,4.747-1.594,5.761a26.658,26.658,0,0,1-.38,6.181c-.467,2.994-.48,4.92-.04,5.741C699.954,102.712,701.148,102.959,701.148,101.706ZM613.14,89.531a2.781,2.781,0,0,1,.847-2.127c.84-.527,2.727-4.2,2.16-4.2a5.83,5.83,0,0,0-1.347,1.834c-1.007,1.773-1.027,1.78-.6.167a14.34,14.34,0,0,1,9.761-10.181l3.514-1.187-3.274.353c-4.207.453-7.234,2.747-9.481,7.181-1.674,3.3-3.254,10.788-2.134,10.094A2.745,2.745,0,0,0,613.14,89.531ZM792.949,88.7c-.167-.64-.307-.113-.307,1.167s.14,1.807.307,1.167A5.505,5.505,0,0,0,792.949,88.7ZM540.833,83.517c-1.227-4.02-2.747-9.354-3.38-11.841-1.674-6.587-1.92-5.054-.307,1.927,1.32,5.754,5.287,17.862,5.707,17.442a62.1,62.1,0,0,0-2.02-7.527ZM728.27,89.745c-.213-.527-.367-.373-.4.407-.033.7.127,1.093.347.873a1.327,1.327,0,0,0,.053-1.28Zm3.187-12.208c1.327-5.5,2.58-10.6,2.794-11.334.253-.893.16-1.113-.293-.667-.553.553-5.474,20.355-5.474,22.035,0,1.653.827-1.14,2.974-10.034Zm-47.191,4.207c-.213-.527-.367-.373-.4.407-.033.7.127,1.093.347.873A1.327,1.327,0,0,0,684.266,81.744Zm-65.093-1.627c2.107-2.22,2.147-2.327.44-1.24-1.553.987-3.72,3.66-2.96,3.66A20.379,20.379,0,0,0,619.174,80.117ZM702.628,57.2c8.121-18.382,9.941-22.8,9.541-23.2-.187-.187-.973,1.133-1.747,2.934-1.447,3.347-2.307,5.234-7.414,16.268-1.62,3.487-3.947,8.661-5.187,11.5s-2.647,5.167-3.127,5.167c-.62,0-.873,1.04-.867,3.5l.013,3.5,1.373-3c.76-1.647,4.094-9.147,7.414-16.668ZM789.6,67.036c-.187-.46-.333-.08-.333.833s.147,1.293.333.833A2.55,2.55,0,0,0,789.6,67.036Zm-89.9-10.861c2.194-5.12,5.387-12.261,7.094-15.881s2.954-6.721,2.774-6.9c-.6-.6-1.76.54-2.72,2.687-.527,1.167-1.387,2.874-1.92,3.787s-2.467,4.967-4.3,9-3.854,8.481-4.5,9.881c-.747,1.627-1.347,2.26-1.66,1.753-.553-.887-1.107,3.474-.76,5.941.213,1.5.26,1.513,1.113.3.487-.7,2.68-5.454,4.88-10.568Zm-56.258,8.007c.713-.54.993-.98.627-.98a4.774,4.774,0,0,0-1.96.98c-.713.54-.993.98-.627.98A4.773,4.773,0,0,0,643.436,64.182Zm-86.314-7.147c.027-1.087-.673-.393-1.68,1.667l-1.053,2.167,1.36-1.667a7.4,7.4,0,0,0,1.373-2.167Zm-28.429-4.86c-.213-.567-.533-.887-.713-.713s-.12.64.127,1.033C528.759,53.555,529.146,53.348,528.692,52.175Zm7.721-41.644c.02-1.54-1,.5-1.5,3l-.393,2,.94-2a10,10,0,0,0,.953-3ZM812.351-37.064c7.961-3.034,14.388-7.306,21.589-14.4,15.135-14.9,25.869-44.217,25.869-70.713,0-7.007-1.267-18.085-2.6-22.183-4.8-14.981-4.534-14.415-13.268-28.483-8.067-13.035-17.068-21.089-31.989-28.576-13.488-6.774-38.763-12.054-50.8-10.614-5.681.68-17.3,3.474-19.722,4.74-1.36.713-.22.807,7.221.593,11.414-.333,20.955.66,29,3.007,10.248,2.987,30.463,13.668,22.4,11.834-1.753-.4-1.693-.287.767,1.427A159.149,159.149,0,0,1,817.9-175.186a84.792,84.792,0,0,1,13.841,20.255c4.667,9.139,7.2,17,9.667,29.451.4,2.055-.133-5.328-.667-9-.4-2.533-.333-2.61.8-1.537,1.6,1.52,2.8,7.639,3.734,18.872.733,9.182.733,9.546-1.333,22.335-2.8,16.742-5.467,24.064-12.334,34-4.067,5.81-12.841,16-13.788,16-.667,0-7.227,4.379-8.994,6.007a8.593,8.593,0,0,1-3.167,1.683c-1.24.308-1.833.889-1.833,1.794,0,1.551-.24,1.6,8.527-1.742ZM595-35.638c.68-.828,1.953-6.471,1.313-5.834a26.454,26.454,0,0,0-1.72,3.5c-1.307,3-1.107,4.16.407,2.334ZM806.49-40.806c.78-.5.593-.649-.833-.657-1.007-.005-1.833.29-1.833.657C803.824-39.962,805.184-39.962,806.49-40.806Zm5.334-3.047c0-.183-.6-.013-1.333.38s-1.333.864-1.333,1.047.6.012,1.333-.381S811.824-43.669,811.824-43.853Zm1.027-4.652a61.538,61.538,0,0,0,7.221-6.3c2.774-3.067,8.8-12.037,9.934-14.673,1.8-4.441,3.134-8.271,2.867-8.485-.133-.131-1.067.463-2.134,1.319-3.4,2.781-12.288,7.833-13.741,7.833a17.847,17.847,0,0,0-3.38,1.265c-1.533.7-3.874,1.711-5.2,2.259l-2.4.994-.413,8.909c-.227,4.9-.62,9.8-.873,10.888l-.453,1.98,1.94-1.243c1.067-.683,4.054-2.82,6.634-4.748Zm15.955-12.014c1-1.307,1.667-2.514,1.533-2.68-.2-.167-1.133.9-2.067,2.378C826.072-57.5,826.406-57.325,828.806-60.518Zm7.867-15.291c3-7.574,2.867-7.2,4.467-16.335,1.667-9.254,2.467-25.333,1.467-28.669-.6-1.956-.667-1.525-.333,2.667.8,11.508-2.2,30.246-7,43-1.067,2.934-2.2,5.934-2.467,6.667-.467,1.333-.467,1.333.467,0a57.869,57.869,0,0,0,3.4-7.334Zm-25.849,1.724c-2.64-1.04-5-1.407-5-.779,0,.35.973.758,2.167.906C811.611-73.509,812.218-73.536,810.824-74.085Zm13.981-7.128c1.6-.261,4.667-1.82,7.467-3.727,4.334-3.012,4.8-3.492,5-5.908a15.165,15.165,0,0,0,.133-2.63,11.651,11.651,0,0,1-1.2-.4c-.733-.29-1.067-.007-1.067,1,0,1.71-1.067,1.8-2.867.238-1.267-1.117-1.333-1.113-.867.085.4,1.163-.533,3.082-1.534,3.082a46.462,46.462,0,0,1-4.734-5.053c-3.667-4.33-4.527-5-5.967-4.711-2.12.432-6.787,2.618-10.681,5.005-2.634,1.611-3.027,2.16-3.22,4.465a27.951,27.951,0,0,0,.193,5.364l.413,2.736,6.474.663c6.454.661,7.434.645,12.454-.2Zm38.737-11a102.445,102.445,0,0,0,3.467-26.267l-.067-6.667-.533,8.667a103.243,103.243,0,0,1-1.534,13c-.533,2.384-1.133,5.534-1.4,7a66.411,66.411,0,0,1-1.667,6.9,26.45,26.45,0,0,0-1.267,5c0,1.647,1.333-1.669,3-7.639Zm16.068-2.419c-.133-.649-.333-.279-.333.821s.133,1.631.333,1.179A3.39,3.39,0,0,0,879.61-94.631Zm-42.337-4.357c-.667-.654-.733-.577-.4.373.267.658.6,1.028.8.823s0-.743-.4-1.2Zm43.671-5.323c-.2-.458-.333-.083-.333.833s.133,1.292.333.833A2.39,2.39,0,0,0,880.944-104.311Zm-66.119-8.335a80.115,80.115,0,0,1,8.314-3.422,91.8,91.8,0,0,0,8.867-3.584c3.6-1.713,4.467-2.445,4.467-3.652,0-1.93-.867-1.906-3.534.1-4.667,3.542-19.975,10.292-22.282,9.836-.46-.091-.833-.038-.833.117a24.731,24.731,0,0,1-1.073,2.863l-1.067,2.582,1.567-1.427A31.943,31.943,0,0,1,814.824-112.647Zm67.519-6.666c-.2-1.375-.267-.25-.267,2.5s.067,3.876.267,2.5A31.328,31.328,0,0,0,882.344-119.313Zm-17.868-26.8c-.867-3.654-2.467-8.035-2.867-8.035a55.984,55.984,0,0,0,1.467,7.047c1,3.875,1.867,6.515,2,5.868a18.061,18.061,0,0,0-.6-4.879Zm-11.268-25.85a25.19,25.19,0,0,0-4.2-5.9c-1.934-1.82-2.067-1.84-1.067-.287,4.4,7.174,6.734,10.688,7,10.428C855.141-167.885,854.341-169.8,853.208-171.965Zm-13.4-17.068a10.857,10.857,0,0,0-1.8-1.833l-1.867-1.62,1.667,1.833C839.273-188.94,839.807-188.513,839.807-189.033Zm-47.6-26.376a6.17,6.17,0,0,0-2.874-1.04c-1.38-.24-3.107-.613-3.84-.827-.753-.213-1.093-.12-.78.207a13.281,13.281,0,0,0,4,1.32c1.894.413,3.54.787,3.654.833S792.4-215.089,792.2-215.409ZM634.162,398.6a8.52,8.52,0,0,1,.373-3.667c.873-3.467,2.607-4.18,2.607-1.073C637.142,397.579,635.322,400.479,634.162,398.6Zm-75.487-20.035a12.346,12.346,0,0,1,.967-4.107,10.534,10.534,0,0,1,3.674-.973c3.74-.513,4.28.227,3.007,4.114-.727,2.227-1.2,2.674-3.187,3.034a21.341,21.341,0,0,0-3.607.96C558.342,382.084,558.282,381.884,558.675,378.564Zm11.3,1.2c-1.093-1.347,1.28-6.807,3.074-7.081,1.667-.247,1.74.413.5,4.547C572.636,380.3,571.229,381.3,569.976,379.764Z" transform="translate(0 0)" fill="#482f1a"/></g></svg>