<svg xmlns="http://www.w3.org/2000/svg" width="130" height="41.54"><g fill-rule="evenodd"><path d="M25.497 9.323c.422 1.108-1.009.888-2.126.818.117-1.013 1.864.25 2.126-.818zM37.109 15.21c.4.1.087.827-.327.654.002-.325.446-.208.327-.654zM49.048 15.373c.134-.331.863.1 1.145.164-.228.425-.847-.119-1.145-.164zM38.418 15.373c.139-.03.155.063.164.164.05.222.41.136.654.164.01.882-.533 1.212-.981 1.635-.2-.29.17-1.132-.327-1.472.439.112.315-.338.49-.491zM50.519 15.864c.1-.4.826-.087.654.327-.325-.002-.208-.446-.654-.327zM25.661 16.519c.02-.361.694-.07.981-.164-.02.361-.693.07-.981.164zM36.618 16.518c.511.264-.336.518-.327.818-.511-.264.336-.518.327-.818zM39.562 16.682c.253-.5.144.709.164.981-.616.365-.861 1.1-1.8 1.145.221-1.033 1.932-.576 1.636-2.126zM34.983 16.846c.347.052.035.775-.327.654-.12-.446.325-.329.327-.654zM37.595 17.009c-.3.408-.451.966-1.145.981.335-.378.545-.874 1.145-.981zM35.473 17.336c.437.19.014.867-.491.654-.143-.525.54-.224.491-.654zM35.801 18.317c.143.525-.425.339-.491.654a.451.451 0 01-.327-.491 1.065 1.065 0 01.818-.163zM37.272 18.481c.191.027.138.3.164.491-.264.046-.281-.155-.491-.164.04-.178.325-.111.327-.327zM34.165 18.645a1.339 1.339 0 01-1.308.818v-.654c.606.115.702-.28 1.308-.164zM41.852 18.808c-.043-.386.479.059.491.164.03.268-.45.21-.491-.164zM36.618 19.135c.407.025.048.553 0 .654-.41-.024-.047-.554 0-.654zM38.744 19.135a.614.614 0 01-.654.654.614.614 0 01.654-.654zM42.506 19.625c.378-.05.182.472.491.491-.147.442-.664-.076-.491-.491zM37.6 20.116c.412.164-.13.723-.491.654-.144-.525.424-.338.491-.654zM35.146 20.28c.328-.056.512.033.491.327h-.491zM44.959 20.28c-.4.864.4 2.224-.818 2.453.294-.617.676-.941.164-1.635-.325 0-.208.446-.654.327-.069-.887.795-.841 1.308-1.145zM43.324 20.607c.05.431-.341.422-.654.491-.05-.431.222-.537.654-.491zM81.92 20.771v.327c-.798.163-.3-.871 0-.327zM41.689 20.771c.547.148.142.366 0 .654-.49-.107.156-.354 0-.654zM36.618 21.098c.076.509-.412.585-.654.327.04-.288.281-.373.654-.327zM39.401 21.098c.024.514-.419.561-.818.654-.026-.514.418-.562.818-.654zM40.87 21.588h-.654a.349.349 0 11.654 0zM11.433 22.243a1.563 1.563 0 011.472-.818 1.346 1.346 0 01-1.472.818zM42.015 21.425h.327v.327h-.327zM62.458 21.425h.491a2.141 2.141 0 00.818 2.126c-.211.443-.3 1.011-.818 1.145-.078-.514.233-.639.327-.981-.264-.226-.2-.778-.818-.654zM81.265 21.425c.185.961.982 1.307.818 2.617-.773.058-.24-2.044-.981-1.472-.455.074.128-.892-.326-.818.034-.236.491-.057.491-.327zM43.16 21.588c.349.152.224 1.19-.327.981.145-.291.457-.415.327-.981zM97.783 21.588h.326v.327h-.326zM53.791 21.915c-.26.394-.119 1.189-.654 1.308-.057-.71.123-1.188.654-1.308zM39.726 22.079a.452.452 0 01-.491.327c-.076-.347.234-.311.491-.327zM41.197 22.079c.078.513-.44.432-.491.818-.288-.04-.373-.281-.327-.654a1.065 1.065 0 01.818-.164zM42.179 22.079c.049.431-.226.537-.654.491.142-.239.245-.519.654-.491zM49.048 22.079c-.031.46-.284.7-.818.654.211-.281.338-.643.818-.654zM49.866 22.078c.55-.059.273.709.491.981a.614.614 0 01-.654-.654c.158-.004.126-.2.163-.327zM84.868 22.079c.431-.05.421.341.491.654-.435.049-.544-.227-.491-.654zM90.097 22.079h.326v.327h-.326zM45.776 22.242h.491c.1 1.025-.787 1.066-1.145 1.635-.446-.563.785-.844.654-1.635zM88.134 22.242h.326v.327h-.326zM57.879 22.57c.429-.471.82.478.654 1.145-.516-.083-.265-.934-.654-1.145zM59.678 22.57c.678.288-.312 1.271.654 1.145.02.294-.2.345-.164.654-.5.119-.481-.282-.981-.164.212-.496.308-1.108.491-1.635zM47.085 22.733c.574.129.189.572 0 .818-.574-.13-.189-.572 0-.818zM63.93 22.733c.34.091.347.256.164.491h-.327c-.047-.265.154-.282.163-.491zM43.65 22.897c.34.091.346.256.164.491h-.327c-.047-.264.154-.282.163-.491zM51.501 22.897h.327v.653h-.327zM48.884 23.06c-.134.412-.214.876-.818.818.093-.452.173-.918.818-.818zM56.57 23.224c.341-.07.433.112.654.164-.209.336-.261.829-.818.817-.118-.5.283-.481.164-.981zM65.074 23.224c.067.394-.3.355-.164.818-.486-.01-.437-.976.164-.818zM67.2 23.224c.376.128.159 1.012-.326.818-.141-.518.257-.506.326-.818zM55.426 23.387c.49.107-.156.35 0 .654-.132-.031-.163-.164-.327-.164v-.33c.19.03.291-.033.327-.16zM68.672 23.387a14.451 14.451 0 01-.818 2.125c-.2-.4-.869-.328-.817-.981.715.424 1.178-.04.981-.981.293.022.348-.201.654-.163zM52.645 23.551c.617.153.767.01 1.145.164-.129.323-.572.588-.818.327-.334.1-.046.826-.654.654-.107-.598.354-.625.327-1.145zM80.284 23.551c.358.024.352.412.327.818-.552.167-.252-.509-.327-.818zM46.595 23.715a.451.451 0 01-.491.327.45.45 0 01.491-.327zM50.029 23.714c.606.122.2.883-.327.818-.14-.522.258-.506.327-.818zM54.117 23.878c.7-.046.011.716 0 .981-.709-.24.173-.366 0-.981zM58.37 23.878c.178.041.111.325.327.326-.05.222-.41.136-.654.164-.09-.362.312-.232.327-.49zM47.576 24.041h.327v.326h-.327zM50.847 24.205c.05-.221.41-.135.654-.163-.045.378-.434.375-.654.163zM70.145 24.041c.532.013.35.741.491 1.145-.288-.143-.506-.548-.654 0-.614-.415.347-.62.163-1.145zM101.054 24.205c.025-.407.553-.047.654 0-.109.49-.347-.156-.654 0zM55.426 24.368a.349.349 0 110 .654c-.273-.328.015-.207 0-.654zM71.616 24.532c.365.168.129 1.094-.327.981-.081-.514.232-.639.327-.981zM76.686 24.859c.328-.055.511.034.491.327h-.491zM99.092 31.074a12.293 12.293 0 014.415 0c1.363-.169.75.382 1.472.164a12.256 12.256 0 01-2.617-.164c-1.39-.018-2.194.433-3.271 0zM97.293 31.237c.461.247.671-.055 1.308.164-.082.225-1.472.396-1.308-.164zM96.638 32.055c.108-.49.35.156.654 0-.027.406-.552.047-.654 0zM100.4 33.363h.326v.326h-.326zM94.185 34.017c.333-.375 1.358-.059 1.963-.164-.334.376-1.357.06-1.963.164zM88.625 38.106c-.027-.355.581-.074.818-.164.027.355-.58.075-.818.164zM96.965 38.106c.174-.371 1.028-.063 1.472-.164-.177.371-1.032.063-1.472.164zM104.815 37.942h.654c.165.492-.364.29-.654.327zM94.512 38.106c-.3.638-1.872.375-.817.164a2.259 2.259 0 01.818-.164zM95.494 38.106a.718.718 0 01-.654.326c-.164-.491.361-.288.654-.326zM109.394 38.106h.326c.076.349-.234.311-.491.326.027-.132.164-.162.164-.326zM100.727 38.433c-1.232.673-2.714.3-4.579.491 1.34-.611 3.21-.231 4.579-.491zM104.815 38.923c-.065-.318.745-.239.491.164h-.327c.027-.14-.061-.154-.164-.164z"/><path d="M119.861 35.981c.08 1.07 1.676.523 2.126.818.085 1.889 1.5 3.279 1.472 4.743-3.575-.786-6.985-1.738-9.322-3.762a12.137 12.137 0 01-5.234 1.472c-.72.057-1.309.425-1.963.491-.357.036-.765-.179-1.145-.164-1.252.047-2.57.4-3.925.491-.81.056-1.68-.08-2.454 0-2.095.215-4.1.726-6.215.818-7.037.305-13.928.552-21.751.164 1.092-.536 2.448-.193 3.925-.164 3.548.07 8.953-.42 13.247-.491-6.042-.134-12.524-.168-18.807 0-.235.78 1.216-.126.981.654-1.881.128-3.885-.025-5.888.163-1.613.152-3.094-.368-4.743-.491-1.175-.087-2.29.165-3.434 0-.681-.1-1.268-.432-1.963-.491s-1.522.08-2.29 0c-1.269-.132-3.119-.57-4.743-.818-1.178-.181-2.434-.045-3.6-.164-.406-.042-.741-.29-1.145-.326-.2-.018-.593.2-.818.164-1.237-.187-2.664-.532-3.925-.818a20.211 20.211 0 00-2.126-.654c-.307-.037-.665.165-.981.163a21.881 21.881 0 01-2.453-.491c-1.629-.2-3.222-.435-4.743-.654-1.655-.238-3.006-.195-4.743-.491a44.639 44.639 0 01-4.906-1.308c-.492-.137-1.109-.017-1.472-.164-.82-.331-1.25-1.172-2.126-1.308.016-.78-.751-.776-.818-1.472-4.241-2.3-8.959-4.124-12.756-6.869-.119-.717.325.132.327-.326a2.081 2.081 0 01-1.145-3.108 41.361 41.361 0 0115.864-4.743c-.24-1.264-2.6-1.524-2.944-2.944-.556-2.328 1.8-2.959 3.434-3.925-.04-.778-1.255-.38-1.308-1.145.019-.69.59-.827.818-1.308.038-.707.022-1.771.818-2.126.714-.114.727.472 1.308.491 1.062-.5 2.2.065 3.271 0 1.376-.083 2.509-1.2 3.925-1.472 2.081-.405 4.472.123 6.705.327 3.392.309 6.975-.186 10.467.654 1.633-1.291 4.01-1.312 5.724-2.453.8-.535 1.149-1.316 2.126-1.472v.981c3.105.325 4.026-1.535 6.051-2.29.455.615-.73.72-.491 1.635 2.3 1.512 3.87-1.591 6.051-1.8-.045.991-1 1.071-1.308 1.8a2.07 2.07 0 01.491.981c2.069 0 3.336-.808 5.4-.818-.579 1-2.109 1.053-2.453 2.29.581 1.109 2.885.495 4.415.654-.065.783-.767.44-.163 1.145-.61.1-1.035-.418-1.472 0 .2 1.542 1.538 1.951 3.434 1.8.483.6-.522.81-.654 1.308.79 1.118 2.6 1.216 3.271 2.453 2.114.335 3.13-1.057 4.743-.491 1.044-.264 1.925-.692 2.944-.981.583.525-.652.715-.164 1.145 1.377-.095 2.306-.638 3.6-.818.14.522-.257.506-.326.818a33.593 33.593 0 013.925-.327c.3.794 1.263.919 2.454.818.143.525-.425.339-.491.654.778.063 1.18-.346 1.8 0 .32.306.05.6 0 .981.516.08.578-.294 1.145-.164a4.9 4.9 0 011.635.818c4.9.042 8.8 1.9 12.1 3.761.65.366 1.319 1.013 1.963 1.308a19.583 19.583 0 002.453.491c1 .275 1.984.769 2.944.981 2.362.523 4.884.889 7.2 1.308 3.008.547 6.287.595 8.995 1.963a5.169 5.169 0 01-3.434 1.308c-2.3 1.679-6.031 1.928-9.158 2.78.048.605.72.588.491 1.472.114.677-.574-.171-.818.326.133 1.089 1.981 1.074 1.472 2.29a3.587 3.587 0 011.635 1.472.66.66 0 01-.981.491c.45.75 1.468.931 1.963 1.635-.109.157-1.022-.074-1.308.328zm-98.289-1.964c-.166-.07-.856-.352-.164-.327.009.172.21.129.164-.163a38.83 38.83 0 01-6.869-1.8c.093.889.973.989.981 1.963 4.242 1.6 8.848 2.181 13.738 2.78 2.491.305 5.119.923 8.014.654-5.557-1.12-11.41-.932-16.354-2.617 2.085.1 4.19 1.042 6.215.654-1.871-.418-3.868-.711-5.725-1.144zM52.646 3.598c0-.27.454-.091.491-.327-.335-.14-.899.258-.491.328zm4.579.654c-.156-.3.49-.547 0-.654-.372.253-.309.341-.164.818-1.115.25-2.466 1.129-2.29 2.126 1.394-.95 3.038-1.65 4.416-2.617-.553-.067.435-.634-.327-.491-.284.535-.944.693-1.635.819zm-7.85-.491a8.991 8.991 0 00-1.963 2.126c.168-.019.33.706.491.164-.5-.253.709-.144.981-.164.369-.994 1.431-1.295 1.8-2.29-.629-.032-.935.893-1.309.165zm3.6.164c.233.711-.559.752-.164 1.145 1.126-.125 1.253-.526 1.472-1.308-.523-.501-.686.277-1.31.164zm6.542 0l1.472.164c.309-.072.985.222.818-.327-.294.09-.682.084-.821.327zm-8.831-.164c-.139-.139-.467.119-.491.164 1.315.456 2.073.114 1.96.001zm-4.909 2.127h.818c.138-.735.844-.9.981-1.635a2.507 2.507 0 00-1.799 1.635zm3.761.164c.522.148 1.789-1.119 1.635-1.635-.386.702-1.479.701-1.635 1.635zm9.976 0c.955-.213 1.915-.061 2.453-.654.123-.136-.179-.431-.164-.491.052-.2.949-.626.164-.491-.729.631-1.989.738-2.453 1.636zm-5.56-.654c.371.029.953-.553.654-.654-.148.288-.602.27-.654.654zm9.649 0c.337.143.735-.425.327-.491-.039.234-.269.274-.327.491zm-39.25.818c.422.147.8-.924.164-.818.08.513-.564.432-.164.817zm6.542.327c.514.014 1.158-.683.818-.981-.175.43-.65.55-.819.98zm-4.416-.654v.327c.4.254.481-.555.164-.491-.01.1-.025.193-.164.163zm25.84.818c.755.046.881-.536 1.145-.981a1.848 1.848 0 00-1.146.98zM19.938 8.832c.754-.266-.241.037-.654 0-.025-.218.665-.494.164-.654-.21.082-.779.613-.818.327.108-.426.981-.927 0-.654.087-.308.861-.757.491-.981a2.778 2.778 0 01-1.308.818c.085-.45 1.264-.832.491-1.145-.79.856-2.788 2.164-.981 3.271.029-.534-.384-.787.327-.818.072.309-.222.986.327.818.075-.764-.316-1.045.164-1.472-.055.9.839.94.164 1.635.51.116.7-.914 1.145-.327-.865 2.3-4.725 1.6-5.4 4.089.372.721 1.22 1.83 1.963 1.635-.376-.284-1.242-.93-.981-1.308 1.043.7 2.363 2 4.089 1.472-.356-.482-1.151.422-1.308-.327 1.094-.417 2.877-.162 4.089-.818.193.243.142.73.654.654.31-.136-.495-.573.164-.818.238.089.846-.191.818.164.143.525-.425.339-.491.654a17.7 17.7 0 012.944.818c-.853 0-.3.465-.818.654-.959.237-1.139-.948-1.963-.327.677 2.217 3.818.625 5.56.818 1.166-.688 3.49-.217 4.089-1.472-.953-.08-1.312.432-2.126.491a.919.919 0 00-.164-.654c.1-.227.63-.025.654-.327-1.274-.141-2.448.032-4.252 0 .176.478 1.459-.151 1.635.327-1.034-.271-1.011.516-1.8.491.311-.577-2.01-.6-2.453-1.145.8-.082 1.588.694 2.126.327-.39-.264-1.185-.123-1.308-.654a15.841 15.841 0 005.724.164c-1.842-.339-3.265-.189-5.07-.654 4.676-.346 11.158 1.139 13.41-2.944-.726-.167-1.19.548-1.635.818a7.748 7.748 0 01-1.963.981 26.005 26.005 0 01-8.014.491c-.121-.261-.8.037-.654-.491 4.981.307 10.565-.055 12.593-3.6-1.96-.191-3.439 1.888-5.56 2.617a12.266 12.266 0 01-5.07.818 1.462 1.462 0 01-1.145-.654 11.22 11.22 0 002.944.164c2.019-.209 4.632-1.18 5.56-2.29-2.679.647-4.827 1.824-8.341 1.635-.014-.446.273-.329 0-.654-.877.456-2.042-.39-2.453.491.78.149 1.186-.072 1.635.164a20.274 20.274 0 00-10.957 1.8c-.306-.32-.6-.05-.981 0 .626-1.064 2.358-1.021 3.6-1.472-.324-.6 1.292-.666 1.635-1.145a5.589 5.589 0 00-1.635.491c.143-.95 1.869-1.18 2.617-.981-.1.332-.765.108-.818.491.339.1 1.075-.2 1.145.164-.3.247-.917.174-1.145.491 2.311-.425 4.981-1.07 7.032-.818 2.946.362 3.954-1.595 5.888-2.453.421-.187.855.029 1.145-.491-.406-.213-.679.48-.818 0 .21-.281.779-.2.818-.654-.579.287-.842-.549-.981-.164.248.635-.8 1.374-1.635 1.472.185-.4 1.051-.666.491-1.308.384-.215.807-.393.818-.981-.983-.02-1.077 1.065-1.635 1.635a6.613 6.613 0 01-5.4 1.8 7.987 7.987 0 011.963-.491c-.412-.705.309-.2.327-.818-1.32.67-2.362-.287-3.271 0-.313-.8.543-.437.491-.981-2.3.223-3.851 2.317-5.888 1.795zm1.8 6.049v.327c.025.3.554.1.654.327.075-.511-.413-.454-.654-.654zm42.03-8.668c.257-.016.567.022.491-.327h-.327c-.001.166-.135.195-.166.329zm-2.944.491c.433-.276 1.551.134 1.635-.491-.497.215-1.456-.032-1.636.493zm-36.47-.164c-.168.549.508.255.818.327.113-.564-.575-.586-.819-.325zm1.145.327h.327v-.325h-.327zm36.306 1.145c.55-.1 1.192-.116 1.472-.491-.593-.576-1.039.06-1.473.493zm1.635-.654v.654c.522-.1.506.307.818 0 .2-.529-.529-.125-.327-.654.091 0 .185-.132 0-.164-.028.193-.259.18-.493.166zm-42.521.327c.463-.028 1.122.141 1.145-.327-.475.356-.942-.296-1.146.329zm8.668 0c.252-.494-.846-.43-.818-.164a1.064 1.064 0 01.817.166zm12.429.654a.349.349 0 100-.654c.014.449-.278.331-.001.656zm-12.1-.164a.451.451 0 00.491-.327.451.451 0 00-.494.333zm34.344.654c-.2.063-1.125-.4-.818.491.778-.241 2.009-.773 2.944-.327-.037-.309.185-.36.163-.654a5.385 5.385 0 00-2.292.493zm-30.746 0c.02.728-.858.559-1.145.981-1.389.138-2.166.887-3.271 1.308a16.231 16.231 0 006.051-1.8c.382-.18 1.088 0 1.145-.654-.925-.403-1.798.535-2.783.168zm8.668 1.472a3.586 3.586 0 010-1.308c-.386-.05-.3-.568-.818-.491.357.801.161 1.6.815 1.802zm1.145-.818c.389.369.78-.181 1.145-.327-.466.031-1.125-.137-1.148.33zm1.308.327h.491c.021-.294-.162-.383-.491-.327zm6.378.491c.455.262.452-.707.164-.654-.055.223-.239.315-.167.657zm-8.675.33c.316-.228.892-.2.818-.818h-.491c.241.618-.445.314-.327.818zm3.6-.491h.327v-.327h-.327zm-3.761 1.472c.191.027.178.258.164.491.382-.05.675-.32.981 0 .128-.908.951-1.12 1.145-1.963h-.489c-.421.67-1.24.941-1.799 1.472zm2.29-.818c-.022.624.161 1.2-.491.818.248 1.04 2.114.251 2.126-.491-.579-.089-.4.579-.981.491-.214-.868.584-.724.654-1.308-.824-.41-.137.841-1.307.49zm4.089 0a.349.349 0 100-.654zm-2.29 0c.413.674-.194.613-.327 1.145.649-.119 1.337-1.055.981-1.635a2.8 2.8 0 01-.653.49zm7.523-.491h-.651a.349.349 0 10.652.001zm-37.615.818c.406.065 1.182-.827.818-.491-.38.051-.703.169-.816.492zm32.545.491a1.939 1.939 0 001.635-1.145c-.755.17-1.507.345-1.634 1.145zm5.07-.654c.054.945 1.436.087 1.472-.491-1.029-.071-.668.614-1.471.491zm3.6-.327c-.209-.009-.227-.21-.491-.164-.255.403.555.481.49.164zm-6.378.654h.491v-.491h-.491zm4.252 0c-.046.427.059.7.491.654.009-.209.21-.227.164-.491-.223-.05-.314-.232-.656-.167zm1.308.164a.92.92 0 00-.164-.654c-.431-.049-.537.227-.491.654zm-3.107.654c-.373.371.236.594.654.654v-.981c-1.194.044-1.357-.841-2.453-.491a1.016 1.016 0 000 .818c.574.029.538-.553.981-.654.184.306.192.787.817.654zm3.925-.654c.29-.037.819.165.654-.327h-.655zm-37.451.163a1.165 1.165 0 00.491-.327c-.22-.025-.903.257-.491.327zm26.657.491h1.143a1.065 1.065 0 00-.164-.818.884.884 0 00-.98.818zm2.29.327a1.061 1.061 0 00.818.164c.138-.929 1.006-.164.981-1.308h-.818c.434.749-.783.563-.982 1.144zm10.467-.654c.075-.511-.35-.523-.818-.491-.076.511.349.523.817.491zm-2.453.654a1.064 1.064 0 00.164-.818c-.603-.157-.652.804-.165.818zm-8.668-.164c.477.241.477-.731 0-.491zm10.957.327a1.065 1.065 0 00.818-.164v-.654q-.875-.055-.819.818zm-9.322.327c.311.07.411.352.818.327.042-.611.812-.5.981-.981-.127-.036-.19-.137-.164-.327h-.654c.063.718-.783.526-.982.982zm17.172-.654h.491c.021-.294-.162-.383-.491-.327zm-11.611.164a1.067 1.067 0 00-.818-.164c-.289.732.864.588.817.164zm-3.107.491h.491v-.491h-.493zm2.944.491c.525-.02.73-.36 1.145-.491-.5.122-.314-.449-.818-.327-.072.311-.353.41-.329.817zm-2.617 0c.495.434.687.427.491 1.308a.767.767 0 01.491.164c.226-.211.161-.71.164-1.145-1.052.214.183-.911-.654-.981-.051.333-.445.323-.493.653zm5.4-.491c-.234.51 1.216.51.981 0-.073-.364-.872-.129-.99 0zm3.925.491v-.491c-.462.135-.424-.23-.818-.164.054.453.484.963.813.654zm-10.798-.331c-.072 1.163.874 1.307 1.472 1.8-.042.534.194.787.654.818.241-.616-.664-.933-.654-1.8-.309-.037-.361.185-.654.164-.142-.4.042-1.132-.491-1.145-.036.13-.137.193-.327.163zm8.5.654c.533.042.787-.194.818-.654-.221-.051-.312-.232-.654-.164a1.065 1.065 0 00-.16.821zm-5.07.164c-.307.311-.018.411 0 .818.54-.006.625-.465.654-.981-.929.329-.418-.782-1.145-.654-.486.491.239.599.495.82zm2.78.164c.532-.013.881-.209.981-.654-.866.378-.925-.174-1.635-.327-.092.644.902.199.658.983zm5.4-.491h.327c.009-.209.21-.227.164-.491h-.327c-.01.212-.21.229-.163.494zm1.145-.327c-.112.549.275.6.654.654 0-.325.446-.208.327-.654a1.145 1.145 0 00-.98.003zm-17.008.164c-.291.1-.679-.479-.818 0 .1.096.776.385.819.002zm21.1 1.145a1.06 1.06 0 00-.818-1.308c.291.761.202 1.08.815 1.31zm-7.523-.818c.245-.028.6.059.654-.164-.22-.209-.614-.213-.656.166zm10.3 0c.257-.015.567.022.491-.327h-.326c0 .164-.129.194-.164.327zm-14.882.818c.525.035.4-.583.654-.818-.532-.441-.951.37-.654.82zm12.593-.654c.257-.016.567.022.491-.327h-.327c0 .166-.135.197-.164.329zm-20.933 2.128c-.648-.442-1.59-.59-2.126-1.145 2.006.608 4.05 2.078 6.051 1.308-.279-.067.034-.211 0-.491-2.168-.994-3.344-2.073-6.705-1.963-.255.582.555.1.491.491h-.654c-.157.594.735.138.654.654-.32.082-1.043-.356-.654 0 .805.451 2.098 1.279 2.943 1.146zm-.981.981c-1.133-.558-2.422-1.828-3.761-1.635.435.383 1.192.443 1.472.981-.461.014-.935-.8-1.308-.327a10 10 0 012.126 2.29c-1.03-.333-1.13-1.6-2.126-1.963.039.669.555.862.654 1.472-.658.113-.4-.688-.981-.654a24.364 24.364 0 001.467 2.616c-1.466-.769-1.325-3.145-2.944-3.761.114.867.786 1.176.981 1.963-.815-.153-1.235-1.434-1.145-1.963-.5-.118-.6.167-.981.164a7.428 7.428 0 01-1.308-1.963c-1.006-.243-1.146.38-1.472.818-.037-.29.165-.819-.327-.654.033.47-.042.831-.327.981-.089-.238.191-.846-.164-.818-.073.472-.7.386-.818.818.281.065.419-.243.491 0-.1.605-.919.5-1.635.491-.213.405.365.794 0 .818a.448.448 0 00-.654 0c-.14.346.112 1.073-.818.981.009-.209.21-.227.164-.491-1.2.431-2.164 1.22-3.6 1.308-1.608.1-3.21-.906-4.579-.164 1.167-.022 1.46.829 1.8 1.635 1.6.429 2.665 1.134 4.579.654-.065.392.745-.091.491.491-1.6.475-3.163-.409-4.252-.327 2.189.972 3.93 2.394 6.051 3.434.07.311.352.412.327.818 2.542.838 4.281 2.48 7.2 2.944a2.938 2.938 0 002.78.818c-.463-.465-1.343-.51-1.635-1.145 1.485-.957 3.061 1.025 4.906 1.635a21.317 21.317 0 005.56.654c1.862.09 3.89.382 5.724.326.608-.017 1.216-.279 1.8-.326 1.3-.106 2.561.151 3.761 0a34.847 34.847 0 016.051-.491c.344-.638 1.474-.489 2.126-.818a.769.769 0 01-.164.491c2.562-.53 4.123-1.392 7.2-1.145a.451.451 0 01.326-.491c1.322.155 2.843-.848 4.089-1.309.018.2.049.387.327.327 3.575-1.011 6.927-3.094 11.611-2.453a1.161 1.161 0 01.326-.491c1.4.5 4.552-.713 4.089.491 1.852.383 2.719 1.751 3.762 2.943-.01.209-.21.227-.164.491a36.712 36.712 0 004.089 3.434 10.666 10.666 0 00-1.635-3.272.453.453 0 01-.326.491c.095-.531-.112-.761-.164-1.145-.522-.1-.506.307-.818 0 .284-.3.211-1.172-.164-1.308-.282.1.013.776-.326.818a2.725 2.725 0 01.491-2.78c-1.185-.14-1.18 1.294-.981 1.635-.979-.245.143-1.742-.981-1.963-.3.409-.071 1.346-.818 1.308.512-.668-.081-1.472.654-1.963-1.006-.3-.638.779-1.308.818.258-.64-.425-.338-.491-.653.264-.5 1.21-1.182.818-1.8a3.809 3.809 0 00-1.145 1.963c-.609-.345.016-.966-.163-1.8-.689-.034-.249 1.059-.654 1.308-.48-.066-.131-.959-.491-1.145-.546 0-.026 1.064-.654.981-.118-.5.168-.6.164-.981-.906-.213-.237-.985-.981-1.308-.037-.309.185-.361.163-.654-.621.065-.62.752-1.308.327.189.682-.014.807-.164 1.472.836.181.609-.7.981-.981.184.035.255.182.327.327-.651 1.76-.707.806-1.963.981-.015-.257.022-.567-.326-.491-.15.286-.057.816-.327.981-.31-.29-.507-.692-.817-.981-.325.112.1.974-.491.818-.286-.874.8-.912.327-1.472-.755-.047-.226 1.192-.981 1.145-.064-.5.43-.833-.163-.981-.374.335-.239 1.179-.981 1.145.362-1.056 1.152-1.682 1.145-3.107a1.374 1.374 0 00-.818 1.963c-1.353-.209-.419 1.871-1.635 1.8.381-.219.253-.947.491-1.308-.636-.236-.567-1.178-1.308-1.308-.037.127 0 .322-.164.327-.172.609.552.32.654.654-.127.364-.095.887-.491.981.1-.531-.111-.761-.164-1.145-1.279.332.19 1.549-.654 1.963-.215-.6-.1-1.539-.818-1.635a3.469 3.469 0 01-.817 1.472c-.242-.358-.32-.88-.654-1.145-.534.637-.279 1.192-.654 1.8.127-.75-.732-.9-.327-1.8-.837-.144-.667-1.295-1.308-1.635-.966.645.939 1.836-.164 2.617-.373-.555.461-.946-.164-1.472-.446-.119-.328.325-.654.327.07.861 1.062 1.66.654 2.453h-.326c.143-.639.194-1.428-.491-1.635-.968.4.782 1.784-.491 1.963a3.07 3.07 0 00-.326-1.8c-.529-.2-.125.529-.654.327a6.438 6.438 0 011.308-2.78c-.258-.014-.128-.417-.491-.327-.307.312.1.3 0 .818-.523-.14-.506.257-.818.327.11-.618.2-.88-.491-.981-.452.039-.059.923-.654.818-.384-.052-.1-.775-.655-.654-.472.521.057 1.031.491 1.145-.422.123.119 1.21-.491 1.145.1-.531-.111-.76-.163-1.145-1.532.5.829 1.6.163 2.617-.569-.3-.313-1.431-.981-1.635-.628 1.124.633 2.521 0 3.107a5.466 5.466 0 00-1.145-2.78c-1.029.769.649 2.326-.327 2.944.388-.508-.234-1.1-.491-1.472.431-.284.058-1.136-.327-1.145-.036.127-.137.19-.326.164a4.152 4.152 0 01-.491 2.126c-.482-.355-.314-1-.491-1.308-.867-.049-.114 1.52-.981 1.471.117-.755.38-1.364.491-2.126a2.308 2.308 0 01-.818-1.308c.726.331.658-.959.981-.491-.4.39-.724 1.19.163 1.308.022-.577.469-.731.491-1.308-.472-.291-.474-1.052-1.145-1.145-.713 1.132-1.877 2.638-.654 3.925-.694.07.172 1.7-.817 1.472a2.556 2.556 0 00-.164-2.453c.029.357-.134.52-.491.491a1.257 1.257 0 00.163-1.635c-1.071.53.212-1-.818-.981-.337.317-.312 1-.491 1.472.217.4.494-.3.654.164-.967.538 1.53 1.826.327 2.617-.276-.561-.6-.71-.327-1.471-.72-.217-.6-.262-.654-1.145-.817.055-.328 1.416-.981 1.635-.224-1.379 1.27-2.282.163-3.107-.28.265-.063 1.027-.654.981.179-.694.358-1.386.981-1.635-.042.533.194.787.654.818a1.587 1.587 0 000-1.308c-1.052.57.264-.9-.818-.818-.36 1.057-1.1 1.736-1.472 2.78.264.612 1.073 1.538.654 2.29a13.89 13.89 0 01-.981-2.29c.234-.856 1.056-1.124.818-2.453-.874.206-.992.919-.818 1.8-.718-.172-.537.553-1.145.491.185-.595.656-1.156.327-1.8-.625-.134-.193.788-.818.654.108-.655.429-1.1.491-1.8-.9-.082-.749.886-1.145 1.308.285.766 1.777 2.335.654 2.944.158-.71-.371-1.255-.491-2.126-.621.087-.721.7-.818 1.308.23.324.782 1.169.327 1.635a3.988 3.988 0 00-.818-1.635c-.227.1-.025.63-.327.654-.158-.88.73-1.357.164-2.126-.919.329-.8 1.737-.818 2.126-.1-.279-.494-.269-.654-.491a.61.61 0 000-.818c1-.2 1.315-2.026.327-2.453.049.266-.221.441-.327.164.147-.517.493-.718.164-1.308-.514-.187-.4.257-.654.327.266-.536-.037-.625 0-1.308-.576.133-.82.6-.818 1.308.246.388.689.164.818.327-.313.7.534 1.492.491 2.453-.572-.506-.514.562-.818.164.822-.82-.347-1.751-.491-2.617-.621.087-.78.638-.981 1.145a.446.446 0 01.327.491c.572.23.515-.991.818-.491a2.6 2.6 0 00-.327 1.8c-.386-.4-.3.244-.818.164.274-.271.13-.96.164-1.472-.535.119-.721.587-.981.981-.175.611.406.466.327.981-.349-.006-.891.615-.981.327-.081-.517.811-.061.654-.654-.636-.237-.2-1.548-.818-1.8a2.072 2.072 0 00-.491 2.126c-.194-.243-.617-.254-.818-.491.324-.6-.288-.906-.491-.981a1.346 1.346 0 000-1.145.893.893 0 00-.818.818c.014.485.836 1 .327 1.472a.934.934 0 01-.491-.981c-1.267.172-.457 2.051-1.308 2.29-.069-.728.491-1.59-.327-1.963-.667.478-.353 1.937-1.308 2.126a1.123 1.123 0 00-.491-1.8c.519-.576.095-.758 0-1.472-.529-.2-.125.529-.654.327.208-.52.645-1.573-.164-1.8.185.577-.292.59-.327.981-.093 1.057 1.056 1.742.491 2.78-.325-.112-.374-.5-.654-.654.325-.309.279-.573.164-.981-.4-.555-.724.786-.981.327.1-.552.581-.728.654-1.308-.663-.426-.714-.734-.818-1.472-.686.023-.668.75-.654 1.472.281.065.419-.243.491 0-.42 1.312.749 1.694.327 3.271-.394-.067-.355.3-.818.164.422-.287.277-1.14.491-1.635-.3-.442-.553-.029-.818-.327.38-.457.556-1.331-.327-1.472-.069.313-.059.7-.491.654a11.388 11.388 0 00-.818-1.145c-.123-.559.664-.208.491-.818-.245-.028-.6.059-.654-.164.405.024.794.03.818-.327a4.1 4.1 0 01-.981-.654c.5 0 1.332.511 1.308-.327-.923.051-1.147-.6-2.126-.491-.065.281.243.419 0 .491-1.1-.32-2.219-1.485-3.271-1.308.575.681 1.74.77 2.126 1.637zm36.961 2.944c-.465.57-1.7 1.506-.654 1.963.371-.638.886-1.888 1.472-2.78-.431-.515-.451.362-.819.817zm-7.686.818c.576-.023.466-.734.654-1.145a.694.694 0 00-.655 1.145zm-9.813.327c-.356-.866.213-1.154.491-1.8-.288-.04-.373-.281-.326-.654-1.102.15-.984 2.078-.166 2.454zm-5.724-2.126a4.093 4.093 0 00.164-1.635c-.591.118-.587.83-.654 1.472-.724.148-1.027.717-1.145 1.472.322-.049.324.221.491.327.036-.127.137-.19.327-.164.222-.544-.11-1.635.816-1.472zm-5.56 2.78c.18-.583.7-.831.818-1.472-.42-.016-.234-.638-.654-.654-.275.411-.925 1.714-.165 2.126zm-2.127-5.071c-.811-.157-.818.491-.981.981.406.213.794-.365.818 0-.239.142-.519.245-.491.654.193.243.142.73.654.654a2.427 2.427 0 000-2.289zm-1.635.491c-.666-.012-.7.6-.654 1.308a.866.866 0 00.653-1.307zm-.818 1.145c-1-.174-.975 1.1-.327 1.308.238-.309.783-.803.326-1.308zm12.429-4.089c.03-.356-.134-.521-.491-.491-.029.358.134.521.491.492zm2.126.164c.455-.262.452.706.164.654-.369-.558-1.411-.443-1.8-.981-.035 1.017 1.5.46 1.308 1.635.405.213.794-.365.818 0a1.016 1.016 0 000 .818c.5-.2.664-.754.981-1.145-.288-.094-.961.2-.981-.164.03-.242.4-.15.654-.164a15.165 15.165 0 00-.818-1.308c-.001.326-.446.209-.326.655zm5.233-.164h.327v-.327h-.327zm-8.995.818c.572.027.514-.576.818-.818q-.992-.173-.818.819zm0-.981c-.309.072-.985-.222-.818.327.309-.072.986.223.818-.327zm-9.813.981a.884.884 0 00-.981-.818c.051.553.546.653.982.819zm18.644-.654c-.031-.242-.4-.15-.654-.164-.347.603.832.739.654.164zm.654.491c.479-.012.922-.059.817-.654-.532-.042-.79.194-.818.654zm-13.574.654c.333-.157.354-.628.327-1.145-.741-.106-1.137 1.068-.326 1.145zm2.453-.327c.605.114.722-.259.654-.818h-.491a1.065 1.065 0 00-.162.818zm14.065-.654c-.1 1 1.135-.033.327-.164-.034.128-.136.189-.327.164zm-10.3.491c.089-.431-.949-.557-.981-.327.288.145.413.461.978.327zm-7.85.818c.6.057.495-.6.654-.981-.209-.009-.227-.21-.491-.164-.25.23-.519.794-.166 1.144zm1.963.818a.693.693 0 00.654-1.145c.605.114.723-.259.654-.818h-.498c-.089.774-1.2 1.233-.813 1.961zm9.158-1.472c.394-.067.355.3.817.164a.77.77 0 01.161-.494.6.6 0 00-.981.327zm1.8-.327c-.028.41.251.512.491.654.071-.311.353-.411.327-.818a1.066 1.066 0 00-.822.161zm-14.555.818c.613.6 1.134-.571.491-.818-.055.385-.573.304-.495.817zm8.014.327a.581.581 0 00.159-1.148c-.247.233-.517.8-.166 1.147zm10.793-.655c.325.272.208-.015.654 0a.349.349 0 10-.654 0zm1.635 0c.406.024.794.03.818-.327-.309.037-.36-.185-.654-.164a.759.759 0 01-.167.491zm-14.065-.164c-.032.469-.02.893.491.818.071-.364.376-.887-.164-.981-.039.127-.14.19-.33.163zm3.107 0v.491c.461.025.41-.463.654-.654-.312-.037-.364.184-.657.163zm6.378.327c-.209-.009-.226-.21-.491-.164.029.517.647.443 1.145.491a1.067 1.067 0 00.164-.818h-.491a.45.45 0 01-.33.491zm1.472 0h.491a.772.772 0 01.164-.491h-.654zm4.573-.327c.066.588.727.581.818 1.145-.119-.446.325-.329.327-.654-.773.078-.3-.2-.164-.491-.303-.32-.596-.05-.981 0zm-43.666 0c-.139-.139-.467.119-.491.164-.151.287.608-.051.495-.164zm45.955.327c.243.789-.751.34-.654.981.75-.324.865-.3 1.308-.818-.214-.051-.309-.232-.65-.163zm1.308-.327c-.309.072-.985-.222-.818.327.482.187.611.097.821-.327zm-59.856.654c.692.123.871.271.654.981.348.312 1.394.778 1.963.327-.525.035-.4-.583-.654-.818a1.1 1.1 0 01-1.304-.653 1.465 1.465 0 001.145-.327 2.926 2.926 0 00-1.8.49zm22.569.164a.77.77 0 01.164-.491c-.209-.009-.227-.21-.491-.164-.042.373.043.615.331.655zm14.065 3.6c.4-.095.364-.617.491-.981-.5.122-.314-.449-.818-.327-.156.42-.343 1.292.33 1.306zm-.164-2.453c.549-.05.653-.547.818-.981.067-.394-.3-.355-.164-.818-.792.226-.817.79-.654 1.635-.245 0-.668.608-.818.164.322-.474.5-1.5-.491-1.472-.2.486-.065 1.307-.164 1.472-.236-.362-.4.206-.491-.164v-.82c-.193-.174-1.035-.074-1.145.327a16.255 16.255 0 011.472 2.29c-.424.33-.072 1.26.491 1.145-.042-.587.491-.6.491-1.145-.134-.419-1.013-.938-.491-1.472a1.515 1.515 0 01.491 1.145c.636-.023.674-.639.659-1.308zm2.944-.981c.614.124.553-.428.818-.654-.473-.521-1.317.187-.814.651zm8.831-.491c-.531.095-.76-.112-1.145-.164-.031 1.042.978.836 1.149.162zm5.56.654c.46-.031.7-.284.654-.818-.6-.097-1 .442-.65.816zm-51.025-.491l41.7 1.145a.848.848 0 00.491-1.308c-.792.037-.623.678-.484 1.306zm7.686-.818c.469.032.893.02.818-.491 41.197 1.066 41.04 1.347 40.89 1.634zm3.271.327c.487.195.7-.689.327-.818 41.64 1.524 40.985 1.581 41.381 1.961zm4.579.654c.564-.307.417-.307.981 0 .13-.633-.379-.819-.654-1.472-.41-.028-.512.251-.654.491 1.049-.2.545.664.327.981zm4.416-1.308c-.25.5 1.068.5.818 0 41.666.76 40.985 1.049 40.89 1.143zm20.12 2.288c.562-.037.712-.487.818-.981-.209-.009-.226-.21-.491-.164a1.238 1.238 0 00-.327 1.145zm6.542-.327c.469.032.893.02.818-.491a3.684 3.684 0 00-1.635-.327c-.185.729 1.191-.099.817.817zm11.775-.164h.654v-.654q-.764-.113-.654.654zm-21.26 1.308a.72.72 0 01-.65-.326c-.094-.288.2-.961-.164-.981-.248.352-.711.489-.654 1.145a17.449 17.449 0 01.981 1.635c.3-1.173 1.319-1.625 1.308-3.107a.767.767 0 01-.491-.164c-.387.508-.214 1.421-.331 1.799zm26.984-1.472c.257-.016.567.022.491-.327h-.325c0 .165-.139.196-.166.328zm-25.513.818a.884.884 0 00.818-.981h-.654a1.39 1.39 0 00-.164.982zm10.14-.818a1.062 1.062 0 00-.818-.164c-.157.602.804.651.818.165zm6.705.818c.782.018 1.323-.2 1.472-.818-.221-.052-.312-.233-.654-.164-.062.541-.484.718-.818.983zm5.724-.654h.326v-.327h-.326zm5.233.164a.77.77 0 01.164-.491h-.654c-.028.357.136.521.49.49zm-23.223 2.617a2.2 2.2 0 00.327-1.963c.221.052.312.233.654.164-.1-.574.773-.538.326-.981-.707-.023-2.556 1.813-1.307 2.78zm1.963-1.963c.645.1.724-.366.818-.818-.209-.009-.226-.21-.491-.164-.143.292-.457.417-.327.982zm3.761-.654c.238-.089.845.191.818-.164-.511.083-.668-.385-.818.163zm4.416.164h.491v-.491h-.331c-.007.209-.211.226-.164.491zm8.831 0c.29.412.981-.41.327-.491-.041.233-.272.276-.327.491zm-3.107-.165c-.165.492.365.29.654.327v-.491c-.307-.036-.361.185-.654.164zm-.818.981a1.145 1.145 0 00.981 0c-.26.244-.24.932.326.818.418-.209-.152-.8.164-.818h.654c.019.417.031.842.491.818-.276-.57-.06-.572.327-.818-.673.172-.86-.553-.164-.491.028-.41-.251-.512-.491-.654-.143 1.365-1.874.193-2.29 1.145zm4.252 0c.529-.2.125.529.654.327.069-.64.556-.861.654-1.472-.483.334-1.165.474-1.306 1.146zm7.523-.491c.046-.373-.04-.615-.327-.654.034.291-.163.821.327.656zm-42.03 0c.417-.019.842-.031.818-.491-.382.057-.709.17-.818.493zm1.145 0h.327c.009-.209.21-.226.164-.491h-.491zm13.083.654c.549-.05.652-.547.818-.981-.209-.009-.227-.21-.491-.164-.137.356-.423.559-.327 1.147zm4.906-.327c.68.6 1.369-.692.491-.818-.048.388-.566.301-.491.82zm2.944 0a.893.893 0 00.818-.818h-.981c-.137.464.231.426.163.82zm5.07-.491c.23-.522-.979-.413-.981-.164.333.391.642-.222.981.166zm9.322 0a.451.451 0 00.491-.327.45.45 0 00-.491.329zm.818.164c.373.046.615-.04.654-.327-.246-.256-.733-.18-.655.329zm-67.216.491a1.589 1.589 0 00-2.29-.491c.311.07.411.352.818.327.216 0 .15-.286.327-.327.089.359 1.021.71 1.145.492zm36.637.819c.065-.425.488-.493.491-.981a1.474 1.474 0 00-.654-.654 1.1 1.1 0 00.163 1.635zm13.9-1.472a.772.772 0 00.164.491c.431.05.537-.226.491-.654a.914.914 0 00-.655.163zm2.45 1.472c.222-.541.094-1.432.818-1.472-.818-.643-1.888 1.172-.818 1.472zm14.882-.491c.221.052.312.233.654.164 0-.385.281-.482.164-.981.164 0 .194.132.326.164-.136-1.046-1.227-.014-1.145.654zm2.29-.491c.311.07.3.467.817.327 0-.433.091-.963-.326-.981.143.525-.423.336-.491.655zm-28.947 1.309c.651-.01.887-1.286.491-1.8a1.406 1.406 0 00-.491 1.8zm6.378-.491c.668-.04.566-.852.818-1.308-.62.087-.722.697-.818 1.308zm6.378-.327c.7.095.758-.441.981-.818-.463.136-.424-.23-.818-.164-.108.345-.435.728-.162.982zm9.322.164c.6.33.858-.227.981-.818-.311-.07-.3-.467-.818-.327-.055.384-.259.614-.164 1.145zM67.528 30.256c-1.873.071-3.907-.02-5.724.164-.991.1-1.849.583-2.78.654-1.177.09-2.318-.309-3.6-.326-1.329-.019-2.679.455-4.416.326-3.836-.282-8.577-1.6-12.266-2.126-1.458-.209-2.89-.172-4.252-.491-5.5-1.283-12.3-2.3-15.373-6.051-.1-.61.418-1.034 0-1.472-1.921-.161-3.387 1.269-4.743.654-.576.677-1.94.568-1.963 1.8.3 1.064 2.305.42 2.453 1.635-1.6-.2-2.983-.615-3.6-1.8 2.247-2.466 5.7-2.855 9.485-3.6.284.174 1.136.494 1.145 0-1.672-.754-3.684-1.078-5.07-2.453-1.557.181-3.08.8-4.743.981a10.1 10.1 0 00-1.308 0c-.715.171-1.407.771-2.126.981-1.384.41-3.009.597-4.409 1.149-1.539.607-3.377 1.37-3.761 2.944a9.415 9.415 0 004.251 2.125 51.242 51.242 0 0013.41 4.088 193.225 193.225 0 0020.77 2.453c1.314.1 2.609.437 3.925.491 4.124.17 7.85-.106 11.775 0 2.666.072 5.3.119 7.686 0a7.278 7.278 0 002.453-.491c-.245-.028-.6.059-.654-.164 1.446-.611 3.738-.5 5.56-.817 1.124-.194 2.534-.455 2.944-.981-1.54-.07-3.284.258-5.07.326zm9.485-12.92c-.784-.048-1.821-.393-1.8.491.513.081.432-.564.817-.164-.092.341-.467.528-.163.818.649.159.067-.914.654-.818.923.689 1.254-.536 2.126.164.179-.797-1.095-.458-1.634-.491zm16.518 1.308c.661-.211.845-.9 1.308-1.308-.1-.01-.194-.025-.164-.164h-.326c.02.745-1.363.727-.818 1.472zm-65.093-1.308c-.238.089-.846-.191-.818.164.241-.09.849.191.818-.164zm38.432 1.472c.027-.463.3-.681.326-1.145-.325 0-.208-.446-.654-.327-.476.5-.113 1.066.327 1.472zm12.268-.981c-.431-.05-.422.341-.491.654.513.645 1.051-.141.491-.654zm.818-.491c-.38.057-.767.106-.654.654q.767.114.655-.654zm7.359.981c.071-.364.376-.887-.164-.981-.182.314-.625 1.007.165.981zm1.963-.164c.516.025.318-.663.654-.818-.605-.113-.721.26-.653.819zm2.29-.327c.872-.58 1.062.264 1.8 0 .156-.635-1.711-.805-1.799.001zm-20.279.818c.926.149 1.06-1.193.164-1.145-.239.41-.395.643-.164 1.145zm23.387.491c1.073.037.986-1.086 1.472-1.635-.763.276-.988 1.081-1.472 1.635zm-24.695 0c.595-.169.731-.8.818-1.472h-.654c-.334.564-.219.725-.164 1.472zm16.027-.654c.341-.326.005-.7-.327-.818-.259.244-.243.932.327.818zm8.668.164c.067-.276.771-.735.327-.981-.055.291-.865.64-.327.98zm-26.33.654c.091-.474.255.251.491.164.108-.492.628-.571.491-1.308-.257-.07-.14-.514-.654-.327.169.668-.887.953-.328 1.471zm11.775-.654c.664.1.52-.673.164-.818-.147.289-.519.477-.164.817zm11.284 1.963a.8.8 0 000-.981c.794.031.392-1.134 1.308-.981.024-.405.031-.794-.327-.818-.218.891-2.255 1.953-.981 2.779zm-1.635-1.963q.769.113.654-.654c-.511-.077-.464.411-.654.653zm.981.981c-.067-.884.784-.852.818-1.635-.757-.042-1.902 1.376-.818 1.635zm-33.526 0c.1-.443.683-.407.654-.981-.149-.286-.3-.568-.818-.491-.097.591-.27 1.091.164 1.472zm16.191-.491c.091-.4.633-.349.491-.981h-.491c.047.287-.464.816-.001.981zm2.122.654a1.394 1.394 0 00.164-.981c-.529-.2-.125.529-.654.327-.135-.463.23-.424.164-.818-.221-.052-.313-.233-.654-.164a1.4 1.4 0 00.98 1.636zm2.126-1.145h.491v-.491h-.491zm11.448.327c-.037-.309.185-.36.164-.654-.209-.009-.226-.21-.491-.164-.256.246-.235.933.33.819zm8.831.327c.6-.1.762-.656.981-1.145a1.443 1.443 0 00-.977 1.146zm.818 1.145c-.258.243-.183.73.327.654.142-.888-.649-1.022-.164-1.8-1.083-.1-.5.885-.164 1.145zm-22.238-1.308c.6.157.65-.8.164-.818-.144.289-.519.478-.164.818zm6.869.164c.035-.183.181-.255.326-.327.028-.41-.251-.512-.491-.654-.382.308-.313.757.164.981zm.818-.491h.328c.009-.209.21-.227.164-.491h-.494v.491zm1.145 1.308c.1.388.219.761.654.818.147-.517.493-.718.164-1.308.97.284.925 1.582 1.635 2.126a10.822 10.822 0 01.33-1.471c-.558-.136-.774.033-.654-.981-.514-.272-.668.609-.818.164 0-.292.44-.951 0-1.145-.62.416-.736 1.336-1.308 1.8zm2.617-.981v-.818h-.491c-.321.316-.171 1.001.49.818zm9.649-.491h.326v-.327h-.326zm2.29.327c.392-.065-.091.745.491.491-.28-.623.484-1.021.163-1.145-.15.288-.6.27-.654.654zm-28.129.164c.339.478.4 1.235.981 1.472a2.025 2.025 0 00-.165-2.126h-.491a.718.718 0 01-.327.654zm10.794 0c-.057-.38-.106-.767-.654-.654-.071.711.127.908.652.654zm13.247.981c-.232-1.3.893-.279.654-1.635h-.654c.304.925-1.576 1.37-.002 1.635zm1.145-.654c.681.18.681-1.162 0-.981zm-16.354.164c.638.18.656-.974.164-.981a1.382 1.382 0 00-.167.981zm4.743.164c.119-.38.414-1.222-.327-1.145-.276.29-.242 1.198.324 1.144zm18.317-.818H104v-.327h-.326zm-79.972.327c.978-.114 2.179.953 2.617.327-.527-.312-2.281-1.392-2.62-.327zm37.288.981c.237-.681.5-1.395-.491-1.472-.115.6-.274 1.373.487 1.473zm17.99.654a1.044 1.044 0 00-.818.981c.326 0 .209.446.654.327.025-1.011.854-1.218.654-2.453-1.072.363-.346-1.071-1.145-.981-.555.892.767 1.141.651 2.126zm.327-1.308h.654c-.029-.533.384-.787-.327-.818.119.504-.57.2-.331.818zm14.882-.164c.051-.221.233-.312.164-.654-.563-.127-.645.625-.168.654zM74.07 20.607c-.014-.55.787-1.31 0-1.635-.546.246-.989 1.667 0 1.635zm2.126 2.944c.058-.814.45-1.294.327-2.29.691.2 1-1.254 1.145-2.126-.209-.009-.226-.21-.491-.164-.259 1.498-2.569 3.258-.981 4.58zm12.92-2.617c-.122-.5.449-.314.327-.818a3.5 3.5 0 00-1.145-.981c-.354.651.32 1.481.818 1.8zm.164-1.308h.327c.009-.209.21-.227.163-.491h-.492v.491zm4.416.981c-.044-.487.457-1-.164-1.145-.423.079-.56 1.285.163 1.145zm6.051-.327c-.037-.29.164-.819-.327-.654-.551.51.384.915.164 1.635.7-.223.507-1.346 1.472-1.308 0 .164.132.195.164.327-.025.358-.412.352-.818.327.029.517.114.976.654.981.188-.806.766-1.355.164-2.126-.974-.209-.756.771-1.472.818zm-43.339.654c.207-.283.553-.429.491-.981-.486-1.036-1.591.873-.492.981zm38.76.327a1.082 1.082 0 00-.817-1.635 4.908 4.908 0 00.818 1.635zm-17.663-.327c.242.085.412.242.654.327.326-.522.449-1.2-.491-1.145.07.394-.3.356-.164.818zm18.48 0c.5.25.5-1.068 0-.818zm-22.732.818c.1-.341.343-.529.491-.818-.326 0-.209-.446-.654-.327-.302.298-.09.917.162 1.145zm12.92.164c.037-.672.858-.559.817-1.308a.84.84 0 00-.818 1.308zM102.692 21.589c.525.142.512-.251.654-.491-.221-.052-.312-.233-.654-.164zm-74.254-.328c-.292.1-.679-.479-.818 0 .103.094.779.383.818 0zm49.063 1.308a2.529 2.529 0 00.327-1.308c-1.019-.056-.822.957-.324 1.309zm24.537-.488c.44.113.316-.338.491-.491-.354-.03-.518.134-.491.491zm.654.327l1.472.981c.887.365 1.917-1.081 1.145-.818.116.487-1.009.19-1.145.818zm1.963.654a1.049 1.049 0 001.145-.818c-.443.21-1.254.053-1.145.818zm3.271.327c-.134-.467-.264-.936-.981-.818 1.509 1.542 1.952 1.693 2.45 1.797zm2.944.164c.005-.551-.757-.333-.981-.654.02.523.368.72.981.654zm-7.2 0c.325.272.208-.014.654 0v.488c1.064-.028.962.252.814.491zm-11.448.164a1.388 1.388 0 00.981.163c-.014-.634-.722-.463-.981-.163zm1.308 0c.527.379 1.838-.059 2.943.326-1.377-.2-3.372.955-4.743.164-.341.858-1.388 1.01-1.635 1.963 2.614-.7 5.039-.937 7.2-2.29a4.6 4.6 0 00-3.761-.163zm9.322 0c.091.291.084.679.326.817-.027-.464.553-.319.327-.981a.914.914 0 00-.654.164zm1.635.981l.491.164c.477.241.477-.731 0-.491zm-13.9-.327c-.138-.138-.467.119-.491.164 1.806 1.429 2.57 1.091 2.454.978zm12.92.981c.525.142.512-.251.654-.491 1.438 1 1.452 1.394 1.309 1.634zm-8.341 0c-1.965.278-3.784 1.154-5.724 1.472-.517.084-1.058.074-1.635.164a51.721 51.721 0 01-6.051.817c-.738.018-1.417-.253-2.126-.163-.506.064-.782.48-1.308.654-.5.164-1.158.2-1.635.326-3.389.923-6.9.92-10.14 1.963 4.212-.538 8.566-.393 12.756-.981 1.614-.227 3.158-.649 4.743-.818 3.047-.325 6.181-.3 8.831-1.472 2.223-.339 4.486-.639 5.56-2.126-1.192.246-2.235.017-3.271.164zM5.709 26.981a109.19 109.19 0 0024.041 5.234c4.427.41 8.873.84 13.41 1.145 4.308.289 8.749.262 13.083.326 4.954.079 11.595-.805 16.355-1.305a96.892 96.892 0 0012.92-1.145c.74-.453.9.493 1.145-.326-.2-.76-.924-.191-1.308-.164-2.121.155-3.945.452-5.888.654-1.177.123-2.377-.08-3.6 0-1.274.083-2.645.381-3.926.491-5.081.435-10.435 1.18-15.209 1.145-7.3-.054-14.448-.045-21.424-.654-2.632-.23-5.259-.785-7.85-1.145s-5.216-.534-7.686-.981a139.453 139.453 0 01-14.065-3.6h-.325c.018.2.048.386.326.326zm88.64 6.378c-.241 1.044-1.519.147-1.635 1.145 1.859-.14 4.215.183 6.051-.326-.18-.033.629-.449.818-.654.3.518 1.5.132 1.963.491a2.228 2.228 0 00-1.308.326c2.036.17 4.29.014 6.705 0 .827 0 1.886.287 2.454-.326-.165-.429-1.334-.491-1.472 0-.894-.586-2.11.155-3.108-.327 1.035-.219 2.508 0 3.271-.491-1.081-.5-1.111-2.051-2.453-2.289.051-.221.233-.313.164-.655-.943-.91-3.51-.2-4.743-.817.991-.285 2.891.373 3.925 0-1.046-.644-1.3-2.084-2.453-2.617-.5 1.622-2.555 1.7-3.926 2.453a1.166 1.166 0 01.491.326c-1.2.123-2.2-.487-2.78.327 1.31.108 3.051-.216 4.089.164-.923.767-3.415-.035-4.58.491.386.377 1.616-.089 1.8.491-.887-.049-1.088.225-1.8 0 .324.493.27.557-.163.981-.322.048-.325-.221-.491-.327.042.532-.6.383-.817.654 2.3-.092 5.786.234 6.869-.326-.922-.237-2.2.438-2.454-.164.7.069 3.374-.06 1.472-.164-.138-.352-1.043.061-1.145-.326 1.835.536 4.926-.5 6.377.326-.517-.294-.034.449.327 0-.611.82-1.975.1-3.108.164-.477.025-.816.319-1.308.164.04.433.931.468 1.472.491a15.868 15.868 0 002.78-.164c.24-.065-.034-.344.164-.326a5.434 5.434 0 00.818.491c-.512.251-1.6-.071-1.8.491.721-.036 1.126-.256 1.635.164-1.111.064-2.735-.085-3.762 0-.412.035-.876.586-.981 0 .531-.45 2.1.133 2.617-.326h-.491a10.292 10.292 0 00-3.108 0c-.311-.01-.525-.288-.818-.327a9.94 9.94 0 00-1.635.164c-.561.038-1.438-.267-1.8.326.641-.318 1.494-.008 2.29 0 .44 0 1.348-.57 1.472.164-1.683-.259-3.816.792-5.888.162zm17.826-5.4c.385-.4-.322-.639-.654-.818.102.396.217.769.654.825zm-4.416.164c.373.045.615-.04.654-.327-.415-.078-.633-.272-.654.334zM88.788 30.42c-.391.1-1.186-.205-1.308.164a1.083 1.083 0 001.308-.164zm-23.223 1.635c.628-.462 2.424.243 2.78-.491-1.049.039-2.269-.089-2.78.491zm25.186 0h1.8c.053-.854-1.732-.52-1.8 0zm-.818 0c.452.215.561-.647.327-.164-.231-.01-.622.037-.322.164zm-.818.818h7.2a7.053 7.053 0 00-2.944 0 5.487 5.487 0 002.94 0zm-14.065.818a6.219 6.219 0 012.126-.163c7.081-.967 5.221-.364 5.071.162zm11.121-.327l-5.724.818c-.37-.435 1.64.121 1.8-.327-.514.187-.4-.257-.654-.326.119.475-1.036-.3-1.8 0 7.128.411 7.707.991 7.851.652zm-60.02.654c-.012-.836-1.033-.388-1.472-.491-.733-.17-1.387-.632-2.126-.491-.127.037-.323 0-.327.164a19.667 19.667 0 005.398 1.635zm55.768-.327a3.3 3.3 0 002.617-.164c-.7-.176-2.371-.241-2.617-.326 1.97.98 1.684 1.086 1.472 1.307zm4.416 0c.643-.262.057.707.491.654.225-.21.285-.978-.163-.981 0 .216-.286.149-.327.326zm1.472 0c.291-.418 1.526.108 1.8-.326h-.164c.014.229-.477.186-.164.326zm10.794-.327c-.288.094-.961-.2-.981.163.286-.093.961.2.981-.163zm-22.569.654c.542-.313.709-.055.981-.491-.339.1-1.075-.2-1.145.164 1.602.853 1.663.954 1.636 1.144zm-45.138 0a12.861 12.861 0 00-4.416 0 24.113 24.113 0 005.233.491c1.511.389.934.372.655.326zm19.134.327a15.459 15.459 0 012.29.164c1.162.251-.807-.422-.817.653zm51.679 1.145c2.3-.211 5.713-.361 8.34-.491-.118-1.027-2.189-.1-2.78-.654.674.128.84-.251 1.472-.163-.06-.974-1.363-.288-1.8-.164-.546-.232-1.61-.264-1.963.164.237.251 1.14-.042 1.635.326a40.438 40.438 0 01-4.089 0c-1.761-.083-3.911.527-5.723.327-.431-.048-.874-.319-1.308-.327-.912-.018-1.843.287-2.78.327-1.6.068-3.249-.247-4.579.326 1.023-.041 2.14.053 3.271 0 1.1-.052 2.467-.573 3.107.327a12.725 12.725 0 00-3.107.326c.244.028.6-.059.654.164a12.92 12.92 0 01-4.579 0c-.388.1-.762.219-.818.654 2.482.011 4.851-.178 7.359-.327.463-.027 1.682.681 1.8-.326-.874-.106-2.177.215-2.78-.164a18.83 18.83 0 003.108-.326c-.1-.227-.63-.025-.654-.327.914-.04.855-.095 1.8-.164-.04.234-.27.276-.326.491a17.433 17.433 0 013.6 0c.226-.164-.07-.27.327-.491 1.857.869 1.775 1.383 2.286 1.309zm-5.559-.818c-1.9.01-3.855.335-5.56.164-1.4-.14-2.065.621-3.6.491-.392.065.091-.745-.491-.491-.646.052.121.506-.326.654-1.492-.1-2.373-.313-3.434.491a31.436 31.436 0 014.251-.164c1.28-.08 2.5-.575 3.762-.654 4.151-.26 8.388.318 12.92-.163a67.026 67.026 0 00-7.523-.328zm-8.341.491c.392-.393-.536-.423-.491-.163 0-.013.552.1.491.162zm18.48-.327h-2.29c.396.628 2.113.317 2.29-.001zm-59.529.654c.433 0 .963.091.981-.327a.766.766 0 01-.491-.163c.051.376-.472.181-.49.489zm-18.153-.164a.916.916 0 01-.654-.164c-.262.456.706.453.654.164zm2.617.491c.521.074 1.049.262 1.472.327-.5-.863-2.472-.372-3.761-.818.339.655 1.452.371 2.288.49zm12.1 0a3.062 3.062 0 001.963-.163c-.55-.463-1.3.294-1.635-.327-.039.233-.268.275-.326.489zm35 .327c.648-.061 1.567.15 1.963-.164a.451.451 0 00-.326-.491c-.313.452-1.554-.025-1.635.654zm-43.5.164c2.144.139 3.225-.232 4.416.491-.048-.43.634-.129.491-.654-1.515.336-3.864-.819-4.91.162zm42.845-.327c-.245.028-.6-.059-.654.164.246-.029.607.057.654-.164zm6.378.327c.244-.028.6.058.654-.164-.217-.212-.606-.216-.653.163zm26.33.327c.775.066 1.125-.292 1.963-.164-.054-.926-1.805-.325-1.962.163zm-67.706.164c.075-.511-.35-.523-.818-.491.073.729.346.242.818.49zm30.746-.164c.337-.1 1.137.264.981-.326h-.981zm28.456 0c.646.93 2.636-.383 3.6.327-5.352.449-7.892.466-13.41.981.553-.062.7.283.981.491a35.524 35.524 0 01-6.378.327c-1.133 0-2.515-.339-3.108.491 4.448-.284 8.21-.254 12.266-.326a75.245 75.245 0 01-12.592.491c-1.535-.065-3.707-.183-4.743.327a16.341 16.341 0 014.089.326 34.024 34.024 0 005.069-.164c2.061-.1 4.154-.44 5.888 0-.556-.012-1.141-.05-1.308.327a32.639 32.639 0 006.869-.654c-1.737-.209-3.577.346-4.906 0 .281.146.519-.125.818-.164 2.321-.3 4.977.112 7.2-.164.6-.074 1.041-.764 1.635-.163a1.335 1.335 0 00-.981.326 74.633 74.633 0 007.523-.818 4.026 4.026 0 002.126-.818c-.375-.414-2.63 1.176-1.8 0a31.07 31.07 0 00-3.108.164c.051-.221.233-.312.164-.654-.522.376-1.282.049-1.8.164-.268.059-.13.291-.491.326-1.284.129-2.245-.025-3.271.164a9.467 9.467 0 01-3.107.164 40.539 40.539 0 016.215-.818c.714-.052 1.592.294 2.125-.326-.378-.437-1.255.112-1.471-.164 0-.216.286-.15.326-.327-1.4-.434-3.353.216-4.416.164zm5.07 0c.786-.358 2.36.071 3.108-.326-1.108.2-3.029-.412-3.6.326h.49zm-30.419.491c1.328-.089 3.079.244 3.925-.326-.96-.561-3.277-.434-3.924.325zm15.864-.654l7.686.327a10.89 10.89 0 00-2.453-.164c-.4.3 1.078.11 1.472.164a1.163 1.163 0 01.491.326 4.094 4.094 0 011.635-.163c.062-.911-.729-.157-1.144-.164zm-18.807.164c.257-.016.567.022.491-.327h-.326c0 .164-.136.195-.164.327zm30.092.164c.392.588 1.788.174 2.453.491 7.55-.446 5.676-1.225 5.233-.166zm-63.781.164h1.308c7.777-.493 6.532-.042 6.378.324zm61.655-.164c.257.016.567-.021.491.327.306-.239 1.084-.007 1.308-.327 7.434-.268 6.248.049 5.887.325zm-36.306.327a8.52 8.52 0 002.453-.327c6.977.063 5.533.009 5.233.652zm19.299.979c-.7-.585-1.659.282-2.617-.327-1.27.538-2.867 0-4.579.327-.407.284-.268.422.163.164 2.881-.047 6.745.306 9.323-.491.224-.373-.422-.614 0-.654.367.134 1.175.667 1.145-.163-2.166-.022-6.13.048-7.523.491 1.851.332 3.424-.343 5.4 0-.4.255-1.015.294-1.308.654zm-18.644-.654c-.461.04-.63-.362-.818.164 1.609-.095 3.629.125 5.233 0 .57-.044 1.483-.022 1.8-.491-1.787.063-4.281.156-6.217.327zm-2.29.327c.406.025.794.031.818-.326-.311.072-.984-.223-.819.328zm22.732.491c1.31-.108 3.051.216 4.089-.164-1.037-.258-3.163-.794-4.087.164zm-32.381-.164c.41-.134 1.408.318 1.308-.327-.411.135-1.409-.318-1.309.327zm16.027 0a1.9 1.9 0 001.472-.327c-.594.002-1.296-.091-1.473.327zM40.871 38.272c.769.16 1.738.181 2.29.326-.251-1.077-4.233-.734-2.291-.328zm26.984.327c.531-.095.761.112 1.145.164.048-.861-1.077-1.046-1.145-.164zm7.2-.327c-.024-.358-.412-.352-.818-.327-.522.86-3.894-.352-4.579.818 1.893.063 4-.418 6.377 0-.294-.021-.383.162-.326.491.189-.419 1.282-.419 1.472 0 .521.14.621-.142.818-.326a8.837 8.837 0 003.107-.164c.245-.028.6.059.654-.164h-.822c-1.941-.172-3.679.462-4.743-.164.245-.027.6.059.654-.163-.251-.598-1.471-.312-1.798-.003zm-24.041.654c.217-.335-1.541-.089-2.126-.164a11.669 11.669 0 00-4.579-.327c2.259.235 4.398.739 6.701.489zm12.266-.327c-1.622-.079-3.514-.493-4.743.164 2.713-.373 5.3.867 7.2 0-.632-.356-1.509-.12-2.461-.166zm-4.742.652a27.935 27.935 0 00-6.051-.326 22.323 22.323 0 006.051.326zm15.373 0h.326c.1-.01.194-.024.164-.163-.216 0-.15-.287-.327-.327a.76.76 0 01-.164.49zm47.1.654c-.046-.5.027-1.116-.491-1.145.139.404-.045 1.132.486 1.145zm-61.983-.491c1.138-.275 2.621.511 3.107-.164-.897.091-3.026-.191-3.111.164zm4.252 0c.091 0-.746-.333-.327.164 4.078.213 10.588 1.028 15.209.164-4.924.113-9.442-.593-14.886-.328zm-10.63 0c-.288.094-.961-.2-.981.164.283-.097.956.198.977-.164zm14.719 1.145c.818-.016 1.768.467 2.29-.163-4.74-.052-9.372-1.067-14.882-.491a71.222 71.222 0 0012.587.654zm22.069-.163a6.538 6.538 0 001.472-.164c.333.095 1.289-.112.491-.164-.923-.072-2.981.213-1.963.328z"/><path d="M36.128 15.701c.379.182-.318.647-.491.818-.338-.141.36-.607.491-.818zM47.74 14.888c-.358-.342.927.04 1.145.164-.353.545-.751-.22-1.145-.164zM28.769 16.191c-.022.469-1.122-.142-1.145.327-.335-.484.828-.467 1.145-.327zM44.468 16.682c.257-.674 1 .8 1.635.818-.571.399-.955-.784-1.635-.818zM40.542 19.135a.934.934 0 00-.981-.491c.733-.3.645-1.426 1.472-1.635-.319.335-.228 1.08-.818 1.145-.075.511.35.523.818.491-.014.532-.209.881-.654.981-.03.356.134.521.491.491-.095.4-.617.364-.981.491.053-.656.445-.973.653-1.473zM47.576 18.15c.005-.242-.823.031-.818.327-.4-.355.586-.713 1.145-.654-.189 1 .592 2.424.491 3.434-1.191-.089-.06-1.884-.818-2.617-1.1.026-.275 1.331-1.145 1.308a2.445 2.445 0 011.145-1.798z"/><path d="M47.085 20.771c-.786-.077-.359 1.058-1.145.981.168-.459-.255-1.137-.491-.654-.326-.284.182-1.117.818-.981.021.293-.2.345-.164.654.972.155.477-1.158 1.308-1.145-.173.51-.655 1.439.327 1.472.017.508-.514.467-.327 1.145-1.083-.131.109-1.002-.326-1.472zM39.071 19.789c.143 0-.085.993-.654.818-.258-.749.681-.303.654-.818zM49.211 21.097c-.112-.549.274-.6.654-.654-.161.652.489.493.327 1.145-.585-.079-.18-1.031-.981-.491zM61.477 21.752c.4-.343-.121.585 0 .981.2.681.4 1.041 0 1.635-.455-.373.223-.866-.164-1.308-.392-.065.091.745-.491.491a7.1 7.1 0 00.655-1.799zM69.327 23.224c.584.809-.491 1.357-.491 2.126-.709-.437.6-1.248.491-2.126zM66.219 24.041a1.376 1.376 0 01-.981 1.145c.3-.409.315-1.103.981-1.145zM101.054 29.929a6.64 6.64 0 013.761.654c-.512.5-1.208-.2-1.963 0-1.049-.787.4.291.654-.164.01-.018-.521-.328-.491-.326-.339-.01-2.02.779-1.961-.164z"/></g></svg>