<svg xmlns="http://www.w3.org/2000/svg" width="525.789" height="289.591" viewBox="0 0 525.789 289.591"><g transform="translate(0 0.001)"><g transform="translate(0 44.031)"><g transform="translate(0)"><path d="M959.939,783.589c-15.186-8.085-22.165-9.632-13.338-2.956,9.022,6.824.788,5.4-17.7-3.067-9.211-4.217-20.193-11.988-24.4-17.269-11.026-13.826-17.481-20.268-18.892-18.856-2.075,2.075,5.191,13.652,16.771,26.722,9.645,10.886,10,11.786,2.861,7.242-11.522-7.332-13.589-6.438-5.361,2.32,3.879,4.129,5.546,7.508,3.7,7.508a7.3,7.3,0,0,1-5.4-3.324c-1.454-2.353-2.74-2.214-4.4.473-1.7,2.745-7-.177-19.146-10.555C858.564,758.1,854.393,752.2,860.763,752.2c1.614,0,5.011,3.17,7.55,7.045,4.106,6.266,19.548,16.074,19.548,12.415,0-.789-5.534-7.136-12.3-14.106-11.857-12.218-11.466-20.493.459-9.7,8.32,7.529,7.254.724-1.118-7.142-8.575-8.056-29.435-9.681-22.88-1.782,3.519,4.24,2.674,4.519-7.891,2.617-16.321-2.94-37.474-10.034-45.878-15.387-10.87-6.925-5.449-8.1,7.478-1.623,13.967,7,28.071,10.669,28.071,7.3,0-1.352-5.068-4.24-11.262-6.418-12.785-4.5-31.705-15.345-29.9-17.145.657-.658,7.817,1.733,15.909,5.313,26.068,11.531,61.251,18.8,56.9,11.757-.962-1.556-8.1-3.782-15.855-4.945s-22.255-5.97-32.216-10.683-19.654-8.568-21.542-8.569-4.211-2.03-5.161-4.507c-2.4-6.26.695-5.64,14.6,2.925,6.607,4.069,14.716,7.4,18.019,7.393,5.74-.006,5.707-.256-.751-5.644-8.725-7.279-8.788-10.942-.083-4.844,7.463,5.227,15.707,6.3,12.846,1.672-1.021-1.652,1.023-3,4.542-3,5.905,0,6.023-.376,1.519-4.879-3.46-3.46-8.182-4.436-16.234-3.356-6.245.838-13.708.206-16.584-1.4-7.508-4.2-9.93-.142-3.057,5.122,5.261,4.029,4.882,4.131-4.157,1.113-5.592-1.867-9.343-4.887-8.57-6.9.756-1.97-.926-6.631-3.737-10.357-8.484-11.247-21.584-5.63-37.679,16.156-14.033,19-29.325,27.843-48.923,28.3-7.466.175-13.283,3.692-24.873,15.041-13.3,13.021-17.13,15.062-31.7,16.883-9.115,1.139-18.435,3.934-20.712,6.211s-5.144,4.14-6.37,4.14-4.711,2.244-7.741,4.987c-9.258,8.379-8.995,2.681.361-7.8,7.06-7.908,12.829-10.7,29.183-14.129,17.611-3.691,22.162-6.1,33.459-17.726,7.192-7.4,14.148-12.791,15.458-11.982s10.328-.6,20.039-3.127c18.905-4.924,31.486-14.571,37.3-28.594,3.971-9.588,26.5-23.742,37.792-23.742,3.963,0,12.449,4.814,19.135,10.853,11.263,10.175,12.879,10.724,25.857,8.778,9.589-1.438,13.229-1.082,11.844,1.16-2.924,4.731.837,9.253,6.036,7.258,3.3-1.266,3.631-2.751,1.26-5.608-4.95-5.964,2.661-9.123,8.328-3.457,2.573,2.573,6.836,11.091,9.472,18.927,4.26,12.663,6.221,14.719,17.623,18.473,7.056,2.323,15.164,7.565,18.019,11.648,13.27,18.979,19.493,24.527,32.858,29.3,7.908,2.822,16.405,6.43,18.883,8.017s15.317,8.338,28.531,15c17.244,8.7,21.087,11.54,13.613,10.072-5.727-1.125-12.761-3.512-15.63-5.3s-6.254-2.222-7.52-.957-.314,3.56,2.116,5.1c8.958,5.665-2.017,2.2-15.1-4.765Zm-30.033-13.371c-2.478-1.6-5.856-2.911-7.508-2.911s-.976,1.31,1.5,2.911,5.856,2.911,7.508,2.911S932.384,771.819,929.907,770.218Zm21.023,0a3.105,3.105,0,0,0-3.181-3c-1.749,0-2.345,1.352-1.324,3s2.452,3,3.18,3S950.929,771.869,950.929,770.218Zm-66.071-45.049a2.9,2.9,0,0,0-2.757-3,37.109,37.109,0,0,1-8.259-1.747c-5.034-1.6-5.006-1.343.328,3C880.845,728.862,884.858,729.518,884.858,725.169Zm-19.521-9.01c-1.021-1.652-4.142-2.908-6.935-2.792-4.14.172-3.968.688.928,2.792C867.367,719.613,867.471,719.613,865.337,716.159Zm-4.5,59.668a27.641,27.641,0,0,0-1.836-6.9c-2.454-6.4,5.311-3.452,9.783,3.708,2.725,4.363,2.313,5.305-2.317,5.305-3.1,0-5.63-.951-5.63-2.114Zm-88.758-23.889c-2.577-4.17,3.135-10.049,7.277-7.489,3.449,2.132,1.241,10.754-2.754,10.754-1.378,0-3.413-1.469-4.523-3.265Zm12-10.154c-7.466-5.647-2.142-5.713,7.685-.1,4.813,2.751,5.827,4.33,2.826,4.4C792.009,746.145,787.279,744.209,784.072,741.784Zm9.937-5.088c-4.542-1.659-8.259-4.255-8.259-5.769,0-4.218,3.764-3.2,12.013,3.253C806.167,740.753,805.8,741,794.01,736.7Z" transform="translate(-604.227 -659.098)" fill="#2e1500"/></g></g><g transform="translate(180.353 165.487)"><path d="M564.018,880.809c-6.6-4.263-9.948-7.848-7.762-8.305,2.2-.461,3.8-3.96,3.73-8.182-.145-9.26,1.5-15,5-17.5a8.1,8.1,0,0,0,3.068-4.773c.188-1.555.494-3.469.682-4.253s3.716.687,7.841,3.271l7.5,4.7-6.328-7.059c-3.48-3.882-9.617-7.794-13.637-8.693-9.521-2.128-22.316-12.92-17.37-14.651,2.8-.981,2.636-2.29-.78-6.064-2.4-2.647-4.841-8.963-5.433-14.036-2.053-17.575-4.294-21.27-14.007-23.091-11.113-2.085-16.97-.175-19.338,6.307-.972,2.659-4.61,7.748-8.086,11.308S488.779,804.2,483.885,813.9c-6.68,13.249-11.371,18.919-18.814,22.741-5.453,2.8-13.757,10.317-18.452,16.7-9.207,12.52-24.282,21.469-35.529,21.093l-7.013-.235,7.387-2.227c11.549-3.482,23.21-12.934,32.36-26.232,5.751-8.359,10.937-12.71,16.467-13.816,8.166-1.633,18.392-15.394,22.959-30.9,1.1-3.75,6.04-11.312,10.967-16.8s10.333-12.555,12.013-15.694c2.742-5.123,4.652-5.529,18.635-3.961,8.569.961,17,2.859,18.725,4.218s6.423,9.169,10.428,17.356,8.331,14.885,9.611,14.885,4.846-3.375,7.922-7.5c11.448-15.351,13.493-16.562,23.98-14.2,5.392,1.216,10.544,3.344,11.45,4.727,2.772,4.236,13.2,8.788,20.136,8.788,7.7,0,14.163,6.565,16.6,16.855.954,4.02,3.615,9.19,5.913,11.488,3.911,3.911,20.464,9.79,27.661,9.824,1.766.008,5.835,3.39,9.042,7.516s10.353,9.671,15.88,12.323c7.225,3.468,8.133,4.465,3.231,3.547l-6.818-1.277,7.652,6.681c11.3,9.865,4.587,8.113-11.616-3.033-7.767-5.342-15.4-9.286-16.973-8.763s2.216,4.463,8.41,8.755,10.731,8.335,10.082,8.984c-1.687,1.686-12.857-4.431-20.046-10.978-3.369-3.069-7.049-4.656-8.178-3.527-1.911,1.911.106,3.866,14.3,13.869,4.975,3.5,4.374,3.753-6.818,2.826-13.512-1.119-29.355-8.026-24.826-10.824,1.569-.97,6.147.4,10.173,3.033,5.822,3.815,7.052,3.978,6.008.8-.721-2.2-5-5.228-9.51-6.729s-15.463-8.224-24.341-14.943c-16.288-12.326-34.029-22.625-35.846-20.81-.542.542,3.518,3.641,9.021,6.888,12.107,7.144,10.77,10.229-2.1,4.85-12.065-5.041-19.392-15.528-14.223-20.357,2.917-2.725,5.4-2.317,12.593,2.069,4.928,3,10.187,5.429,11.687,5.388s-2.182-3.1-8.182-6.789-10.979-8.87-11.063-11.506-1.754-7.725-3.709-11.31l-3.556-6.518-5.273,8.328c-7.688,12.142-17.389,17.861-24.155,14.24-3.6-1.927-5.427-1.969-5.427-.127,0,1.528,6.443,6.041,14.319,10.029s18,10.023,22.5,13.41c14.835,11.167,28.773,17.681,34.894,16.31,4.139-.927,8.992,1.307,15.561,7.162,5.25,4.68,7.4,7.769,4.773,6.865s-4.773-.454-4.773,1a2.772,2.772,0,0,0,2.872,2.642c1.58,0,7.387,3.068,12.906,6.818,6.339,4.307,8.325,6.818,5.393,6.818-5.247,0-16.995-6.271-41.139-21.96-9.114-5.922-17.938-10.768-19.609-10.768s-6.545-3.66-10.831-8.133c-7.414-7.738-30.05-18.681-32.851-15.881-.726.725,3.29,3.664,8.924,6.531a140.293,140.293,0,0,1,21.052,14.151,143.891,143.891,0,0,0,25.07,15.688c14.053,6.648,20.636,12.191,14.479,12.191-1.732,0-9.857-3.682-18.057-8.182s-15.754-8.155-16.786-8.121c-2.448.079,11.131,10.708,13.781,10.788,1.112.033,7.649,4.356,14.527,9.606,14.53,11.091,12.973,12.326-3.594,2.853-12.015-6.87-16.192-5.021-5.53,2.448,4.983,3.49,5.225,4.246,1.364,4.246-2.584,0-4.7,1.371-4.7,3.045s-2.28,2.449-5.067,1.72a15.5,15.5,0,0,0-9.92,1.391c-3.728,2.087-4.346,1.9-2.667-.82,1.6-2.586.874-3.032-2.7-1.661-5.633,2.161-12.633-2.548-10.825-7.283.756-1.981-2.106-3.443-7.474-3.821l-8.7-.611,9.358,8c11.819,10.1,9.719,10.393-5.249.722ZM635.9,852.854a6.343,6.343,0,0,0-4.934-2.686c-1.952.025-1.616,1.1.843,2.686,5.24,3.386,6.184,3.386,4.091,0Zm20.455-16.338c-21.2-16.317-20.329-15.873-23.851-12.1-4.354,4.66-1.8,11.152,5.1,12.956,4.475,1.171,4.851.73,2.15-2.524-5.91-7.121-.5-7.028,6.638.115,3.841,3.841,9.187,6.943,11.881,6.893,4.073-.075,3.749-.974-1.922-5.338Zm21.819,1.337c-1.868-2.25-4.623-4.091-6.123-4.091-1.521,0-1.226,1.809.668,4.091,1.867,2.25,4.622,4.091,6.122,4.091C680.364,841.944,680.068,840.135,678.174,837.853Zm-46.365-20.515c0-2.969-23.826-19.032-28.231-19.032-1.439,0-.395,2.455,2.32,5.455s6.451,5.455,8.3,5.455,6.264,2.414,9.8,5.364c7.572,6.308,7.8,6.389,7.8,2.758Zm-8.182-16.3a2.82,2.82,0,0,0-2.888-2.728c-1.589,0-2.13,1.228-1.2,2.728s2.227,2.727,2.888,2.727S623.627,802.534,623.627,801.034ZM549.64,881.043c-3.394-4.114-3.171-4.232,2.393-1.268,6.346,3.382,7.909,5.8,3.743,5.8-1.316,0-4.078-2.042-6.136-4.537Zm89.187-5.067c-8.16-6.173-3.692-7.178,5.366-1.207,4.439,2.926,6.23,5.289,3.98,5.251s-6.456-1.858-9.347-4.045Zm-95.656-47.672c-2.133-3.452,1.477-3.452,6.818,0,3.526,2.278,3.454,2.65-.521,2.686-2.537.022-5.37-1.186-6.3-2.686Z" transform="translate(-404.076 -763.765)" fill="#2e1500"/></g><g transform="translate(256.266)"><path d="M744.513,866.019c0-1.882.9-2.866,2-2.188a2.474,2.474,0,0,1,.645,3.422c-1.9,3.075-2.641,2.729-2.641-1.234Zm53.267-5.978c-8-6.732-13.359-9.2-10.727-4.946.715,1.157-.335,2.731-2.333,3.5-2.178.836-3.029.416-2.123-1.049.831-1.344-1.284-5.033-4.7-8.2-6.19-5.737-11.794-8.291-6.437-2.934,4.493,4.493,3.266,6.9-1.88,3.684-4.715-2.945-6.65-13.554-2.471-13.554,1.226,0,5.091,2.652,8.589,5.895s7.577,5.621,9.064,5.288c2.775-.623,14.021,8.089,19.769,15.314,4.61,5.795,2.67,4.934-6.75-3Zm-47,2.35c-2.118-1.369-2.408-2.292-.726-2.314a5.469,5.469,0,0,1,4.251,2.314C756.109,865.308,755.3,865.308,750.781,862.391Zm119.85-3.673c-5.235-1.981-6.516-3.13-3.525-3.161,2.585-.027,7.344,1.462,10.575,3.309,7.179,4.1,4.011,4.037-7.05-.148Zm-103.7-2.79c-2.923-3.727-2.84-3.81.887-.887,3.914,3.07,5.159,5,3.225,5-.488,0-2.339-1.85-4.113-4.112Zm33.661-3.637c-4.131-4.262-7.511-8.586-7.511-9.609,0-2.308,14.581,9.7,17.154,14.125,3.429,5.9-2.022,3.347-9.643-4.516Zm13.639.7c-2.118-1.369-2.408-2.292-.726-2.314a5.468,5.468,0,0,1,4.251,2.314C819.558,855.908,818.745,855.908,814.23,852.991Zm12.953-.5c-5.486-3.18-6.629-4.042-18.241-13.76-4.847-4.056-8.813-8.531-8.813-9.943s3.437.68,7.638,4.649A202.369,202.369,0,0,0,825.745,848C835.759,855.109,836.683,858,827.183,852.49Zm16.422-.421c-16.4-5.159-31.725-15.328-31.725-21.047,0-1.292,2.644.134,5.875,3.169s5.875,4.407,5.875,3.047-1.631-3.826-3.625-5.48c-2.225-1.847-2.784-3.849-1.447-5.186,2.462-2.462.837-11.181-2.085-11.181-1.05,0-3.417-1.509-5.261-3.353a71.727,71.727,0,0,0-10.651-7.791c-8.863-5.39-20.256-18.854-13.885-16.409,4.818,1.849,5.06-.149,1.115-9.19-2.845-6.52-4.622-7.287-19.975-8.623-2.908-.253-5.288-1.253-5.288-2.222s-2.115-1.763-4.7-1.763c-6.657,0-5.834,5.779,1.286,9.023,7.7,3.508,8.241,3.442,6.614-.8-1.754-4.57,1.739-4.5,7.513.148,3.071,2.473,3.645,4.058,1.756,4.852a3.505,3.505,0,0,0-1.511,4.552c1.939,5.053-1.814,4.118-13.687-3.411-5.884-3.732-12.885-7.479-15.557-8.327s-8.446-3.977-12.832-6.952c-16.887-11.46-25.157-8.86-33.222,10.444-1.905,4.56-5.945,9.618-8.976,11.241s-9.687,9.777-14.79,18.12-10.9,15.634-12.873,16.2-8.115,2.2-13.638,3.625c-6.644,1.717-14.153,6.516-22.189,14.18-16.264,15.513-18.66,13.062-4.009-4.1,7.194-8.427,12.7-11.591,28.207-16.194,10.084-2.995,12.321-4.861,17.384-14.506,7.308-13.921,10.424-17.794,17.241-21.426,2.993-1.595,7.363-7.38,9.71-12.857,5.786-13.5,14.332-18.87,26.837-16.871,5.313.85,12,3.74,14.853,6.424,3.873,3.639,6.868,4.482,11.776,3.316,3.62-.86,13.3-2.963,21.5-4.672l14.919-3.109,4.459,7.313c2.453,4.022,4.463,9.773,4.468,12.781.007,5,3.512,9.062,20.416,23.683,2.823,2.442,6.3,8.781,7.73,14.087,2.989,11.1,8.263,15.229,24.738,19.374,13.863,3.487,16.7,5.275,18.344,11.557,1.278,4.888-1.48,4.976-21.864.7-8.917-1.869-3.422,2.176,8.974,6.607,12.747,4.556,6.167,5.419-7.8,1.023Zm16.6-10.581c-.821-1.328-5.421-3.066-10.223-3.863a134.591,134.591,0,0,1-15.193-3.494c-3.554-1.125-6.462-1.172-6.462-.1,0,2.435,10.035,6.55,22.325,9.153,10.311,2.184,11.787,1.923,9.553-1.693Zm-28.353-.247a5.466,5.466,0,0,0-4.251-2.314c-1.682.021-1.392.945.726,2.314C832.845,844.158,833.659,844.158,831.856,841.241Zm-22.325-41.125a9.99,9.99,0,0,0-6.75-3.45c-3.213.063-3.1.626.737,3.525,5.937,4.491,9.763,4.443,6.013-.075ZM802.516,843.7c-3.212-2.468-5.03-5.3-4.041-6.286s4.651,1.054,8.136,4.539c7.272,7.272,4.587,8.417-4.1,1.746Zm-39.245-13.8c-19.187-14.5-19.819-15.342-10.139-13.472l8.225,1.589-7.638-5.071c-8.163-5.42-9.852-7.661-4.112-5.459,5.045,1.936,4.349-1.495-1.585-7.811-2.81-2.992-3.884-5.439-2.385-5.439,6.817,0,49.79,30.928,49.794,35.838,0,4.277-5.731.851-19.014-11.36-7.851-7.217-14.889-12.507-15.641-11.755s4.887,7.138,12.532,14.191c9.215,8.5,12.538,12.86,9.86,12.93-2.606.068-3.559,1.357-2.686,3.631,2.172,5.659-1.731,3.888-17.211-7.813Zm7.509-5.088c-3.7-3.864-7.281-6.476-7.952-5.8-1.473,1.473,9.361,12.486,12.481,12.688,1.211.078-.827-3.02-4.529-6.883Zm-23.132,10.159c-2.9-2.9-1.6-10.183,1.82-10.183,4.449,0,6.379,3.365,4.6,8.013-1.521,3.964-3.838,4.748-6.415,2.17Zm43.275-16.088c-7.88-5.565-11.834-10.028-11.906-13.435-.019-.943,4.723,1.64,10.539,5.74s10.575,8.837,10.575,10.526C800.131,825.549,800.531,825.672,790.923,818.886Zm13.908-1.068c-11.4-7.115-24.245-18.916-22.5-20.665.767-.768,4.292,1.315,7.833,4.628a72.225,72.225,0,0,0,13.926,9.8c4.119,2.077,8.147,4.841,8.951,6.143,1.834,2.967-3.513,3.029-8.215.095Zm-49.009-25.587c-2.557-2.557-5.3-3.995-6.1-3.2s-4.167-1.473-7.484-5.05-5.516-7.017-4.888-7.645c1.581-1.581,31.06,14.58,31.06,17.028,0,4.076-8.1,3.343-12.585-1.138Z" transform="translate(-612.002 -752.577)" fill="#2e1500"/></g></g></svg>