<svg xmlns="http://www.w3.org/2000/svg" width="100" height="161.002"><path d="M66.163 160.512c-2.037-.658-2.175-.791-2.787-2.694a3.243 3.243 0 01-.056-1.962c.4-1.708.334-2.312-.234-2.248-.746.084-1.121-.654-.547-1.077.374-.276.4-.392.158-.639s-.332-.248-.488 0c-.216.35-1.353.273-1.176-.08a.739.739 0 01.577-.249c.871-.034 1.066-.1.938-.3s-3.054-.374-10.172-.6c-3.3-.1-12-.611-16.332-.951-1.466-.115-2.02-.244-2.02-.471 0-.379-.484-.381 5.143.022 2.567.184 6.174.395 8.015.469s5.529.233 8.195.352c6.237.28 7.017.281 6.586.008-.451-.285-2.281-.432-7.279-.582-2.285-.069-4.934-.174-5.886-.233s-3.186-.164-4.963-.232c-6.58-.251-8.229-.4-8.365-.753-.194-.506.377-.727 1.182-.457a40.15 40.15 0 005.105.426c2.412.1 5.217.229 6.233.284s3.82.17 6.233.256 5.079.253 5.927.372c1.492.209 2.268.127 2.268-.241 0-.605-1.125-.79-6.348-1.045-9.263-.451-11.9-.568-12.883-.571-.754 0-1.059-.085-.952-.259s1.144-.215 3.419-.12c1.793.075 5.13.192 7.415.26s5.064.182 6.175.253c1.327.085 2.02.046 2.02-.111 0-.51-.974-.694-4.974-.943-5.76-.358-5.982-.8-.3-.6 3.08.111 4.352.082 4.467-.1.268-.433.044-.483-3.572-.8-4.626-.4-4.72-.674-.181-.528 2 .064 3.636.08 3.636.035a2.164 2.164 0 00-.561-.449c-.578-.379-.828-.413-5.037-.7a6.97 6.97 0 01-2.482-.4c0-.2 3.58-.1 6.757.2l.87.081-.556-.741a8.433 8.433 0 01-1.915-5.8c-.068-2.292-.127-2.584-.653-3.219a2.471 2.471 0 01-.577-1.131c0-.881-.455-1.422-.8-.95-.28.383-.336.358-.76-.34-.37-.609-.486-.68-.6-.37a.374.374 0 01-.521.239.633.633 0 00-.691.265c-.372.479-.794.1-1.377-1.25a2.6 2.6 0 00-.549-.877 12.728 12.728 0 001.563 3.326c1.067.723-.922 2.729-2.426 2.447a4.456 4.456 0 01-1.48-.6 2.72 2.72 0 00-1.334-.441c-.817 0-.812.009-.426-.733.208-.4.264-1.588.2-4.239-.092-3.8-.506-3.781-.8.031-.144 1.855-.882 4.436-1.3 4.545a6.563 6.563 0 01-3.257-.441.9.9 0 00-.577-.319c-.172 0-.478-.252-.679-.56a3.1 3.1 0 00-2.546-1.055h-.755l.13 2.184a11.136 11.136 0 01-1.951 7.664 5.034 5.034 0 00-.6 2.364 5.774 5.774 0 01-.379 1.951 1.409 1.409 0 00-.247.83 6.962 6.962 0 01-.808 2.078 4.613 4.613 0 00-.776 2.655c.015.641.077.971.138.733.1-.391.277-.418 1.878-.286 2.406.2 8.531.566 12.039.722 6.876.305 6.924.927.058.746-3.783-.1-4.329-.081-2.6.09 4.519.446 3.538.893-1.725.785-2.192-.045-3.173-.014-2.217.07 3.259.286 2.432.818-1.048.673-1.636-.068-2.558-.057-2.051.023 1.517.241 1.053.6-.866.676-1.231.046-1.789.157-1.789.353 0 .162-.824.509-1.9.8-4.53 1.228-6.32 1.32-8.062.417l-1.113-.577-1.674.457c-3.506.958-3.961 1.015-5.523.687a20.5 20.5 0 00-3.089-.344c-4.7-.108-5.45-3.546-.866-3.983 1.313-.125 1.489-.209 2.146-1.028a2.347 2.347 0 011.167-.891c.306 0 .451-.157.451-.492 0-.605.862-2.044 1.231-2.055 2.019-.053 3.076-3.753 2.459-8.653a26.2 26.2 0 01.123-9.17c.14-.557.084-.613-.736-.743-2.484-.395-2.7-.843-1.794-3.813a19.377 19.377 0 001.151-4.748 53.188 53.188 0 00-.734-9.564 41.607 41.607 0 01-.343-5.262 18.154 18.154 0 00-.441-4.8c-1.305-5.1-1.376-9.79-.2-13.21a4.849 4.849 0 00.304-2.09c-.223-1.47.936-8.715 1.851-11.57a28.747 28.747 0 001.4-5.656 26.506 26.506 0 012.2-6.361c.884-1.732 1.377-3.482 1.119-3.964a4.255 4.255 0 01-.261-1.5 2.5 2.5 0 00-.439-1.534 34.7 34.7 0 00-6.313-5.554 27.263 27.263 0 01-2.193-1.627 7.374 7.374 0 00-1.385-.935c-2.952-1.484-5.142-4.788-5.889-8.88-.731-4-.92-4.483-2.31-5.861-1.37-1.36-1.409-1.5-1.059-3.95a3.1 3.1 0 00-.375-2.259c-.532-1.089-.529-1.552.01-1.547.363 0 1.559 2.814 1.325 3.113-2.946 3.754 3.456 5.075 7.263 1.5a1.71 1.71 0 01.723-.459c.64 0 .851-1.112.491-2.59a7.522 7.522 0 01-.24-2.2c.141-.925-.118-.956-1.687-.2-2.928 1.413-7.717 1.542-7.717.21 0-.351.83-.407 1.039-.069.192.311 2.541.292 4.525-.036 2.467-.409 4.7-2.821 3.156-3.406-.7-.263-.786-.184-.95.84-.238 1.486-1.656 2.139-4.653 2.139-3.169 0-4.014-.538-3.77-2.4a1.354 1.354 0 00-.56-1.146 2.847 2.847 0 01-.261-3.271 1.6 1.6 0 00.212-1.319 12.13 12.13 0 01-.2-1.674 3.238 3.238 0 00-.417-1.458 1.52 1.52 0 01.211-1.942c.308-.356.291-.522-.151-1.55A25.733 25.733 0 01.001 2.693c.029-.381.061-.862.071-1.068C.124.63 8.721-.474 11.058.214c1.411.415.365.6-3.121.54C2.059.659-.34 1.499.775 3.261c.186.293.415.287 1.786-.053a25.514 25.514 0 017.632-.294l1.9.192v-.712c0-.866.4-1.183.645-.514.683 1.845-1.376 9.7-2.542 9.7-.389 0-.05 1.75.484 2.5.965 1.356 1.4 3.892.843 4.954-.322.617-.309.655.29.918 1.27.556 1.62 1.533 1.634 4.555a10.77 10.77 0 002.721 6.052 10.056 10.056 0 012.5 4.566c.412 1.888 2.388 4.848 3.237 4.848a2.195 2.195 0 01.911.363 7.478 7.478 0 002.243.586c2.194.289 2.889.564 3.937 1.556l.864.817-.468.5a6.9 6.9 0 00-.927 2.121 17.975 17.975 0 01-1.608 3.534c-1.92 3.195-1.546 4.492.831 2.879 1.414-.96 4.435-.949 4.806.016.355.925-.656 3.559-1.366 3.559-.442 0-.439-.555.005-.923 1.8-1.493-.879-2.339-3.611-1.14-3.148 1.381-3.512-.033-1.223-4.747a19.421 19.421 0 001.219-3.041 5.38 5.38 0 01.7-1.652c1.239-1.739.177-2.484-3.375-2.365-1.552.052-1.928 0-2.041-.3a1.067 1.067 0 00-.617-.513 3.574 3.574 0 01-1.131-.866c-1.666-1.826-5.041.092-5.041 2.867 0 1.293-.357 1.67-.708.746a3.855 3.855 0 01.507-3.051c.627-1.075.24-1.464-.738-.741-.834.617-1.108.505-.587-.239a4.856 4.856 0 013.164-1.814c1.429 0 1.47-.743.083-1.491-.812-.437-.959-.961-.252-.9.532.045.474-.455-.236-2.037-.864-1.925-1.58-2.281-2.961-1.472a5.11 5.11 0 01-1.255.591c-.509 0-.219-.393.652-.882a2.88 2.88 0 001.032-.85c.178-.464.159-.458-1.318.432a20.175 20.175 0 01-1.99 1.067c-.9.374-.9.778 0 .646 1.089-.16.684.359-.455.585-.655.129-1.075.111-1.24-.054a1.528 1.528 0 00-.9-.249c-1.181 0-.712-.6.8-1.016 1.321-.365 4.434-1.956 4.229-2.162a5.5 5.5 0 00-1.437.606 18.614 18.614 0 01-2.619 1.073c-.7.209-1.508.476-1.8.593a4.138 4.138 0 01-1.154.235l-.624.023.577.16c.481.134.608.355.764 1.337.182 1.145.219 1.19 1.37 1.668 1.457.605 1.262 1.144-.224.62-1.263-.446-1.323.424-.293 4.25.588 2.184 3.493 5.309 4.935 5.309a8.732 8.732 0 00-.047-1.036c-.107-1.345.282-1.338.659.011a4.61 4.61 0 00.9 1.674 41.119 41.119 0 005.673 4.759 5.689 5.689 0 012.271 2.213c.531.955.716 1.127.978.909.8-.665 1.08-.084.918 1.921a14.042 14.042 0 01-1.722 6.288 28.609 28.609 0 00-1.975 5.886c-.478 1.969-1.1 4.358-1.391 5.309a29.181 29.181 0 00-1.518 6.425c-.269 2.272-.215 2.594.356 2.121.776-.644 1.383.777.8 1.868a1.751 1.751 0 01-.808.672.767.767 0 00-.563.75 16.13 16.13 0 01-.633 2.6 23.427 23.427 0 00.02 11.246 17.612 17.612 0 01.615 6 47.581 47.581 0 00.225 5.133c.123.762.369 3 .548 4.974a23.552 23.552 0 01-1.033 10.93c-.432 1.42.155 1.98 2.08 1.984.632 0 .592-2.8-.064-4.423a6.335 6.335 0 01.32-3.948c.248-.514.255-.925.038-2.1a16.458 16.458 0 01-.271-2.246 25.9 25.9 0 00-.49-3.205c-.435-2.153-.482-3.069-.425-8.195.139-12.539.122-12.845-.665-11.873-.516.638-1.114.478-1.323-.354-.17-.677.32-1.493.612-1.02a.752.752 0 01.053.588c-.192.5.352.354.633-.171.209-.39.178-.541-.165-.8-.4-.309-.4-.33.087-.467.4-.114.536-.366.638-1.216a31.145 31.145 0 011.96-7.543c.779-2.285 1.557-4.519 1.728-4.963a44.322 44.322 0 012.247-5.118c.617-1.229 1.631-3.619 2.254-5.309 1.813-4.919 3-7.023 5.5-9.774a4.666 4.666 0 001.246-1.936c.319-5.162.253-7-.3-8.283a8.3 8.3 0 01-.547-2.244c-.044-.635-.14-1.128-.214-1.1a1.141 1.141 0 01-.365.058c-.127 0-.231.148-.231.33a1.182 1.182 0 01-.345.675 3.183 3.183 0 00-.571.94c-.226.594-.7.823-.7.337a11.167 11.167 0 011.46-2.769c.107-.078.04-.6-.149-1.154a2.56 2.56 0 01.6-2.8c.206-.137.174-.248-.124-.424a.792.792 0 01-.4-.545.971.971 0 00-.355-.6c-.314-.26-.282-.372.274-.952.346-.361.513-.657.371-.657-.493 0-.538-.892-.1-1.886.244-.55.579-1.363.744-1.807.575-1.551 2.732-4.155 3.441-4.155.114 0 .278-.224.365-.5.392-1.234 2.969-2.949 4.446-2.959 1.024-.007.748.359-.411.544-1.856.293-3.7 2.678-2.071 2.678.45 0 .679.117.679.346 0 .489 1.688.469 2.1-.024 1-1.2 4.954.353 5.113 2.012a2.109 2.109 0 00.894 1.812c.742.622.752.65.2.546a2.831 2.831 0 01-1.649-2.281 1.4 1.4 0 00-1.422-1.487 5.192 5.192 0 01-1.461-.276c-.669-.242-.876-.212-1.695.248-.928.521-2.115.526-2.434.01-1.053-1.7-4.578 1.055-5.323 4.168-.411 1.718-.4 1.781.233 1.941 1.505.378 1 4.066-.556 4.066-.309 0-.943 1.875-.794 2.346a1.513 1.513 0 001.763.725 1.891 1.891 0 011.069.138.583.583 0 00.845-.121c.609-.609.341-1.117-.632-1.2-1-.083-1.137-.428-.253-.65 1.049-.263 1.792.384 1.938 1.687a5.168 5.168 0 001.509 3.191 5.353 5.353 0 01.913 1.558c.238.946-.073.765-.5-.29-.409-1.023-.755-1.157-1.189-.462a1.146 1.146 0 01-1.081.462c-.894 0-1.309.414-.737.734.411.23.5.776.169.984-.42.259-.928-.162-1.192-.989a4.092 4.092 0 00-.473-1.065c-.272-.294-.259-1.45.018-1.621.391-.242-.029-.841-.539-.769-.608.087-.808 1.565-.316 2.338a14.547 14.547 0 01.859 2c.891 2.475 1.569 2.924 3.317 2.193 1.211-.506 1.835-.462 1.651.115-.493 1.554 4.387.187 5.9-1.653 1.433-1.739 1.663-2.226 1.747-3.7.1-1.708.919-2.724 1.629-2.013.4.4 1.162.022 1.334-.661a.821.821 0 00-.266-.973 2.631 2.631 0 01-.976-3.2c.3-.863.9-.976.9-.169 0 .823.233 1.289.644 1.289a7.874 7.874 0 003.088-1.56c.339-.312.724-.5.856-.42.414.256.007.828-.927 1.3-.782.4-.868.518-.656.914.446.834 1.612.132 1.612-.97 0-.219.353-.668.785-1 .674-.514.761-.688.612-1.224-.172-.621-1.168-.827-1.356-.281-.041.118-.378.154-.749.08a2.811 2.811 0 00-1.376.156c-.386.16-.76.232-.831.161-.246-.246 1.279-.856 2.153-.861l.877-.005-.547-.42c-.46-.354-.506-.5-.289-.9.487-.91.331-1.667-.344-1.667-.44 0-.566.093-.469.346.153.4-.157.447-.77.119-.47-.252-.941.61-1.053 1.926-.231 2.738-2.876 2.44-2.876-.325 0-.706.215-.826 1.73-.965 1.055-.1 1.458-1.093.855-2.115l-.45-.763.555.253a1.371 1.371 0 01.689.773c.149.577.589.677.968.22.179-.216.153-.577-.1-1.3-.42-1.22-.258-1.495.3-.512.5.879.663.9.857.131.125-.5-.058-.819-1.145-1.992-.9-.971-1.221-1.472-1.053-1.639s0-.407-.561-.786c-.441-.3-.8-.635-.8-.746 0-.364-1.473-.732-3.463-.866l-1.962-.132-1.5 1.024c-.825.563-1.63 1.1-1.789 1.2-.375.227-.375-.223 0-.541.159-.134.6-.5.981-.821a7.68 7.68 0 017.037-.852c1.138.474 3.416 2.353 6.183 5.1l1.246 1.237-.041 2.341a19.657 19.657 0 00.191 3.378 3.184 3.184 0 01.116 1.224 5.645 5.645 0 00-.175 1.343c-.053 1.031-.175 1.274-1.137 2.25l-1.078 1.094.69.912a3.424 3.424 0 01.7 1.413 3.056 3.056 0 001.933 2.136l2.1.634c1.234.371 1.4.5 1.79 1.383s.543 1 1.627 1.261a10.266 10.266 0 014.8 2.722 11.647 11.647 0 002.512 1.83 13.9 13.9 0 014.477 3.937c.819 1.058 1.3 1.4 3.392 2.409 3.657 1.766 6.714 4.425 7.792 6.78.561 1.225 1 1.567 2.9 2.235a1.342 1.342 0 01.629.727.784.784 0 00.747.587 2.221 2.221 0 011.795 1.937c0 .536.43.668 1.174.36.968-.4 2.289.915 2.289 2.28 0 .923 2.42 5.351 3.636 6.653 1.172 1.256.03 3.937-2.148 5.041a8.679 8.679 0 00-1.026.577c-.982.982-6.229 2.1-6.235 1.327a27.75 27.75 0 00-2.319-3.4 42.916 42.916 0 01-2.91-4.328c-.632-1.292-.755-1.372-1.453-.936-.364.227-.526.206-.881-.115a2.068 2.068 0 00-1.2-.395c-1 0-2.348-1.369-3.437-3.49-.741-1.45-1.614-2.281-2.4-2.281-.451 0-2.19-1.707-3.092-3.036a2.475 2.475 0 00-1.463-1.235 3.528 3.528 0 01-1.348-.718 16.8 16.8 0 00-3.527-2.168c-.289 0-.253.822.152 3.519.2 1.3.4 2.779.447 3.288.533 5.339.98 7.572 1.836 9.183a14.411 14.411 0 01.82 1.9c1.019 3.137 3.991 7.354 5.525 7.841a2.792 2.792 0 01.9 1.1l.531.983-.465 1.48-.465 1.48 1.227 2.56c2.336 4.877 2.837 7.194 3.048 14.1.168 5.486.653 8.139 2.009 10.983 2.045 4.289 1.017 5.649-3.366 4.457a7.858 7.858 0 00-2.024-.28 2.609 2.609 0 01-1.057-.1 5.839 5.839 0 00-2.694.724c-.107.107.019.576.281 1.042a4.028 4.028 0 01.476 1.11 1.265 1.265 0 00.316.628c2.021 2.327 2.2 11.869.268 14.62-.561.8-.225 1 1.788 1.051 1.044.027 2.521.1 3.283.169s2.528.16 3.924.209c2.634.093 3.441.251 3.208.627a78.347 78.347 0 01-9.9-.156c-.465-.094-1.234.229-1.03.432a18.891 18.891 0 002.648.243c4.107.218 6.117.415 6.117.6 0 .265-1.685.472-2.8.344a33.316 33.316 0 00-5.974-.11c-.4.247.611.451 2.248.455.789 0 2.5.127 3.809.278 3.148.364 1.959.687-1.9.515-3.218-.143-4.386.011-4.386.58 0 .86.7 1.133 3.074 1.2a6.8 6.8 0 012.655.365c.328.257 0 .3-2.093.245a9.043 9.043 0 00-2.482.113.186.186 0 00.195.173c.237 0 .729 1.578.728 2.335 0 2.94-6.239 4.947-10.8 3.476zm5.6-.963a1.908 1.908 0 011.123-.231c1.08 0 2.686-1.175 2.686-1.965 0-.3-.262-.161-1.034.551a4.894 4.894 0 01-1.27.953c-.462 0-.224-.447.554-1.041 1.557-1.188 1.488-2.708-.15-3.283a13.527 13.527 0 00-5.106-.63c-1.75.2-1.291.521.852.591 2.392.077 2.076.439-.384.439-2.362 0-3.055-.3-2.543-1.116.267-.424 3.618-.566 4.636-.2.851.309.6-.213-.311-.646a3.052 3.052 0 00-1.9-.247c-4.211.576-4.709.4-3.05-1.1a3.553 3.553 0 013.225-.968c1.243.273 1.03.582-.4.582a2.84 2.84 0 00-1.916.44l-.543.44 1.065-.12a15.569 15.569 0 013.312.285c2.289.412 3.035.264 2.418-.48-.119-.143-.157-.319-.085-.391s-.111-.2-.406-.288-1.206-.419-2.024-.739c-3.124-1.221-6.234.169-6.039 2.7a5.06 5.06 0 01-.313 1.587c-.592 1.676-.206 3.8.747 4.1.218.069.6.22.858.334.994.448 5.78.8 6 .443zm-52.405-3.578a7.138 7.138 0 014.775-.88 15.684 15.684 0 005.674-.36c.638-.357 1.322-3.541.86-4a6.173 6.173 0 00-1.83.4c-4.257 1.314-6.87.876-7.181-1.2-.17-1.134-.655-1.587-1.955-1.827l-.8-.148.808.6c1.174.868 1.385 1.068 1.385 1.315 0 .395-.681.236-1.6-.374s-1.862-.677-2.035-.155c-.052.159.059.289.246.289a3.461 3.461 0 011.251 1.077l.909 1.077.523-.523c.73-.73 1.206-.28.659.624s-.967.89-2.109-.046a4.171 4.171 0 00-1.315-.824c-.234 0-.222.07.046.289.557.453 1.352 1.71 1.186 1.876-.082.082-.521-.254-.974-.749-1.361-1.484-2.392-1.454-3.455.1-.536.783-.572.8-2.2.8a4.7 4.7 0 00-2.076.306c-1.085.793.892 2.3 2.994 2.282a10.285 10.285 0 012.339.3 4.765 4.765 0 003.877-.228zm10.544-.2c1.119-.488.246-.445-1.994.1l-1.847.448 1.533-.1a8.882 8.882 0 002.307-.448zm7.759-2.613a1.9 1.9 0 00-.808 0c-.222.058-.04.106.4.106s.63-.047.407-.105zm-2.02-.2c-.858-.187-2.035-.219-1.932-.054a2.418 2.418 0 001.2.156c.6-.015.927-.061.737-.1zm4.444-.727a3.289 3.289 0 00-1.039 0c-.286.055-.052.1.519.1s.805-.045.519-.1zm-2.847-.152a18.953 18.953 0 00-2.29-.2c-1.206-.065-1.933-.038-1.616.061a16.039 16.039 0 003.905.141zm27.336-1.163c2.107-1.962 3.138-2.171 5.947-1.2 2.235.772 3.512.634 1.6-.172a2.867 2.867 0 01-1.269-1.432c-.693-1.364-.681-1.256-.145-1.256.56 0 .694-.356 1.092-2.885.937-5.959.95-8.508.056-10.85a8.364 8.364 0 01-.633-1.933c-.073-.512-1.506-.94-1.913-.572a.9.9 0 01-.886.2.947.947 0 00-.882.172c-1.435 1.218-8.835 2.483-9.542 1.631a.4.4 0 00-.466-.161c-.128.079-.08.3.114.517 1 1.141 1.287 2.336.7 2.919-.867.867.111 4.4 1.623 5.865.783.758.9 1.044 1.185 2.793a8.345 8.345 0 001.246 3.563 3.6 3.6 0 01.671 1.964c.073 2.091.123 2.119 1.5.838zm-36.11-.386c1.456-.312 2.227-.912 2.418-1.88a10.749 10.749 0 01.686-1.911 13.177 13.177 0 001.438-4.155 7.589 7.589 0 01.9-2.424 11.1 11.1 0 001.355-3.867c.526-2.525-1.346-7.325-2.271-5.826a.689.689 0 01-.533.232c-1.031 0-2.256.511-1.718.713.767.287.642.5-.578 1.007l-1.1.452.866.206c1.183.281 1.1.786-.173 1.107-1.115.281-1.319.541-.577.735q1.069.28-.48.98c-.913.412-.927.435-.48.785s.441.41.109 1.226c-.442 1.087-1.1 1.232-.726.161.27-.774-.169-1.35-1.039-1.365-.712-.012-.3-.511.759-.927 1.092-.427 1.048-.553-.278-.792-1.157-.209-1.092-.538.173-.877a2.336 2.336 0 001.039-.435c0-.086-.467-.227-1.039-.313-1.488-.223-1.329-.7.353-1.052 1.325-.281 2.069-.691 1.254-.691-.745 0-2.881-.73-2.751-.941a2.622 2.622 0 011.319-.214c1.917 0 .988-.383-1.862-.767-2.134-.288-2.755-.463-3.4-.958-.849-.648-1.144-1.7-.391-1.39a10.423 10.423 0 003.174.652 22.582 22.582 0 012.649.393 12.4 12.4 0 006.074-.489q2.8-1.072-.54-.841c-2.228.153-2.332-.136-.32-.884 3.361-1.249 3.615-1.378 3.934-1.994.56-1.081.454-1.182-1.062-1.011-.913.1-1.385.074-1.385-.086 0-.133.038-.242.084-.242 2.391 0 3.939-1.317 1.609-1.369-.989-.022-1.455-.226-1.32-.577.077-.2.456-.259 1.214-.186a3.315 3.315 0 002.089-.4c1.3-.666 1.143-.736-.769-.335-1.768.371-2.368.271-.794-.131 1.765-.451 4.348-1.7 4.076-1.973a16.393 16.393 0 00-3.36.485c-.371.109-.519.056-.519-.184s.5-.424 1.674-.632a10.094 10.094 0 002.251-.618l.577-.323-.577.03c-.922.047-1 0-.663-.406.286-.348.253-.369-.345-.22-2.492.621-2.617.385-.226-.425l1.58-.535-1.154-.144a28.557 28.557 0 01-6.647-1.5c-2.885-.972-3.163-1.1-3.163-1.424s.727-.257 1.146.122c.532.482 4.881 1.61 5.063 1.314a.582.582 0 01.488-.215c.189.011.706-.008 1.151-.041l.808-.061-.981-.22c-1.726-.387-1.309-.956.621-.847 2.085.118 1.813-.253-.608-.832-1.709-.408-3.693-1.308-4.037-1.83-.356-.541.118-.565.919-.048a5.423 5.423 0 001.893.685l1.039.133-.693-.333a3.577 3.577 0 00-1.068-.343c-.378-.01-1.042-.632-.864-.81.258-.258 3.654 1.1 4.587 1.833 2.725 2.143 5.425 2.344 9.234.689.952-.414 2.3-.933 3-1.155a17.045 17.045 0 001.7-.617c.235-.118.482-.159.549-.091a19.83 19.83 0 01-3.2 1.743c-3.361 1.64-4.963 2.7-4.416 2.932.4.168.362.544-.058.544-.385 0-.447.408-.135.9.14.22.455.282 1 .194 1.113-.181 1.494.1 1.155.839-.476 1.046-.077 2.006 1.251 3.006a9.122 9.122 0 013.554 5.653 4.388 4.388 0 002.936 3.216c1.158.347 1.336.841.225.628l-.75-.144.693.593c.381.326.666.7.633.825-.217.842 5.226.1 7.822-1.068 1.849-.831 2.279-.938 2.279-.564 0 .672-3.537 1.887-6.752 2.319-2.138.287-2.531.538-1.226.783 1.928.362 5.735-.458 8.4-1.81a2.71 2.71 0 001.843-2.28l.24-.876-.8.7c-1.614 1.417-1.821.164-.255-1.548.261-.286.354-.519.207-.519a17.942 17.942 0 00-3 .724 1.118 1.118 0 01-.761.066c-.4-.248.229-.726 1.148-.873 1.262-.2 1.766-.86 1.766-2.307 0-2.231.567-1.654.988 1.005.191 1.206.214 1.239.457.659a1.484 1.484 0 01.489-.693c.357-.126.03-2.044-.349-2.044a.306.306 0 01-.317-.289 3.122 3.122 0 00-.35-.958c-.192-.368-.281-.732-.2-.808s.2-.007.256.154a1.926 1.926 0 00.387.577 3.867 3.867 0 01.516.7c.208.373.3.312.873-.548 1.12-1.683 1.994-5.06 1.318-5.06-.2 0-.565-.87-.509-1.224a5.4 5.4 0 00-1.173-1.27 20.571 20.571 0 01-1.562-1.533c-.2-.247-.906-.987-1.573-1.644-1.115-1.1-1.484-1.715-1.03-1.715a65.352 65.352 0 015.185 5.334c.6.689.866.874.866.6a.609.609 0 00-.346-.537.526.526 0 01-.346-.419 1.36 1.36 0 00-.462-.7 1.377 1.377 0 01-.462-.671 40.311 40.311 0 00-4.657-4.481c-.516-.366-.323-.808.271-.619a.524.524 0 00.571-.106c.333-.539.941-.13 3.156 2.126 1.725 1.757 2.21 2.153 1.886 1.537a9.2 9.2 0 00-1.7-1.94c-1.48-1.3-1.789-1.731-1.258-1.731.685 0 .121-.42-.765-.569-1.482-.25-5.557 1.1-7.541 2.5-.726.512-3.244.631-8.547.4a7.38 7.38 0 00-4 .636c-3.1 1.173-4.5.775-5.713-1.628-1.406-2.77-4.718-6.168-4.718-4.836a1.869 1.869 0 01-.462.959 1.863 1.863 0 00-.462.819c0 .588-1.365 1.794-1.708 1.509-.254-.21-.488-.062-1.142.724-.453.544-.724 1.023-.6 1.065.387.135.236.5-.207.5-.241 0-.867.551-1.436 1.265-1.438 1.8-1.348 1.823-4.233-.971-1.413-1.368-3.089-2.9-3.726-3.4a13.636 13.636 0 01-3.072-3.555c-1.04-1.872-.946 8.525.106 11.743a3.315 3.315 0 01.1 2.285c-.307 1.28-.161 1.656.993 2.564.73.572.809 1.145.157 1.145-.254 0-.462.1-.462.221a3.776 3.776 0 01-.557 1.041 3.147 3.147 0 00-.019 3.268 2.8 2.8 0 01.187 1.762 4 4 0 00.475 2.6c.739 1.615.748 1.775.087 1.609-.955-.24-1.92 8.047-1.112 9.556.187.35.19.492.011.492-.139 0-.2.09-.13.2a9.784 9.784 0 01.119 5.193c-.571 1.083-.371 1.383 1.462 2.125a3.067 3.067 0 012.007 2.247c0 .655 2.593.858 4.827.379zm40.826-31.138c-.346-.628-.5-1.091-.334-1.028a4.306 4.306 0 011.224 1.888c.094.6-.284.239-.89-.86zm.96-.763a14.3 14.3 0 01-.886-1.609 3.278 3.278 0 00-.684-1.1c-.088 0-.345-.312-.57-.693-.608-1.03-.02-.839.641.208a3.767 3.767 0 00.783.981 6.489 6.489 0 011.519 2.539c-.193.312-.413.222-.8-.33zm-.409-3.225c-.776-1.174-1.584-2.372-1.8-2.661-.687-.939-.069-.886.748.064 2.092 2.433 3.384 4.732 2.658 4.732a11.784 11.784 0 01-1.61-2.135zm-35.125 1.24a4.216 4.216 0 012.269-.374c.195.195-.029.276-1.173.426-.603.075-1.096.055-1.096-.052zm15.838 16.072a97.505 97.505 0 01-1.144-2.422 4.477 4.477 0 00-.852-1.443c-.106 0-.259-.208-.34-.462s-.243-.462-.362-.462-.215.208-.215.462.13.462.289.462.536.493.839 1.1l1.183 2.366a3.676 3.676 0 01.509 1.616c-.1.285-.063.3.227.056.312-.258.3-.4-.136-1.27zm-.82.463c-.271-.413-.823-1.373-1.226-2.135-.606-1.146-.747-1.293-.817-.851a1.26 1.26 0 00.511 1.085 1.807 1.807 0 01.6.909.326.326 0 00.277.357c.212 0 .211.066-.006.283s-.172.368.242.687c.806.621.968.492.423-.336zm-6.428-1.3a7.936 7.936 0 01-.692-.857c-.269-.4-.284-.38-.164.213.086.423.048.6-.107.506-.134-.083-.242-.095-.242-.028a2.422 2.422 0 001.433.684c.091-.056-.012-.289-.23-.518zm.561-1.06c-.642-1.357-1.074-1.8-.519-.527.584 1.334.941 1.988 1.033 1.9a4.757 4.757 0 00-.514-1.368zm-2.895-.884c-.187-.187-.256-.162-.256.1 0 .459.31.769.425.425a.582.582 0 00-.168-.522zm9.228 0a12.086 12.086 0 00-.659-1.327c-1.567-2.739-1.664-2.878-1.667-2.39a1.162 1.162 0 00.363.795 9.149 9.149 0 011.157 1.875c.773 1.534 1.2 2.1.806 1.048zm31.092-.822c.077-.235-.145-.281-.955-.2-.73.076-1.138.011-1.321-.21-.146-.176-.35-.267-.454-.2a.238.238 0 01-.32-.1c-.072-.117-.351-.156-.619-.086-.4.1-.258.227.75.667 1.314.573 2.751.634 2.919.125zm-5.776-.66c1.378-.128 1.441-.161 1.411-.737-.028-.544-.041-.552-.131-.084-.055.286-.2.519-.322.519s-.316-.234-.431-.519c-.176-.437-.211-.451-.223-.088-.011.315-.139.4-.476.31-.254-.066-.462-.038-.462.063s-.36.251-.8.334a1.833 1.833 0 00-.959.408c-.11.178.012.207.4.094a14.85 14.85 0 012-.3zm-34.44-.882c-.218-.459-.444-.787-.5-.729a1.975 1.975 0 00.292.939c.219.458.444.787.5.729a2 2 0 00-.292-.939zm9.211.09c-1-1.973-2.032-3.437-2.213-3.147-.115.184-.066.324.128.367a4.624 4.624 0 011.066 1.616 18.839 18.839 0 00.982 1.84c.415.529.438.112.038-.677zm-7.145-.889a1.992 1.992 0 00-.474-.693c-.063 0 .046.312.243.693a1.992 1.992 0 00.474.693c.064-.002-.046-.313-.243-.694zm.447-1.52c-.452-1.005-.767-1.56-.7-1.233a11.81 11.81 0 001.431 3.152 9.179 9.179 0 00-.731-1.919zm37.274 1.119c-.288-.8-.855-1.566-1.031-1.391-.141.141.254.942.8 1.622.447.557.5.508.231-.231zm-42.608 0a1.832 1.832 0 00-.5-.693c-.427-.344-1.05-.386-.847-.058a.729.729 0 00.564.231.618.618 0 01.542.462c.066.254.179.462.251.462s.067-.186-.01-.404zm2.809-1.443c-.543-1.2-.685-1.061-.192.192.209.532.432.915.5.851a2.226 2.226 0 00-.3-1.044zm-1.137-2.357c-.434-.619-.47-.441-.084.407.154.338.317.5.364.363a1.223 1.223 0 00-.28-.77zm2.546-.092c-.082-.214-.2-.337-.265-.274s-.048.291.034.5.2.337.265.274.049-.287-.034-.501zm35.6-1.817a55.793 55.793 0 01-2.151-8.433c-.049-.571-.2-1.818-.327-2.77-.567-4.136-.562-4.056-.253-3.766a8.62 8.62 0 01.7 2.424c.224 1.183.417 1.839.429 1.458a13.543 13.543 0 00-1.02-4.839 9.936 9.936 0 01-.572-1.415 6.536 6.536 0 00-1.633-2.8c-.242-.063-.372-.225-.289-.359.1-.154 0-.187-.252-.089a3.8 3.8 0 01-1.019.173c-.339.01-.492.069-.34.13.371.151.11.775-.325.775a.217.217 0 01-.222-.324.326.326 0 00-.267-.426 4.445 4.445 0 01-1.16-1.678 31.512 31.512 0 00-1.785-3.092c-.983-1.466-1.449-2.876-.691-2.09a7.054 7.054 0 01.75 1.064 42.726 42.726 0 002.747 4.005 9.187 9.187 0 00-1.411-2.77c-1.6-2.355-1.271-2.208.636.28.8 1.043 1.557 2.026 1.684 2.186.4.5 1.647-.315 2.421-1.573.871-1.416.868-1.5-.1-2.368a52.219 52.219 0 01-4.672-6.294c-.225-.587.55-.307.826.3.152.334.332.551.4.483s-.148-.554-.48-1.08a11.38 11.38 0 01-.824-1.536c-.125-.329-.329-.513-.472-.424-.26.161-3.491-3.012-3.747-3.68-.287-.748.264-.332 2 1.507 1.032 1.1 1.771 1.721 1.771 1.5 0-.656-1.247-2.681-1.654-2.684a7.478 7.478 0 01-2.27-2.55c0-.1-.207-.228-.461-.294-.492-.129-.856-.771-.589-1.038.142-.142.56.266 2.483 2.432.532.6.989.689.784.154a2.3 2.3 0 01-.141-.693c0-.18-.1-.328-.215-.328a13.663 13.663 0 01-2.72-2.712c-1.6-2.376-.877 1.372.966 5.021 1.678 3.324 2.049 3.939 2.214 3.672.1-.166.322-.078.634.257.381.409.425.595.218.925-.257.412.682 2.121 1.994 3.629.759.873.059.577-.821-.346-2.4-2.523-5.434-8.214-7.221-13.565a30.387 30.387 0 01-1.625-8.422 28.772 28.772 0 00-.721-5.771c-.351-1.158-.434-4.155-.115-4.155.113 0 .274.39.359.866a5.451 5.451 0 001.419 3.166 13.259 13.259 0 003.623 1.348c.352.029.911.491 1.567 1.3 1.408 1.726 1.719 1.719.916-.021-.727-1.57-1.12-3.193-.776-3.193a4.292 4.292 0 01.729 1.609 6.191 6.191 0 00.762 1.759 2.68 2.68 0 01.568.928c.681 1.63 3.421 2.807 3.076 1.321-.277-1.195-.271-3.31.01-3.31.245 0 .361.428.586 2.152.266 2.05 2.331 4.449 5.4 6.273.641.381 1.167.83 1.169 1a4.506 4.506 0 00.7 1.311 4.751 4.751 0 01.693 1.259c0 .19.891.7 1.227.7a9.726 9.726 0 00-.037-1.284 5.571 5.571 0 01.2-1.962c.265-.639.228-.73-.643-1.6-1.734-1.734-1.126-3.985 1.223-4.529 1.924-.446 1.994-.5 1.622-1.207a9.372 9.372 0 00-3.057-2.951c-.861-.365-1.2-.78-.628-.78a2.786 2.786 0 011.154.578c.417.318.816.484.887.37.152-.249-1.944-1.641-2.468-1.641a.521.521 0 01-.441-.176 13.391 13.391 0 00-3.858-1.212c-.6 0-2.105-.831-2.105-1.17 0-.118.265-.212.591-.212.9 0 .471-.379-.643-.571l-.986-.17.877-.264.877-.264-.53-.435a33.48 33.48 0 01-1.053-.909 2.03 2.03 0 00-1.616-.441l-1.094.033.774-.287c1.025-.381.255-.964-2.331-1.767-.755-.234-.834-.325-.627-.712.343-.641-1.332-1.653-3.355-2.026a7.78 7.78 0 01-2.113-.655c-.491-.322-.69-.33-1.535-.064-2.788.877-3.3 3.032-3.2 13.5.086 9.289.111 9.58 1.093 12.4.456 1.308.932 2.742 1.059 3.187s.434 1.535.685 2.424.554 1.935.676 2.325c.282.9.293 2.576.015 2.28a20.654 20.654 0 01-.913-3.1c-.389-1.587-1.255-4.5-1.923-6.464l-1.217-3.58-.113-5.656c-.231-11.623-.077-13.584 1.277-16.2.45-.87.317-1.008-.54-.565-.989.512-1.873 1.8-2.721 3.957-1.518 3.867-3.708 6.2-4.413 4.7a33.545 33.545 0 01-1.7-4.086.254.254 0 00-.231-.27c-.127 0-.232.493-.234 1.1-.008 2.386-.693 2.209-.834-.216a26.162 26.162 0 00-.342-2.916c-.425-2.137-.106-3.382 1.086-4.238a3.787 3.787 0 001.017-.908 10.559 10.559 0 011.126-1.648 5.163 5.163 0 001.2-4.675c-.109-.508-.21-.7-.224-.435a3.066 3.066 0 01-1.8 2.082 1.858 1.858 0 00-.8.491 30.12 30.12 0 00-.1.827c-.128 1.088-3.8 5.427-5.25 6.2-.76.406-2.034.541-2.328.248-.469-.469-2.069-.305-1.641.168s1.186.656.922.229c-.078-.127.065-.231.319-.231a.8.8 0 01.623.26c.108.174.624.212 1.56.114 1.265-.132 1.356-.114.949.194a2.546 2.546 0 01-1.26.34c-.685.012-.744.052-.385.26.958.556 3.617-.838 3.617-1.893 0-.245.083-.446.185-.446.366 0 .666 1.533.611 3.116-.465 13.238.007 16.519 3.142 21.836a21.5 21.5 0 011.157 2.341c.271.668.6 1.474.731 1.792s.322.785.424 1.039a8.836 8.836 0 01.345 1.27 13.547 13.547 0 001.679 3.517c.227.228 1.883-1.155 1.883-1.572a.339.339 0 01.346-.329c.464 0 .454.042-.369 1.625-.394.756-.809 1.317-.923 1.247-.685-.423.938 2.476 1.675 2.992.47.329.533.318.861-.157.588-.852.908-1.113 1.061-.865s-.168.953-.714 1.5c-.483.483-.225.784 2.449 2.855 4.678 3.624 5.333 4.263 6.284 6.144a41.95 41.95 0 004.551 6.114 17.153 17.153 0 013.556 6.709c.464 4.146 2.1 8.5 4.024 10.678.567.644.537.4-.215-1.784zM52.261 80.317c0-.464 1.649-2.721 1.882-2.577.317.2-.01 1.012-.8 1.994-.716.891-1.083 1.088-1.083.582zm-2.4-5.682c-.067-.109.135-.438.448-.733.623-.585.8-.2.249.526-.341.449-.515.5-.7.207zm-1.521-6.083a4.951 4.951 0 011.417-2.031c.388 0 .192.774-.389 1.536-.6.785-1.027.993-1.027.494zm22.504-11.264a.962.962 0 01.706-.231c.31 0 .563.1.563.231s-.318.231-.706.231c-.412 0-.647-.097-.563-.231zm7.412 60.669c-.294-.838-.351-.9-.36-.373-.012.685.5 2 .629 1.611a3.505 3.505 0 00-.269-1.238zm-1.04-4.689a14.321 14.321 0 00-.615-2.397c-.17-.162.024 1.39.355 2.853l.366 1.616c.395 1.742.3-.08-.107-2.076zm1.289-.524c-.058-.221-.1.014-.1.522s.05.688.105.4a2.522 2.522 0 000-.923zm-7.581-1.605l-1.637-1.7a2.712 2.712 0 01-.635-.857c0-.28-1.88-1.478-2.051-1.307-.078.078.066.292.32.476.956.693 1.962 1.755 1.962 2.07a.334.334 0 00.339.328 4.666 4.666 0 011.443 1.338c.665.806 1.136 1.209 1.183 1.014.044-.178-.372-.791-.923-1.363zm-24.811-2.26a45.079 45.079 0 017.281-1.8c.456-.009 1.82.068 3.03.171 2.184.187 2.21.183 3.463-.521a14.709 14.709 0 019.047-1.752l.629.126-.744-.8c-.985-1.062-3.067-3.6-3.807-4.637l-.591-.83-.86.521a14.385 14.385 0 00-3.508 3.221c-1.256 1.486-2.135 1.742-4.675 1.367a4.744 4.744 0 00-1.616-.06 5.452 5.452 0 01-1.5.173 16.823 16.823 0 00-2.93.433c-1.972.481-3.123.336-3.888-.49-.711-.767-2.045-3.556-1.8-3.764a9.912 9.912 0 013.771-.8 27.629 27.629 0 009.725-3.044 13.975 13.975 0 011.645-.859c1.192-.5 1.236-.77.268-1.657a9 9 0 00-1.027-.857 30.468 30.468 0 01-1.982-2.5c-2.472-3.313-2.857-3.861-2.865-4.073a4.909 4.909 0 00-.689-1.084 4.978 4.978 0 01-.826-1.665 2.11 2.11 0 00-.465-1.031 1.309 1.309 0 01-.329-.874 2.016 2.016 0 00-.322-1.021 1.13 1.13 0 01-.22-.808c.3-1.273-.4-1.07-1.939.556-1.237 1.307-4.243 3.55-4.76 3.55-.057 0-.865.348-1.795.774a19.708 19.708 0 01-2.325.928c-.956.231-.784-.281.231-.687q11.674-4.669 9.009-8.7a10.727 10.727 0 01-1.092-2.127 7.923 7.923 0 00-.578-1.385c-1.612-2.611-2.074-7.16-1.648-16.217a36.864 36.864 0 00.074-4.444 18.463 18.463 0 00-3.129 1.924 10.989 10.989 0 00-.963 3.615 12.613 12.613 0 01-1.412 4.589 10.551 10.551 0 00-.664 1.431 9.206 9.206 0 01-.507 1.276c-.644 1.432-.619 1.3-.885 4.7-.3 3.841-.408 4.471-1.068 6.233a27.969 27.969 0 00-1.327 4.651 3.79 3.79 0 01-.6 1.421 2.086 2.086 0 00-.456.956 2.611 2.611 0 01-.519 1.079c-2.224 3.007-.065 12.8 3.714 16.842.973 1.041 2.671 3.047 3.774 4.457 3.3 4.22 3.157 4.112 4.657 3.486zM35.886 97.997c-.7-.89-.563-1.79.287-1.888.7-.081 1.313.288 1.313.8 0 .422-.409.4-.852-.039s-.625-.295-.423.34a.681.681 0 00.615.479c.316 0 .438.128.386.4-.124.643-.786.6-1.326-.088zm-1.249-4.426a1.2 1.2 0 01.213-1.936c1.059-.482 1.734.4 1.382 1.8-.171.68-1.034.751-1.595.131zm.875-.711c.166-.272-.09-.946-.36-.946-.113 0-.205.259-.205.577 0 .57.313.774.564.367zm-.646-4.005c-.911-.834-.975-1.664-.174-2.235.86-.612 1.043-.6 1.5.091.983 1.5-.1 3.261-1.323 2.143zm.773-1.2a.962.962 0 00-.232-.707c-.292-.181-.554.462-.377.924.21.546.609.4.609-.217zm12.581-3.5c.381-.324.969-.84 1.307-1.147.615-.559 1.117-.725 1.117-.368a8.065 8.065 0 01-2.743 2.108c-.263-.005-.169-.18.32-.6zm-12.2-.909c.139-.363 2.72-1.762 4.239-2.3 1.9-.672 3.946-2.584 4.253-3.981.164-.748.5-1.145.757-.89.942.942-2.565 4.531-5.422 5.548a12.7 12.7 0 00-2.128 1.143q-2.036 1.346-1.7.478zm.773-3.393a10.426 10.426 0 012.993-2.482c.531 0 .168.5-1.158 1.607-1.427 1.186-1.836 1.381-1.833.872zm1.614-6.507c0-.405.136-.491 1.1-.7.931-.2.97.108.08.634-.819.482-1.177.5-1.177.062zm.694-5.325c-.365-.441.235-.81 1.316-.81q1.5 0 .7.635c-.448.357-1.772.471-2.019.174zm.693-4.511c0-.249.168-.326 1.212-.555.7-.154.933.4.27.653-.579.224-1.482.164-1.482-.1zm2.086-6.557a2.485 2.485 0 011.031-.482l.693-.147-.545.478c-.646.566-1.746.7-1.178.147zm-11.687 51.4c.308-.349.884-1 1.279-1.443 2.67-3 3.937-6.545 2.75-7.684a1.915 1.915 0 01-.429-1.445 3.822 3.822 0 00-.231-1.434c-1.107-1.923-1.464-12.012-.491-13.856a9.421 9.421 0 00.728-4.435 17.648 17.648 0 01.322-5.988 15.5 15.5 0 00.353-3.924 18.533 18.533 0 011.645-7.973c.1-.254.284-.825.409-1.27.931-3.3.936-3.334.722-4.963-.117-.889-.216-1.78-.22-1.981-.034-1.626-1.873-.865-2.091.865a6.309 6.309 0 01-2.3 4.578c-2.041 2.032-3.92 6.243-5.355 12a14.451 14.451 0 00.9 7.041c1.123 2.666 1.152 2.77.766 2.77-.339 0-.785-1-1.756-3.924-1.036-3.125-.939-2.95-1.388-2.5-.4.4.052 3.313.731 4.679.22.442.258.756.111.9-.248.248-.383-.043-1.053-2.273-.565-1.882-.67-1.936-1.255-.652-.279.613-.605 1.3-.725 1.52a22.8 22.8 0 00-1.366 4.556 40.831 40.831 0 01-1.625 5.656c-.517 1.427-.541 1.706-.787 9.163-.117 3.548-.094 3.877.293 4.155a5.95 5.95 0 011.067 1.459 6.262 6.262 0 001.451 1.731c.443.316 1.183.9 1.646 1.294a5.34 5.34 0 001.341.875 11.763 11.763 0 012.9 2.783c.305.545 1.036.421 1.656-.281zm-3.442-5.824a5.641 5.641 0 00-1.546-.814 5.267 5.267 0 01-2.625-2.729c-.9-1.794-.431-1.855.938-.122a6.852 6.852 0 001.594 1.516 6.17 6.17 0 011.141.785c.725.676 1.137.533 2.1-.724a11.49 11.49 0 011.46-1.613c.663-.521.624-.544-1.558-.9a13.62 13.62 0 01-6-2.943c-.782-.89-.715-1.544.083-.818a12.255 12.255 0 006.018 2.717c3.4.312 3.731.763 2.124 2.919-.594.8-1.39 1.891-1.768 2.431-.81 1.156-.772 1.15-1.954.292zm4.524-22.2c-.356-1.021-.317-1.452.169-1.892.914-.827 1.834-.062 1.562 1.3-.293 1.467-1.305 1.814-1.731.594zm1.086-1.1c-.107-.92-.522-.706-.605.311-.067.814-.036.876.3.6a1.1 1.1 0 00.305-.906zm-.935-4.887c-.669-.39-.482-2.29.224-2.29.254 0 .306.141.191.519-.254.84-.257 1.065-.012 1.141.127.039.334-.163.459-.449.287-.653.716-.531.633.181-.119 1.021-.693 1.366-1.5.9zm.11-5.942c-.342-.779-.229-1.2.428-1.615 1.021-.638 1.693.069 1.28 1.346-.355 1.1-1.28 1.245-1.708.269zm1.15-.734c.121-.822-.383-.969-.6-.173-.2.757-.181.866.175.866.179 0 .365-.3.422-.693zm.24-4.222c-.762-.234-.937-.483-.519-.74a.75.75 0 00.231-.578c0-.415.9-1.255 1.114-1.04a1.464 1.464 0 01-.181.789c-.338.816-.136 1.338.358.928a1.039 1.039 0 00.325-.7c0-.24.106-.434.235-.434.336 0 .018 1.192-.436 1.639-.3.3-.527.323-1.126.14zm1.68-5.786a.607.607 0 01-.282-.693c.189-.493.622-.491.622 0 0 .35.037.349.439-.015.534-.484.85-.126.487.552-.291.544-.669.59-1.266.154zm14.644 45.215a8.914 8.914 0 014.887.019c3.076.586 3.562.452 5.728-1.585a16.049 16.049 0 012.949-2.259c.606-.287 1.138-.55 1.182-.584a6.74 6.74 0 00-1.139-1.175 52.936 52.936 0 01-1.732-1.644c-.593-.613-.686-.582-3.717 1.281a7.718 7.718 0 01-2.016.981 7.393 7.393 0 00-1.833.693 29.452 29.452 0 01-7.365 2c-1.638.173-1.711.28-1.069 1.565.688 1.378 1.31 1.484 4.128.7zm2.489.409a5.1 5.1 0 00-1.27 0c-.349.053-.063.1.635.1s.984-.042.635-.095zm23.142-9.501c0-.113-.156-.266-.346-.339-.352-.135-.473.111-.192.391.221.221.539.19.539-.052zM92.01 88.24c.292-.114 1-.339 1.569-.5 3.39-.955 5.845-3.8 4.946-5.726a19.9 19.9 0 00-2.69-3.843 3.146 3.146 0 01-.639-.866c0-.786-.888-1.046-2.733-.8-2.006.263-2.576.09-2.576-.789 0-.3-.382-.617-1.226-1.017a8.6 8.6 0 01-2.566-2.079l-1.34-1.5-.55.593a2.389 2.389 0 00-.549.783 7.391 7.391 0 002.545 2.33c1.728 0 1.511 1.962-.286 2.589-.673.234-.953 1.884-.453 2.671.163.257 2.456-.6 4.053-1.518.115-.066.14-.009.057.126a13.212 13.212 0 01-3.523 1.9c-.216 0-.323.158-.272.4.109.528.959.472 2.335-.155 1.181-.538 1.309-.565 1.309-.277a3.637 3.637 0 01-1.39.723c-1.873.7-1.881 1.037-.076 3.384.374.487.85 1.145 1.057 1.462a8.691 8.691 0 002.234 2.308 3.026 3.026 0 00.762-.207zm.744-8.546c.449-.5.825-.627.825-.287 0 .107-.284.323-.63.481-.629.286-.629.286-.2-.194zm-2.293-.016c.21-.339 1.041-.748 1.041-.512 0 .111-.266.323-.592.472s-.53.17-.449.038zm-.284-1.547c.215-.215.468-.313.562-.218s.019.269-.168.387c-.562.355-.812.249-.395-.168zm2.629-.4c.672-.805 1.207-1.163 1.42-.95.162.162-1.481 1.738-1.813 1.738-.145.002.031-.348.393-.786zm-1.766-.369c0-.127.162-.231.36-.231s.3.1.217.231a.5.5 0 01-.36.231.224.224 0 01-.217-.231zM18.974 83.61c.058-.173-.029-.26-.2-.2a.722.722 0 00-.4.4c-.058.173.029.26.2.2a.722.722 0 00.4-.4zm47.191-4.919a1.369 1.369 0 00-.319-.645c-.1-.069-.969-.886-1.925-1.816-1.6-1.554-1.736-1.641-1.736-1.087 0 .438.12.6.435.6a1.138 1.138 0 01.781.528 22.887 22.887 0 002.8 2.943c.056 0 .042-.234-.03-.519zm17.719-.192c0-.563-.539-.483-.652.1a.288.288 0 00.289.385c.212 0 .362-.2.362-.48zm-1.962.018a.755.755 0 00-.581-.231 3.275 3.275 0 01-1.371-.888c-1.159-1.1-1.224-.821-.1.425.763.845 2.509 1.435 2.051.693zm1.365-1.294c.556-.213.223-.506-.433-.38-.319.061-.523.2-.454.315.148.241.385.258.887.066zm-46.953-1.707a13.892 13.892 0 00.587-2.308c.044-.444.2-2.158.345-3.809.28-3.166.433-3.692 2.187-7.5a16.339 16.339 0 001.136-3.116 11.917 11.917 0 01.9-3.74c.6-1.139.5-1.365-.8-1.788a7.008 7.008 0 01-2.8-1.629c-.3-.4-.19 1.844.137 2.933.346 1.151.092 2.8-.795 5.147-1.079 2.859-1.781 7.972-1.295 9.428a7.636 7.636 0 01-.073 2.77c-.4 2.861-.445 5.532-.1 5.173.031-.032.284-.733.563-1.558zm29.545 1.039c0-.332-.133-.577-.313-.577a1.88 1.88 0 01-.875-.678c-1.2-1.443-2.738-2.636-2.738-2.119 0 .3.113.431.31.355.18-.069.685.344 1.207.988a36.41 36.41 0 001.192 1.414 4.073 4.073 0 01.532.75c.332.623.683.554.683-.132zm19.276-.476c1.925.662 1.773-.449-.18-1.316-1.638-.727-1.7-.735-2.543-.343-1.354.629-.716 2.091.726 1.662a2.559 2.559 0 012 0zm6.221-.39a14.328 14.328 0 00.155-4.064c-.853-1.329-1.67 1.884-.957 3.761.239.628.653.785.8.3zm2.064-.307c.223-.581.163-1.44-.113-1.611-.473-.292-.961.484-.791 1.258s.671.96.9.353zm-27.7-.386a3.764 3.764 0 00-.854-.866l-.73-.577.688.866c.676.852 1.144 1.152.898.577zm29.6-.281c.122-.318-1.061-1.59-1.278-1.374a3.462 3.462 0 00.962 1.713c.105 0 .247-.153.318-.339zm-6.167-2.744c.043-1.864-.024-1.982-1.422-2.476-1.7-.6-2.037.873-.374 1.609a.893.893 0 01.664.982c0 2.188 1.08 2.078 1.131-.115zm-25.531.9a2.441 2.441 0 00-.761-.707c-.19-.077-.041.178.332.567.817.853.988.91.429.14zm2.008.132a.636.636 0 00-.551-.575 3.505 3.505 0 01-1.284-.973c-.4-.459-.781-.786-.84-.727a12.505 12.505 0 002.5 2.71c.095 0 .173-.2.173-.436zm-3.232-1.266a1.22 1.22 0 00-.346-.375c-.284-.235-.346-.22-.346.087a.362.362 0 00.346.375c.191-.001.346-.04.346-.088zm20.29-.362c1.268-.647 1.622-1.6.946-2.553-.654-.918-1.615-.79-2.711.361-1.528 1.6-.234 3.212 1.765 2.192zm-1.584-.81c-.351-.423-.167-.724.72-1.183 1.266-.655 1.773-.038.783.952-.646.646-1.1.715-1.5.23zm-15.854.683a.516.516 0 00-.4-.346 3.008 3.008 0 01-1.031-.866c-.924-1.043-.7-.524.291.688.708.863 1.387 1.175 1.137.524zM51.651 59.025a10.661 10.661 0 002.105-4.861c.334-2.353 1.831-4.492 3.378-4.827.3-.066 1.15-.17 1.882-.232 2.7-.229 1.736-1.752-1.108-1.752a1.466 1.466 0 01-.917-.462c-.548-.606-.725-.584-1.374.171-.632.734-1.511.288-1.511-.767a1.413 1.413 0 00-.346-.871c-.443-.443-.444-.7 0-.528s.712-.824.364-1.393c-.229-.374-.25-.377-.194-.024.038.237-.359.748-.984 1.27a18.356 18.356 0 00-3.462 3.874 9.03 9.03 0 01-1.309 1.575c-.836.664-.681 2.01.377 3.273a15.177 15.177 0 011.767 4.559c.423 1.717.566 1.823 1.334.994zm-13.9-14.211c.272 0 .051-.394-.745-1.326-.468-.548-.733-.676-1.212-.584-.8.152-.826.883-.043 1.08a1.463 1.463 0 01.826.62c.154.288.393.424.6.344a2.037 2.037 0 01.571-.133zm13.68-5.275c.067-.109-.134-.148-.448-.089s-.57.149-.57.2c0 .179.9.082 1.018-.109zm3.83-.739c0-.247-.1-.448-.231-.448s-.231.266-.231.591.1.529.231.448a.769.769 0 00.231-.591zm-4.752-4.059c.18-.468.2-.45-.846-.612-.606-.093-.866-.048-.866.152 0 .784 1.439 1.171 1.712.46zm4.292-2.694c0-.711-.558-1.487-.795-1.1-.2.317.282 1.637.592 1.637.112 0 .2-.24.2-.533zm.474-1.624c-.3-.914-.935-1.325-.935-.6 0 .25.106.454.236.454s.354.26.5.578c.376.824.515.527.2-.427zM9.326 22.071c.389-.468-.085-1.18-.893-1.342-.755-.151-.766-.209-1.087-5.627-.162-2.729.143-3.578 1.437-4.006 1-.329 2-1.885 2.494-3.856.213-.856.484-1.932.6-2.392a7.143 7.143 0 00.215-1.1c0-.538-7.3-.3-10.446.338-1.664.339.685 6.325 2.482 6.325 1.151 0 2.321 1.917 1.485 2.433-.356.22-.245.527.246.683s.6 3.033.143 3.764a1.29 1.29 0 00-.053.835 1.207 1.207 0 01-.44 1.153 2.334 2.334 0 00-.574.85c0 .127-.37.385-.823.575-1.176.491-1.044 1.275.269 1.595s4.61.166 4.942-.233zm-5.334-2.51c.306-.369-.1-.6-1.035-.6-.526 0-.749.425-.4.769a1.286 1.286 0 001.44-.165zm6.232-.408a5 5 0 00-.292-3.752 19.031 19.031 0 01-.858-2.273c-.332-1.157-.463-1.277-.873-.78a1.808 1.808 0 00.156 2.162c.438.614.509 1.017.509 2.891a10.115 10.115 0 00.154 2.331c.385.385.971.108 1.209-.573zm-6.093-1.116c.165-.267-.17-.416-1.147-.51-.5-.048-.707.043-.767.338-.094.457 1.642.613 1.914.172zm1.5-1.6c0-.254-1.1-.705-1.717-.705s-.955.6-.471.866c.389.216 2.187.084 2.187-.163zm-.75-1.774c.795-.213.624-.466-.506-.75-1.371-.345-1.514-.33-1.514.165 0 .732.707.937 2.02.586zm-.77-2.767c.879-.337.364-.783-.9-.783-1.205 0-1.608.278-1.116.769a3.592 3.592 0 002.02.014zM77.19 157.48a.509.509 0 01.24-.366.546.546 0 00.1-.591c-.113-.355-.025-.443.439-.443.73 0 1.039.452.42.614a.884.884 0 00-.579.562c-.115.446-.619.626-.619.224zm-.067-2c-.413-.413-.044-.549 1.5-.549 1.186 0 1.591.071 1.414.248a5.559 5.559 0 01-2.912.3zm-1.26-2.331c-.413-.051-.75-.2-.75-.328a38.322 38.322 0 017.238-.01c.812.415-3.894.66-6.488.338zm-22.515-1.361c-.034-.034-2.5-.171-5.481-.3-5.14-.229-11.8-.66-12.805-.827a13.251 13.251 0 00-1.443-.094c-.728-.013-.981-.11-.981-.378 0-.289.193-.336.981-.237.54.068 2.072.181 3.4.252s2.839.179 3.347.241c1.482.18 8.447.566 12.581.7 4.45.141 5.546.267 5.063.582a20.261 20.261 0 01-4.662.057zm23.264-4.185c-2.121-.076-2.611-.193-2.265-.539.272-.272 9.243.136 10.36.472.654.2-3.526.231-8.095.067zm.538-1.443a10.874 10.874 0 01-2.393-.277c-.2-.2.943-.507 1.23-.33.115.071 2.172.2 4.572.281a30.544 30.544 0 014.578.349c.217.2-3.892.188-7.987-.023zm1.078-1.281a11.292 11.292 0 00-1.6-.152c-.9-.044-1.4-.173-1.471-.382-.1-.3.735-.286 4.8.107.317.031.733.066.923.078.282.018.288.059.034.22a6.685 6.685 0 01-2.689.129zm2.057-1.522c-.179-.289.574-.4 1.848-.266a3.265 3.265 0 011.289.274 8.738 8.738 0 01-3.137-.008zm-23.818-1.515c-.763-.147-.388-.529.518-.529.952 0 1.546.21 1.375.486-.129.209-.935.227-1.893.043zM18.941 79.749c-.407-.407.012-2.027.631-2.44.417-.279 1.109-.2 1 .112a.478.478 0 01-.483.256c-.226-.019-.438.2-.522.53-.192.764.047.932.605.427.452-.406.463-.4.463.15 0 .9-1.122 1.538-1.693.967zm2.172-6.4c-.582-.7-.032-2.537.906-3.022 1.276-.66 1.849.973.858 2.447-.583.868-1.321 1.108-1.764.574zm1.373-1.421c.307-.808.283-1.023-.115-1.023-.287 0-1.045 1.08-1.045 1.489 0 .429.968.041 1.16-.465zm1.657-4.735c-.671-.783-.147-3.18.772-3.532 1.2-.459 1.892.478 1.465 1.974-.489 1.713-1.5 2.418-2.237 1.558zm1.548-1.867c.312-.9.01-1.368-.62-.97-.372.235-.8 1.8-.561 2.037s.941-.377 1.181-1.067zm.99-4.855c-.834-.834.084-3.256 1.339-3.532.886-.194.9-.186 1.059.984.254 1.813-1.388 3.558-2.4 2.548zm1.279-.935a2.638 2.638 0 00.4-1.8c-.235-.381-.967.185-1.236.956-.356 1.022.23 1.613.836.844zm10.434-19.632c-1.565-1.222-1.632-1.311-1.734-2.288a3.308 3.308 0 01.18-1.534c.24-.457.223-.574-.113-.762-.845-.473-.5-1.418.469-1.276a46.9 46.9 0 002.309.248c1.872.157 2.248.381 2.943 1.753.722 1.425.722 1.43-.12 1.927-.783.462-.693.941.147.781.3-.058.55-.012.55.1 0 .372-.689.48-1.34.21a2.639 2.639 0 00-1.9.077c-1.036.281-1.168.369-.741.5.286.085.519.247.519.359 0 .3-.747.237-1.168-.092zm1.168-1.56c0-.261-.865-.516-1.152-.338-.36.223-.276.535.171.634.493.109.981-.038.981-.3zm2.03-1.467c-1.019-1.554-1.829-1.669-1.179-.167.341.786.523.951 1.052.951h.64zm-2.228-.606c-.559-.466-1.558-.637-1.3-.224a.749.749 0 00.577.231.749.749 0 01.577.231.526.526 0 00.418.223c.151 0 .03-.212-.27-.462zm-28.241-1.737c-.082-.082.646-.548 1.618-1.037 1.729-.869 2.091-.965 1.787-.473-.406.656-3.075 1.84-3.406 1.51zm41.136-.293a1.715 1.715 0 01.339-.635c.346-.457.466-.2.213.456-.143.376-.552.508-.552.178zm-3-6.612a1.576 1.576 0 00-.71-.939c-.6-.189-.578-.563.02-.407a2.379 2.379 0 011.379 1.712c.002.705-.404.489-.687-.366z"/></svg>