<svg xmlns="http://www.w3.org/2000/svg" width="199.998" height="46.916"><g data-name="グループ 3723" fill="#fff"><path data-name="パス 65" d="M29.582 19.644a3.477 3.477 0 00-.879-1.049 3.268 3.268 0 00-1.178-.612 4.554 4.554 0 00-2.092-.07 17.042 17.042 0 00-2.022.56 24.765 24.765 0 00-4.887 2.519q-2.25 1.505-4.43 3.219a.744.744 0 01-.176.14l.106-.21q1.863-2.449 3.586-4.985a50.852 50.852 0 003.129-5.266q.6-1.224 1.125-2.5a8.093 8.093 0 00.6-2.711 3.321 3.321 0 00-.6-2.169 2.56 2.56 0 00-1.688-1.12 2.763 2.763 0 00-1.318.105 12.1 12.1 0 00-1.213.49 16 16 0 00-2.655 1.5 24.788 24.788 0 00-2.374 1.889.42.42 0 00-.088.053.36.36 0 01-.088.053.156.156 0 00-.018-.07c-.012-.023-.006-.059.018-.105q.176-.909.352-1.749t.422-1.749q.07-.385.158-.787a2.4 2.4 0 01.369-.822.548.548 0 00.053-.7 2.706 2.706 0 00-.58-.63h-.176a1.444 1.444 0 01-.211.28.944.944 0 00-.176.245 16.6 16.6 0 00-.914 2.9q-.317 1.47-.7 2.939a7.867 7.867 0 00-.247 1.294 1.954 1.954 0 01-.528 1.155 38.494 38.494 0 00-3.34 4.023 37.083 37.083 0 00-2.742 4.443 32.971 32.971 0 00-1.688 3.884 14.253 14.253 0 00-.809 4.163 2.692 2.692 0 00.159 1.277 1.986 1.986 0 00.862.962 1.864 1.864 0 00.211.123c.07.035.141.006.211-.088a.345.345 0 00-.07-.49.671.671 0 01-.334-.437 2.765 2.765 0 01-.053-.543 4.489 4.489 0 01.053-1.049 9.122 9.122 0 01.228-1.015 23.571 23.571 0 012.637-6.21 44.16 44.16 0 013.938-5.44l.106-.1a.243.243 0 01-.018.1.152.152 0 00-.018.07q-.7 3.04-1.3 6.045t-1.055 6.08c-.07.42-.123.833-.158 1.241a8.9 8.9 0 01-.193 1.223 5.777 5.777 0 01-.4 1.171 3.275 3.275 0 01-.756 1.013.567.567 0 00-.088.7 1.007 1.007 0 00.581.56.3.3 0 01.211.314q-.282 2.1-.51 4.193t-.44 4.193q-.07.558-.123.874a.758.758 0 01-.211.454.861.861 0 01-.475.175 8.633 8.633 0 01-.879.034 3.4 3.4 0 01-1.353-.192 1.78 1.78 0 01-.967-.928 1.228 1.228 0 01-.07-1.26 6.528 6.528 0 01.738-1.05l.123-.122.123-.123a1.027 1.027 0 00.422-.7.544.544 0 00-.123-.454 9.022 9.022 0 00-.334-.35l-.281-.209a.24.24 0 00-.317.034 4.55 4.55 0 00-.826.735 4.278 4.278 0 00-.615.91 2.928 2.928 0 00-.3 1.049 2.827 2.827 0 00.123 1.12 4.608 4.608 0 00.721 1.263 6.545 6.545 0 001.09 1.078 5.944 5.944 0 001.318.784 4.127 4.127 0 001.441.338 2.571 2.571 0 00.281.053c.094.011.141.029.141.052a1.087 1.087 0 00.352.665q.281.244.563.525.316.034.615.052t.615.018a2.08 2.08 0 01.281-1.365 1.607 1.607 0 011.3-.595.827.827 0 00.334-.07c.106-.047.216-.094.334-.14a38.4 38.4 0 0016.1-12.875 34.884 34.884 0 002.742-4.443 17.821 17.821 0 001.688-4.933 3.973 3.973 0 000-1.487 4.6 4.6 0 00-.476-1.36zM9.558 26.729q.456-2.8.9-5.562t.862-5.6q.07-.385.158-.77a5.81 5.81 0 00.123-.8 2.485 2.485 0 01.334-1.19 3.781 3.781 0 01.791-.91q1.441-1.224 2.9-2.327a13.988 13.988 0 013.182-1.8 5.083 5.083 0 01.774-.28 3.061 3.061 0 01.809-.105 1.532 1.532 0 01.774.105q.281.14.141.595a10.925 10.925 0 01-.756 2.816 23.658 23.658 0 01-1.249 2.5 72.973 72.973 0 01-4.079 6.122q-2.181 2.94-4.4 5.878-.281.35-.562.718t-.562.717a.189.189 0 01-.07.087.288.288 0 00-.07.052.389.389 0 00-.018-.122.155.155 0 01.018-.125zm19.268-4.618a13.923 13.923 0 01-1.406 3.656 31.053 31.053 0 01-2.11 3.271A41.16 41.16 0 018.362 42.753a1.069 1.069 0 01-.562.139c-.118-.023-.141-.163-.07-.419q.351-2.9.65-5.7t.615-5.6a.674.674 0 01.141-.349 82.779 82.779 0 016.259-5.441 40.863 40.863 0 017.032-4.426 18.848 18.848 0 012-.857 9.973 9.973 0 012.109-.507q1.583-.175 2.11.42a2.369 2.369 0 01.18 2.097z"/><path data-name="パス 66" d="M68.452 22.32a1.207 1.207 0 00-.607-.3q-.253-.017-.4.578-.109.664-.234 1.749t-.234 2.24q-.108 1.154-.162 2.239t-.054 1.749a1.228 1.228 0 00.306.839 2 2 0 00.7.525.656.656 0 00.324.1c.1 0 .132-.093.109-.28v-.49a4.175 4.175 0 01.035-.525q.034-.63.123-1.645t.194-2.134q.105-1.118.193-2.134t.123-1.645a.7.7 0 00-.106-.49 2.575 2.575 0 00-.31-.376z"/><path data-name="パス 67" d="M69.119 18.472a1.043 1.043 0 00-.211-.368.653.653 0 00-.422-.192.365.365 0 00-.422.28 1.225 1.225 0 00-.07.56 1.878 1.878 0 00.228.769.955.955 0 00.686.455c.234.047.351-.017.351-.192a.677.677 0 01.141-.438 1.37 1.37 0 01-.158-.42 4.439 4.439 0 00-.123-.454z"/><path data-name="パス 68" d="M94.309 9.358a2.03 2.03 0 00-.9-.717 6.993 6.993 0 00-1.828-.438 19.637 19.637 0 00-1.828-.088 43.944 43.944 0 00-5.7.368q-2.814.367-5.591.962h-.175a.385.385 0 01.035-.175 17.177 17.177 0 00.44-2.082 12.3 12.3 0 00.123-2.187 3.885 3.885 0 00-.3-1.452 1.319 1.319 0 00-.791-.753h-.105l-.141.14a.539.539 0 00-.105.14l-2.532 7.137c0 .14-.047.21-.141.21a56.412 56.412 0 00-5.714 2.1q-1.186.511-2.375 1.037a24.422 24.422 0 011.022-2.821 21.648 21.648 0 00.738-2.064 7.476 7.476 0 00.317-2.169.856.856 0 00-.528-.98.4.4 0 00-.175.035 22.363 22.363 0 00-1.02 2.624q-.422 1.33-.879 2.659a20.746 20.746 0 00-.615 2.449 8.109 8.109 0 01-.22.872c-.6.268-1.2.534-1.8.807q-.175.036-.211-.1a1.253 1.253 0 00-.281-.56c-.117-.116-.293-.047-.528.21a3.514 3.514 0 01-.352.315 1.061 1.061 0 00-.141 1.435.765.765 0 00.6.42 3.436 3.436 0 00.668-.07 1.288 1.288 0 01.334-.088 1.259 1.259 0 00.334-.088l.443-.173c-.466.9-.949 1.78-1.462 2.639q-.95 1.592-1.9 3.166-.14.246-.316.07a2.779 2.779 0 00-1.863-1.084 2.95 2.95 0 00-1.9 1.014 9.065 9.065 0 00-1.635 2.1 24.9 24.9 0 00-1.178 2.379c-.17.367-.328.737-.483 1.106-.014.018-.031.029-.044.049q-.07.07-.334.385c-.176.21-.369.432-.58.665s-.416.443-.615.63-.334.279-.4.279a.3.3 0 01-.123-.174 2.58 2.58 0 01-.088-.28q-.07-.455-.193-1.54t-.229-2.274q-.105-1.189-.228-2.274t-.194-1.539a1.173 1.173 0 00-.334-.84.961.961 0 00-.685-.349 1.325 1.325 0 00-1.09.629 15.848 15.848 0 00-1.846 3.044q-.721 1.574-1.318 3.289a.315.315 0 01-.035.14l-.071.14a.9.9 0 01.035-.28q.246-1.575.492-3.132t.493-3.13a1.061 1.061 0 00-.563-1.155q-.316-.209-.422.175c-.047.21-.1.426-.158.647s-.112.438-.158.647q-.211.981-.492 2.082c-.133.52-.259 1.053-.386 1.585a.49.49 0 00-.177-.1c-.164-.047-.281-.035-.352.035a1.4 1.4 0 00-.176.21 12.683 12.683 0 00-.756 1.4q-.475.98-1.02 1.977a18.764 18.764 0 01-1.072 1.749q-.528.752-.879.717t-.528-.542a5.427 5.427 0 01-.247-1.26 14.76 14.76 0 01-.053-1.662q.017-.909.053-1.731t.053-1.452a2.929 2.929 0 00-.053-.84 1.073 1.073 0 00-.07-.543q-.1-.262-.316-.262a.73.73 0 01-.65-.227 1.012 1.012 0 00-.58-.333 2.236 2.236 0 00-.334-.1 1.568 1.568 0 00-.334-.035 2.864 2.864 0 00-1.74.613 9.7 9.7 0 00-1.319 1.277 14.329 14.329 0 00-1.055 1.487 12.576 12.576 0 00-.967 1.854 8.5 8.5 0 00-.563 1.942 2.981 2.981 0 00.194 1.749 1.4 1.4 0 00.9.892 1.25 1.25 0 001.143-.472q.281-.279.563-.577c.187-.2.375-.4.562-.612q.984-1.155 1.846-2.4t1.705-2.467l.141-.174a.072.072 0 00.018.053.071.071 0 01.018.052 7.686 7.686 0 00-.088.892q-.019.438-.053.892a10.6 10.6 0 00-.018 1.084q.017.6.088 1.19a6.228 6.228 0 00.246 1.155 3.2 3.2 0 00.492.98 1.731 1.731 0 001.213.822 1.251 1.251 0 001.143-.752 26.97 26.97 0 001.477-2.869c.43-.957.881-1.872 1.347-2.759-.156.691-.29 1.378-.4 2.059a17.754 17.754 0 00-.211 2.065q0 .628.053 1.154a1.769 1.769 0 00.44.979 2.068 2.068 0 00.369.35.548.548 0 00.475.07.349.349 0 00.281-.28 1.8 1.8 0 01.105-.385q.14-.63.369-1.4t.475-1.54q.246-.769.493-1.5t.492-1.365q.317-.735.563-1.329t.475-1.085q.228-.489.509-.98a7.925 7.925 0 01.7-1.015c.117-.14.211-.18.281-.123a.573.573 0 01.141.368q.105.944.176 2.046t.176 2.239q.105 1.138.3 2.186a7.9 7.9 0 00.58 1.89c.187.3.4.426.633.367a2.32 2.32 0 00.809-.437 4 4 0 00.422-.4c.131-.138.262-.288.393-.444a9.381 9.381 0 00-.463 2.49 2.006 2.006 0 00.3 1.277 1.679 1.679 0 00.931.788.957.957 0 001-.123q.369-.333.686-.682a11.941 11.941 0 001.23-1.505q.528-.769 1.055-1.574 1.689-2.624 3.165-5.266t2.954-5.371a.553.553 0 00.141-.21v.279l-.352 1.47q-.176.734-.351 1.5a86 86 0 00-1.653 9.936q-.527 4.968-.738 10.076a1.652 1.652 0 001.266 1.924q.528.1.562-.384.211-5.738.774-11.318t1.582-11.213q.528-2.763 1.02-5.475c.029-.16.069-.318.1-.477q1.383-.546 2.746-1.1 2.461-1 5.063-1.8a.2.2 0 00.141-.035.226.226 0 010 .175q-.493 1.749-.949 3.5t-.844 3.534q-.282 1.435-.615 3.148t-.51 3.446a18.541 18.541 0 00-.053 3.323 6.645 6.645 0 00.791 2.782 4 4 0 001.09 1.085 2.776 2.776 0 001.072.419 2.558 2.558 0 00.949-.034 3 3 0 00.756-.281 6.647 6.647 0 00.949-.63 8.41 8.41 0 001.055-1.014 17.733 17.733 0 001.2-1.522c.065-.092.134-.191.2-.288a3.518 3.518 0 00.678.936q1.125 1.083 2.039 0a10.991 10.991 0 001.864-3.114 9.848 9.848 0 00.633-3.568.247.247 0 01.176-.245 4.709 4.709 0 001.565-1.119 3.35 3.35 0 00.862-1.75.632.632 0 00-.211-.7.222.222 0 00-.158-.07q-.088 0-.088.14a1.946 1.946 0 01-.3.909 3.436 3.436 0 01-.615.735 3.539 3.539 0 01-.721.507q-.369.192-.581.3a.266.266 0 01-.387-.14 2.54 2.54 0 00-.984-1.155 1.794 1.794 0 00-.247-.21l.159-.157a.269.269 0 01.193-.088c.257-.046.387-.133.387-.262a.641.641 0 00-.176-.4 1.415 1.415 0 00-1.072-.717q-.581-.017-1.143.787a12.027 12.027 0 00-1.688 3.324 15.5 15.5 0 00-.7 3.568c.023.33.057.645.1.95a18.281 18.281 0 01-1.368 1.9 10.861 10.861 0 01-1.442 1.47 2.392 2.392 0 01-1.09.612 1.281 1.281 0 01-1.389-.769 6.292 6.292 0 01-.562-2.257 17.022 17.022 0 01.035-3.078q.158-1.7.457-3.254a26.788 26.788 0 01.668-2.764 6.932 6.932 0 01.651-1.627q.773-1.784 1.494-3.551t1.318-3.621q.07-.174.211-.175a60.751 60.751 0 016.065-1.085 45.538 45.538 0 016.206-.35 15.59 15.59 0 011.635.088 5.026 5.026 0 011.635.472 2.194 2.194 0 01.493.332q.211.193-.035.578a.725.725 0 00-.07.332 1.845 1.845 0 00.035.368 1.5 1.5 0 00.035.332.283.283 0 00.475.157.814.814 0 00.228-.209 1.806 1.806 0 00.44-.98 2.745 2.745 0 00-.088-1.19 3.6 3.6 0 00-.548-1.109zM37.704 23.579a.65.65 0 01-.123.175q-.422.6-1.09 1.609t-1.406 2.064q-.738 1.049-1.477 1.907a4.362 4.362 0 01-1.337 1.136 7.322 7.322 0 011.09-3.918 10.866 10.866 0 012.637-2.834 2.72 2.72 0 011.3-.455q.351 0 .422.14a.191.191 0 01-.016.176zm22.714-.49a1.318 1.318 0 00-.194.28q-1.3 2.03-2.584 4.041a34.8 34.8 0 01-2.866 3.866c-.118.117-.234.227-.352.332s-.234.216-.351.333a3.588 3.588 0 01.211-.945q.6-1.923 1.354-3.8a12.151 12.151 0 012.127-3.446 4.543 4.543 0 01.774-.787 2.6 2.6 0 01.949-.472.955.955 0 01.984.35c.047.074.03.157-.052.249zm21.974-.525a.434.434 0 00.193-.035.742.742 0 01.458.262 1.368 1.368 0 01.211.473q.07.21-.141.14a2.187 2.187 0 01-.51-.193.64.64 0 01-.3-.472c-.022-.115.006-.173.089-.173zm-.721.7c.047-.093.088-.134.123-.122s.076.064.123.157a2.242 2.242 0 001.266.98.335.335 0 01.246.385 10 10 0 01-2.673 5.108.8.8 0 01-.175.105.523.523 0 01-.07-.21 4.544 4.544 0 01-.088-.664c-.009-.157-.025-.313-.04-.47l.057-.09a2.523 2.523 0 00.211-.489 2.026 2.026 0 00.105-.647 1.4 1.4 0 00-.123-.6c-.012-.025-.034-.038-.048-.06a13.686 13.686 0 011.086-3.382zm-5.309-11.126c-.094.257-.176.5-.247.735s-.141.478-.211.734a.408.408 0 00-.07.105.145.145 0 01.035-.105q.07-.384.159-.752t.194-.752a.382.382 0 01.175-.14.394.394 0 01-.034.176zm1.371-5.178q-.176.7-.316 1.365t-.316 1.365a.162.162 0 01-.088.087.217.217 0 00-.088.052q-.176 0-.07-.105.211-.7.4-1.382t.44-1.382a.1.1 0 01.035-.07z"/><path data-name="パス 69" d="M108.077 24.314a8.623 8.623 0 01-1 1.663 19.421 19.421 0 01-1.513 1.8 15.728 15.728 0 01-1.74 1.592 7.246 7.246 0 01-1.688 1.032 1.578 1.578 0 01-.58.035.626.626 0 01-.475-.315 3.247 3.247 0 01-.439-1.7 6.187 6.187 0 01.264-1.7q.07-.279.439-.209a1.525 1.525 0 00.651 0 3.939 3.939 0 001.23-.647 7.952 7.952 0 001.178-1.085 6.674 6.674 0 00.9-1.26 2.381 2.381 0 00.194-2.256 1.468 1.468 0 00-.9-.77 1.9 1.9 0 00-1.46.088 3.9 3.9 0 00-1.178.944 8.419 8.419 0 00-.949 1.365q-.422.753-.7 1.382a3.512 3.512 0 01-.439.612.863.863 0 00-.264.543 2.226 2.226 0 01-.124.927 3.327 3.327 0 00-.193.822 5.582 5.582 0 00-.088 1.7 3.432 3.432 0 00.615 1.592 2.2 2.2 0 001.389.928 2.309 2.309 0 001.705-.193 3.227 3.227 0 00.493-.3q.211-.158.457-.332a16.194 16.194 0 001.441-1.33q.634-.665 1.178-1.347t1.037-1.434q.491-.751.984-1.627a.586.586 0 00.071-.263.48.48 0 00-.176-.3c-.144-.127-.25-.119-.32.043zm-6.5.665q.387-.7.738-1.4a6.01 6.01 0 01.879-1.294 2.238 2.238 0 01.493-.367 1.215 1.215 0 01.7-.122c.234 0 .328.093.281.279a6.905 6.905 0 01-1.124 1.7 5.683 5.683 0 01-1.793 1.312h-.141a.059.059 0 00-.035-.053q-.038-.019-.003-.055z"/><path data-name="パス 70" d="M152.274 10.005a8.745 8.745 0 00-.844-3.848 10.155 10.155 0 00-2.286-3.079 10.783 10.783 0 00-5.2-2.764 15.062 15.062 0 00-2.25-.316h-.914a16.2 16.2 0 00-3.235.455 15.268 15.268 0 00-2.989 1.085 22.521 22.521 0 00-6.874 4.863 30.744 30.744 0 00-6.558 10.864 17.335 17.335 0 00-.879 4.321 1.594 1.594 0 00-.035.315 1.623 1.623 0 01-.035.315q.035.315.053.612t.053.612a.737.737 0 01.105.386 4.129 4.129 0 001.248 2.046 2.8 2.8 0 001.987.752q.526-.035.527-.35a1.367 1.367 0 00-.07-.49 1.759 1.759 0 00-.563-.717 1.311 1.311 0 00-.808-.3q-.528.036-.616-.227a2.8 2.8 0 01-.124-.542 7.669 7.669 0 01-.105-1.26 12.661 12.661 0 01.58-3.376 26.564 26.564 0 011.249-3.166 28.875 28.875 0 014.114-6.367 23.78 23.78 0 015.766-4.863.2.2 0 01.141-.069.314.314 0 00.141-.035.5.5 0 01-.035.21 210.292 210.292 0 00-3.481 24.035 3.21 3.21 0 01-.317.98 1.729 1.729 0 01-.738.665q-1.408.7-2.744 1.452a13.545 13.545 0 01-2.917 1.207.5.5 0 01-.563-.21 2.609 2.609 0 00-.246-.28.275.275 0 00-.317-.07.369.369 0 00-.228.263 1.51 1.51 0 00-.053.4 2.231 2.231 0 00.949 1.784 2.205 2.205 0 002 .175 14.023 14.023 0 002.3-.945q1.073-.559 2.163-1.154a.267.267 0 00.158-.07c.058-.047.076 0 .053.14q-.035.559-.158 1.767t-.247 2.554q-.123 1.346-.264 2.554t-.21 1.767a2.386 2.386 0 00.264 1.487 1.9 1.9 0 001.178.927.7.7 0 00.369.035c.106-.023.169-.129.193-.315q.106-.981.264-2.607t.333-3.411q.177-1.784.334-3.411t.229-2.606a.7.7 0 01.281-.455q2.849-1.68 5.45-3.533a45.858 45.858 0 004.993-4.128q2.321-2.2 4.43-4.549a29.731 29.731 0 003.728-5.178 8.809 8.809 0 001.27-4.337zm-1.811 1.12a12.955 12.955 0 01-1.214 2.414 25.943 25.943 0 01-3.234 4.024q-1.793 1.82-3.692 3.569-2.25 2.063-4.571 3.953a46.679 46.679 0 01-4.923 3.5 2.765 2.765 0 00-.281.1.807.807 0 00-.018-.157.236.236 0 01.018-.158q.528-5.422 1-10.758t1.283-10.688c.023-.116.047-.245.071-.385l.07-.42c.023-.116.041-.227.053-.332s.123-.087.334.052c.07.047.123.047.157 0a.279.279 0 00.053-.175v-.682a3.518 3.518 0 00-.07-.682.586.586 0 01.351-.56q1.16-.454 2.321-.787a14.808 14.808 0 012.356-.472 12.218 12.218 0 012.444-.035 10.842 10.842 0 012.514.525 10.262 10.262 0 013.164 1.679 6.664 6.664 0 012.075 2.939 1.335 1.335 0 01.052.227 1.316 1.316 0 00.053.227 1.228 1.228 0 00.035.35 6.769 6.769 0 01-.4 2.732z"/><path data-name="パス 71" d="M152.134 22.32a1.211 1.211 0 00-.608-.3c-.168-.011-.3.181-.4.578q-.109.664-.235 1.749t-.234 2.24q-.107 1.154-.162 2.239t-.054 1.749a1.226 1.226 0 00.306.839 2 2 0 00.7.525.654.654 0 00.323.1c.095 0 .132-.093.109-.28v-.49a4.175 4.175 0 01.035-.525q.034-.63.123-1.645t.194-2.134.194-2.134.123-1.645a.7.7 0 00-.106-.49 2.542 2.542 0 00-.308-.376z"/><path data-name="パス 72" d="M152.802 18.472a1.043 1.043 0 00-.211-.368.649.649 0 00-.422-.192.366.366 0 00-.422.28 1.226 1.226 0 00-.071.56 1.9 1.9 0 00.229.769.956.956 0 00.685.455c.234.047.352-.017.352-.192a.677.677 0 01.141-.438 1.382 1.382 0 01-.158-.42 4.326 4.326 0 00-.123-.454z"/><path data-name="パス 73" d="M161.381 18.297a1.1 1.1 0 00-.7-.525.618.618 0 00-.721.157c-.153.2-.311.4-.475.612-.047.07-.1.152-.158.245s-.112.187-.159.28a37.107 37.107 0 00-1.776 4.041q-.756 2.046-1.529 4.145a3.956 3.956 0 00-.211.384 2.086 2.086 0 01.035-.455q.176-2.448.509-4.88t.651-4.881a.957.957 0 00-.159-.77 2.839 2.839 0 00-.58-.524q-.422-.28-.529.21-.109.455-.216.892t-.214.857q-.5 2.519-1 5a29.88 29.88 0 00-.572 5.108 7.207 7.207 0 01.054 1.137 3.142 3.142 0 00.2 1.172 1.827 1.827 0 001.717 1.259q.529.036.635-.367a6.137 6.137 0 01.246-.753 29.06 29.06 0 001-3.166q.4-1.592.932-3.167.457-1.363.9-2.728a12.051 12.051 0 011.213-2.624l.158-.315a.188.188 0 01.264-.1.291.291 0 01.193.262 1.284 1.284 0 01-.018.368 1.053 1.053 0 00.035.472c.047.153.164.216.352.193s.275-.111.263-.263a3.509 3.509 0 00-.052-.4 2.586 2.586 0 00-.288-.876z"/><path data-name="パス 74" d="M175.269 24.979c-.164-.046-.281-.035-.352.035a1.456 1.456 0 00-.176.21 12.807 12.807 0 00-.756 1.4q-.473.979-1.019 1.977a18.721 18.721 0 01-1.072 1.749q-.528.753-.879.717t-.526-.538a5.453 5.453 0 01-.246-1.26 14.653 14.653 0 01-.053-1.662q.017-.909.053-1.731t.053-1.452a2.962 2.962 0 00-.053-.84 1.082 1.082 0 00-.071-.542c-.07-.175-.175-.262-.317-.262a.729.729 0 01-.65-.227 1.011 1.011 0 00-.58-.332 2.274 2.274 0 00-.334-.105 1.575 1.575 0 00-.334-.035 2.867 2.867 0 00-1.741.613 9.685 9.685 0 00-1.318 1.276 14.4 14.4 0 00-1.055 1.487 12.619 12.619 0 00-.967 1.855 8.491 8.491 0 00-.562 1.942 2.981 2.981 0 00.193 1.749 1.4 1.4 0 00.9.892 1.251 1.251 0 001.143-.472q.281-.279.563-.577c.187-.2.375-.4.563-.612q.984-1.155 1.846-2.4t1.705-2.467l.141-.174a.068.068 0 00.018.052.075.075 0 01.017.052 7.805 7.805 0 00-.087.892q-.018.438-.053.892a10.626 10.626 0 00-.017 1.084q.017.6.088 1.19a6.3 6.3 0 00.246 1.155 3.2 3.2 0 00.492.98 1.734 1.734 0 001.213.821 1.252 1.252 0 001.143-.752 27.037 27.037 0 001.477-2.869q.739-1.644 1.547-3.149.237-.421-.183-.562zm-6.206-1.4a.664.664 0 01-.124.175q-.422.6-1.089 1.609t-1.407 2.065q-.738 1.049-1.477 1.907a4.356 4.356 0 01-1.337 1.136 7.321 7.321 0 011.09-3.918 10.871 10.871 0 012.637-2.834 2.72 2.72 0 011.3-.455c.234 0 .375.047.422.14a.193.193 0 01-.015.176z"/><path data-name="パス 75" d="M199.882 10.46a3.587 3.587 0 00-.546-1.1 2.024 2.024 0 00-.9-.717 6.989 6.989 0 00-1.828-.438 19.62 19.62 0 00-1.828-.088 43.951 43.951 0 00-5.7.368q-2.813.367-5.59.962h-.176a.391.391 0 01.035-.175 17.093 17.093 0 00.44-2.082 12.262 12.262 0 00.123-2.187 3.886 3.886 0 00-.3-1.452 1.318 1.318 0 00-.791-.753h-.105l-.141.14a.537.537 0 00-.105.14l-2.532 7.137q0 .21-.141.21a56.483 56.483 0 00-5.713 2.1q-2.76 1.19-5.538 2.449c-.117.024-.188-.011-.211-.1a1.253 1.253 0 00-.282-.56c-.117-.116-.293-.047-.527.21a3.423 3.423 0 01-.352.315 1.061 1.061 0 00-.141 1.435.765.765 0 00.6.42 3.432 3.432 0 00.668-.07 1.29 1.29 0 01.334-.088 1.246 1.246 0 00.334-.088q2.532-.979 4.994-1.977t5.063-1.8a.2.2 0 00.141-.035.223.223 0 010 .175q-.492 1.749-.949 3.5t-.844 3.534l-.615 3.148q-.334 1.713-.509 3.446a18.51 18.51 0 00-.053 3.323 6.64 6.64 0 00.791 2.782 3.987 3.987 0 001.09 1.085 2.776 2.776 0 001.072.419 2.553 2.553 0 00.949-.034 2.979 2.979 0 00.756-.281 6.624 6.624 0 00.949-.63 8.38 8.38 0 001.055-1.014 17.229 17.229 0 001.09-1.377 2.567 2.567 0 00.106.292 1.4 1.4 0 00.9.892 1.252 1.252 0 001.143-.472q.28-.279.562-.577c.188-.2.375-.4.562-.612a30.208 30.208 0 001.846-2.4q.861-1.241 1.705-2.467l.141-.174a.073.073 0 00.018.053.069.069 0 01.018.052 7.993 7.993 0 00-.088.892q-.017.438-.052.892-.035.49-.018 1.084c.012.4.041.794.088 1.19a6.263 6.263 0 00.247 1.155 3.214 3.214 0 00.491.98 1.734 1.734 0 001.214.822 1.25 1.25 0 001.142-.752 26.884 26.884 0 001.477-2.869q.738-1.644 1.547-3.149.246-.419-.176-.56c-.164-.047-.281-.035-.351.035a1.356 1.356 0 00-.176.21 12.688 12.688 0 00-.756 1.4q-.475.98-1.02 1.977a18.854 18.854 0 01-1.072 1.749q-.528.752-.88.717t-.527-.542a5.426 5.426 0 01-.247-1.26 14.669 14.669 0 01-.052-1.662q.017-.909.052-1.731t.053-1.452a2.908 2.908 0 00-.053-.84 1.078 1.078 0 00-.07-.543q-.106-.262-.316-.262a.731.731 0 01-.651-.227 1.011 1.011 0 00-.58-.333 2.271 2.271 0 00-.334-.1 1.568 1.568 0 00-.334-.035 2.863 2.863 0 00-1.74.613 9.724 9.724 0 00-1.319 1.277 14.322 14.322 0 00-1.055 1.487 12.613 12.613 0 00-.966 1.854 8.656 8.656 0 00-.369 1.068c-.059.1-.114.2-.176.3a18.172 18.172 0 01-1.406 1.959 10.835 10.835 0 01-1.442 1.47 2.387 2.387 0 01-1.09.612 1.281 1.281 0 01-1.389-.769 6.282 6.282 0 01-.562-2.257 17.058 17.058 0 01.035-3.078q.158-1.7.457-3.254a26.449 26.449 0 01.668-2.764 6.979 6.979 0 01.65-1.627q.774-1.784 1.494-3.551t1.319-3.621c.047-.116.117-.175.211-.175a60.76 60.76 0 016.066-1.085 45.532 45.532 0 016.205-.35 15.575 15.575 0 011.635.088 5.028 5.028 0 011.636.472 2.189 2.189 0 01.492.332q.211.193-.035.578a.725.725 0 00-.07.332 1.843 1.843 0 00.035.368 1.557 1.557 0 00.034.332.316.316 0 00.211.227.311.311 0 00.263-.07.806.806 0 00.229-.209 1.809 1.809 0 00.439-.98 2.744 2.744 0 00-.086-1.204zm-10.971 13.26a2.72 2.72 0 011.3-.455q.352 0 .422.14a.193.193 0 01-.018.175.68.68 0 01-.123.175q-.422.6-1.09 1.609t-1.407 2.064q-.739 1.049-1.477 1.907a4.365 4.365 0 01-1.336 1.136 8.4 8.4 0 01.261-2l.02-.031a2.524 2.524 0 00.211-.489 2.031 2.031 0 00.087-.422 6.434 6.434 0 01.511-.978 10.856 10.856 0 012.639-2.831zm-7.524-11.58c-.094.257-.176.5-.246.735s-.141.478-.212.734a.432.432 0 00-.071.105.145.145 0 01.035-.105c.047-.256.1-.507.159-.752s.123-.5.194-.752a.377.377 0 01.176-.14.394.394 0 01-.035.174zm1.371-5.178q-.177.7-.317 1.365t-.316 1.365a.164.164 0 01-.087.087.222.222 0 00-.088.052c-.117 0-.141-.035-.07-.105q.211-.7.4-1.382t.44-1.382a.1.1 0 01.035-.07z"/></g></svg>