<svg xmlns="http://www.w3.org/2000/svg" width="220" height="51.607"><g data-name="グループ 3724"><path data-name="パス 65" d="M32.54 21.608a3.825 3.825 0 00-.967-1.154 3.594 3.594 0 00-1.3-.673 5.009 5.009 0 00-2.3-.077 18.742 18.742 0 00-2.224.616 27.241 27.241 0 00-5.376 2.771q-2.476 1.656-4.873 3.541a.821.821 0 01-.193.154l.116-.231q2.049-2.694 3.944-5.484a55.948 55.948 0 003.442-5.798q.657-1.347 1.238-2.752a8.9 8.9 0 00.658-2.983 3.653 3.653 0 00-.658-2.386A2.815 2.815 0 0022.19 5.92a3.038 3.038 0 00-1.45.116 13.275 13.275 0 00-1.335.539 17.6 17.6 0 00-2.92 1.655 27.268 27.268 0 00-2.611 2.078.457.457 0 00-.1.058.4.4 0 01-.1.058.172.172 0 00-.019-.077c-.013-.025-.006-.064.019-.116q.193-1 .387-1.924t.464-1.924q.078-.423.174-.866a2.641 2.641 0 01.406-.9.6.6 0 00.058-.77 2.975 2.975 0 00-.638-.693h-.193a1.586 1.586 0 01-.232.307 1.04 1.04 0 00-.193.269 18.259 18.259 0 00-1.006 3.194q-.348 1.616-.773 3.233a8.654 8.654 0 00-.271 1.424 2.149 2.149 0 01-.58 1.27 42.359 42.359 0 00-3.674 4.426 40.794 40.794 0 00-3.017 4.887 36.269 36.269 0 00-1.857 4.273 15.678 15.678 0 00-.89 4.58 2.962 2.962 0 00.174 1.4 2.185 2.185 0 00.948 1.058 2.053 2.053 0 00.232.135c.077.039.155.006.232-.1a.379.379 0 00-.077-.539.738.738 0 01-.367-.481 3.041 3.041 0 01-.058-.6 4.938 4.938 0 01.058-1.154 10.035 10.035 0 01.251-1.116 25.929 25.929 0 012.9-6.831 48.581 48.581 0 014.332-5.984l.116-.115a.267.267 0 01-.019.115.167.167 0 00-.019.077q-.774 3.345-1.431 6.649T7.95 30.219c-.077.462-.135.916-.174 1.365a9.792 9.792 0 01-.212 1.345 6.356 6.356 0 01-.445 1.288 3.6 3.6 0 01-.832 1.115.624.624 0 00-.1.768 1.108 1.108 0 00.639.615.327.327 0 01.232.346q-.31 2.307-.561 4.613t-.484 4.612q-.078.614-.135.961a.833.833 0 01-.232.5.947.947 0 01-.522.192 9.526 9.526 0 01-.967.038 3.74 3.74 0 01-1.489-.211 1.958 1.958 0 01-1.064-1.021 1.351 1.351 0 01-.077-1.385 7.175 7.175 0 01.812-1.154l.136-.135.135-.135a1.13 1.13 0 00.464-.769.6.6 0 00-.135-.5 9.373 9.373 0 00-.368-.385l-.309-.23a.264.264 0 00-.348.038 5.009 5.009 0 00-.909.808 4.709 4.709 0 00-.677 1 3.221 3.221 0 00-.329 1.154 3.11 3.11 0 00.136 1.232 5.069 5.069 0 00.793 1.389 7.2 7.2 0 001.2 1.186 6.534 6.534 0 001.45.862 4.541 4.541 0 001.585.372 2.822 2.822 0 00.31.058c.1.012.155.032.155.058a1.2 1.2 0 00.387.731q.309.269.619.577.348.038.677.057t.677.019a2.288 2.288 0 01.309-1.5 1.768 1.768 0 011.431-.654.909.909 0 00.367-.077c.116-.052.238-.1.367-.154a42.245 42.245 0 0017.714-14.162 38.371 38.371 0 003.033-4.873 19.6 19.6 0 001.857-5.426 4.37 4.37 0 000-1.635 5.056 5.056 0 00-.526-1.504zm-22.031 7.793q.5-3.078.986-6.119t.948-6.158q.077-.423.174-.847a6.388 6.388 0 00.135-.885 2.733 2.733 0 01.368-1.308 4.161 4.161 0 01.87-1q1.585-1.347 3.191-2.56a15.387 15.387 0 013.5-1.981 5.6 5.6 0 01.851-.308 3.37 3.37 0 01.89-.116 1.686 1.686 0 01.851.116q.309.154.155.654a12.018 12.018 0 01-.832 3.1 26.031 26.031 0 01-1.373 2.752 80.258 80.258 0 01-4.486 6.734q-2.4 3.234-4.835 6.466-.309.386-.619.789t-.619.789a.207.207 0 01-.077.1.316.316 0 00-.077.058.427.427 0 00-.019-.135.17.17 0 01.018-.141zm21.2-5.08a15.314 15.314 0 01-1.547 4.021 34.167 34.167 0 01-2.321 3.6A45.276 45.276 0 019.199 47.029a1.177 1.177 0 01-.619.153q-.194-.038-.077-.461.386-3.2.715-6.273t.677-6.158a.741.741 0 01.155-.384 91.059 91.059 0 016.884-5.985 44.952 44.952 0 017.735-4.868 20.721 20.721 0 012.205-.943 10.974 10.974 0 012.32-.558q1.741-.192 2.321.462a2.606 2.606 0 01.194 2.308z"/><path data-name="パス 66" d="M75.297 24.552a1.328 1.328 0 00-.668-.326q-.278-.019-.436.635-.119.73-.258 1.924t-.257 2.463q-.119 1.269-.178 2.463t-.059 1.924a1.351 1.351 0 00.337.923 2.193 2.193 0 00.774.578.722.722 0 00.356.115c.1 0 .145-.1.119-.307v-.539a4.6 4.6 0 01.039-.577q.038-.693.135-1.809t.213-2.347q.116-1.23.212-2.347t.136-1.809a.77.77 0 00-.116-.539 2.836 2.836 0 00-.349-.425z"/><path data-name="パス 67" d="M76.032 20.32a1.147 1.147 0 00-.232-.4.717.717 0 00-.465-.211.4.4 0 00-.464.307 1.348 1.348 0 00-.077.616 2.067 2.067 0 00.251.846 1.051 1.051 0 00.754.5q.386.078.386-.211a.745.745 0 01.155-.481 1.508 1.508 0 01-.174-.462 4.886 4.886 0 00-.134-.504z"/><path data-name="パス 68" d="M103.743 10.294a2.232 2.232 0 00-.987-.789 7.691 7.691 0 00-2.011-.482c-.671-.062-1.341-.1-2.011-.1a48.352 48.352 0 00-6.266.4q-3.095.4-6.15 1.058h-.193a.423.423 0 01.038-.192 18.9 18.9 0 00.484-2.29 13.53 13.53 0 00.136-2.405 4.273 4.273 0 00-.329-1.6 1.452 1.452 0 00-.87-.828h-.116l-.155.154a.591.591 0 00-.116.154l-2.785 7.851c0 .154-.052.231-.155.231a62.091 62.091 0 00-6.285 2.309q-1.3.563-2.613 1.141a26.863 26.863 0 011.125-3.1 23.818 23.818 0 00.812-2.271 8.223 8.223 0 00.348-2.386.941.941 0 00-.581-1.078.437.437 0 00-.193.038 24.6 24.6 0 00-1.122 2.886q-.464 1.463-.967 2.925a22.822 22.822 0 00-.677 2.694 8.92 8.92 0 01-.242.959c-.66.295-1.321.588-1.983.888q-.193.039-.232-.115a1.379 1.379 0 00-.309-.616c-.129-.127-.322-.051-.58.231a3.87 3.87 0 01-.387.346 1.167 1.167 0 00-.155 1.578.841.841 0 00.657.462 3.781 3.781 0 00.735-.077 1.42 1.42 0 01.367-.1 1.377 1.377 0 00.367-.1l.487-.19a55.191 55.191 0 01-1.608 2.9q-1.045 1.751-2.089 3.483-.154.27-.348.077a3.057 3.057 0 00-2.05-1.193 3.245 3.245 0 00-2.089 1.115 9.975 9.975 0 00-1.8 2.309 27.381 27.381 0 00-1.3 2.617c-.187.4-.361.81-.531 1.217-.015.019-.034.032-.048.053q-.078.077-.367.423c-.193.231-.406.475-.638.731s-.458.487-.677.693-.367.307-.445.307a.329.329 0 01-.136-.192 2.835 2.835 0 01-.1-.308q-.078-.5-.212-1.694t-.252-2.5q-.116-1.308-.251-2.5t-.213-1.693a1.29 1.29 0 00-.367-.924 1.057 1.057 0 00-.754-.384 1.458 1.458 0 00-1.2.692 17.437 17.437 0 00-2.031 3.348q-.794 1.732-1.45 3.617a.347.347 0 01-.039.154l-.078.154a.99.99 0 01.039-.308q.27-1.733.541-3.445t.542-3.443a1.167 1.167 0 00-.619-1.271q-.348-.23-.464.193c-.052.231-.11.469-.174.712s-.123.481-.174.712q-.233 1.079-.541 2.29c-.146.572-.285 1.158-.424 1.744a.537.537 0 00-.194-.109c-.181-.051-.31-.039-.387.038a1.553 1.553 0 00-.193.231 13.962 13.962 0 00-.832 1.539q-.522 1.078-1.122 2.175a20.661 20.661 0 01-1.18 1.924q-.58.827-.967.788t-.58-.6a5.967 5.967 0 01-.271-1.386 16.236 16.236 0 01-.058-1.828q.019-1 .058-1.9t.058-1.6a3.221 3.221 0 00-.058-.923 1.181 1.181 0 00-.077-.6q-.115-.288-.348-.288a.8.8 0 01-.715-.25 1.112 1.112 0 00-.638-.366 2.456 2.456 0 00-.367-.115 1.723 1.723 0 00-.367-.039 3.152 3.152 0 00-1.914.674 10.672 10.672 0 00-1.451 1.4 15.791 15.791 0 00-1.16 1.636 13.837 13.837 0 00-1.063 2.04 9.347 9.347 0 00-.619 2.136 3.28 3.28 0 00.213 1.924 1.535 1.535 0 00.986.981 1.375 1.375 0 001.257-.52q.309-.307.619-.635c.206-.218.412-.443.619-.673q1.082-1.27 2.031-2.636t1.876-2.713l.155-.192a.079.079 0 00.019.058.078.078 0 01.019.057 8.454 8.454 0 00-.1.981q-.021.482-.058.981a11.663 11.663 0 00-.019 1.193q.019.655.1 1.308a6.849 6.849 0 00.271 1.27 3.515 3.515 0 00.541 1.078 1.9 1.9 0 001.334.9 1.376 1.376 0 001.257-.827 29.668 29.668 0 001.625-3.156c.473-1.053.969-2.06 1.482-3.035a34.84 34.84 0 00-.438 2.265 19.53 19.53 0 00-.232 2.271q0 .691.058 1.27a1.946 1.946 0 00.484 1.077 2.274 2.274 0 00.406.385.6.6 0 00.522.077.384.384 0 00.31-.308 1.976 1.976 0 01.116-.423q.154-.693.406-1.54t.522-1.693q.27-.846.542-1.655t.541-1.5q.348-.808.619-1.462t.522-1.193q.25-.539.56-1.078a8.71 8.71 0 01.774-1.116q.193-.23.309-.135a.63.63 0 01.155.4q.116 1.039.193 2.251t.193 2.463q.116 1.251.329 2.405a8.7 8.7 0 00.638 2.078c.206.333.438.469.7.4a2.556 2.556 0 00.889-.481 4.405 4.405 0 00.464-.442c.144-.152.288-.317.432-.488a10.32 10.32 0 00-.51 2.739 2.206 2.206 0 00.329 1.4 1.846 1.846 0 001.025.867 1.053 1.053 0 001.1-.135 10.633 10.633 0 00.754-.75 13.133 13.133 0 001.354-1.656q.58-.846 1.16-1.731 1.858-2.886 3.481-5.792t3.249-5.908a.609.609 0 00.155-.23v.307l-.387 1.617q-.193.808-.386 1.655a94.6 94.6 0 00-1.818 10.929q-.58 5.465-.812 11.083a1.818 1.818 0 001.392 2.117q.58.115.619-.423.233-6.312.851-12.45t1.74-12.334q.58-3.039 1.122-6.023c.032-.176.076-.35.111-.525q1.521-.6 3.02-1.207 2.707-1.1 5.57-1.982a.222.222 0 00.155-.039.249.249 0 010 .193q-.542 1.924-1.044 3.848t-.928 3.887q-.31 1.578-.677 3.463t-.561 3.791a20.394 20.394 0 00-.058 3.656 7.309 7.309 0 00.87 3.06 4.4 4.4 0 001.2 1.194 3.053 3.053 0 001.18.461 2.808 2.808 0 001.044-.038 3.3 3.3 0 00.832-.309 7.3 7.3 0 001.044-.692 9.257 9.257 0 001.161-1.115 19.494 19.494 0 001.315-1.674c.072-.1.147-.21.221-.317a3.87 3.87 0 00.746 1.029q1.237 1.192 2.243 0a12.09 12.09 0 002.05-3.426 10.832 10.832 0 00.7-3.925.272.272 0 01.194-.27 5.18 5.18 0 001.721-1.231 3.685 3.685 0 00.948-1.925.7.7 0 00-.232-.77.244.244 0 00-.174-.077q-.1 0-.1.153a2.141 2.141 0 01-.329 1 3.779 3.779 0 01-.677.809 3.892 3.892 0 01-.793.558q-.406.211-.639.327a.292.292 0 01-.425-.154 2.794 2.794 0 00-1.083-1.27 1.974 1.974 0 00-.271-.231l.174-.173a.3.3 0 01.213-.1c.283-.051.425-.147.425-.289a.705.705 0 00-.193-.443 1.556 1.556 0 00-1.18-.789q-.639-.019-1.257.865a13.229 13.229 0 00-1.857 3.657 17.047 17.047 0 00-.773 3.925c.025.363.063.71.113 1.045a20.1 20.1 0 01-1.5 2.092 11.941 11.941 0 01-1.586 1.617 2.632 2.632 0 01-1.2.673 1.409 1.409 0 01-1.528-.846 6.921 6.921 0 01-.619-2.483 18.723 18.723 0 01.039-3.386q.174-1.867.5-3.58a29.473 29.473 0 01.735-3.04 7.627 7.627 0 01.716-1.79q.85-1.962 1.644-3.906t1.45-3.983q.078-.192.232-.192a66.816 66.816 0 016.672-1.193 50.1 50.1 0 016.827-.385 17.136 17.136 0 011.8.1 5.53 5.53 0 011.8.519 2.412 2.412 0 01.542.366q.232.212-.039.635a.8.8 0 00-.077.365 2.031 2.031 0 00.038.4 1.654 1.654 0 00.039.365.312.312 0 00.522.173.893.893 0 00.251-.23 1.986 1.986 0 00.484-1.078 3.019 3.019 0 00-.1-1.309 3.963 3.963 0 00-.594-1.157zm-62.27 15.644a.715.715 0 01-.135.192q-.464.655-1.2 1.77t-1.547 2.271q-.812 1.154-1.624 2.1a4.8 4.8 0 01-1.47 1.25 8.053 8.053 0 011.2-4.31 11.953 11.953 0 012.9-3.117 2.991 2.991 0 011.431-.5q.386 0 .464.154a.211.211 0 01-.018.19zm24.985-.539a1.451 1.451 0 00-.213.308q-1.432 2.232-2.843 4.445a38.3 38.3 0 01-3.152 4.253c-.129.128-.258.25-.387.365s-.258.238-.386.366a3.947 3.947 0 01.232-1.04q.657-2.116 1.489-4.176a13.366 13.366 0 012.34-3.791 5 5 0 01.851-.866 2.852 2.852 0 011.044-.519 1.051 1.051 0 011.083.385c.053.078.033.169-.057.27zm24.172-.577a.479.479 0 00.212-.039.816.816 0 01.5.288 1.5 1.5 0 01.232.52q.077.231-.155.154a2.4 2.4 0 01-.561-.212.7.7 0 01-.329-.52c-.021-.127.012-.191.102-.191zm-.793.77c.052-.1.1-.148.136-.135s.083.071.136.173a2.465 2.465 0 001.392 1.078.369.369 0 01.271.423 11 11 0 01-2.94 5.619.877.877 0 01-.193.116.575.575 0 01-.077-.231 4.992 4.992 0 01-.1-.731c-.01-.172-.027-.345-.044-.517l.063-.1a2.775 2.775 0 00.232-.538 2.228 2.228 0 00.116-.712 1.535 1.535 0 00-.135-.655c-.013-.027-.037-.042-.053-.066a15.054 15.054 0 011.197-3.724zm-5.838-12.238a19.713 19.713 0 00-.503 1.616.448.448 0 00-.077.116.159.159 0 01.038-.116q.077-.422.174-.827t.213-.827a.42.42 0 01.193-.154.434.434 0 01-.038.192zm1.508-5.7q-.194.77-.348 1.5t-.348 1.5a.178.178 0 01-.1.1.238.238 0 00-.1.057c-.129 0-.155-.039-.077-.116q.233-.769.445-1.52t.484-1.52a.111.111 0 01.038-.077z"/><path data-name="パス 69" d="M118.884 26.746a9.485 9.485 0 01-1.1 1.829 21.363 21.363 0 01-1.664 1.981 17.313 17.313 0 01-1.914 1.751 7.973 7.973 0 01-1.857 1.135 1.735 1.735 0 01-.638.038.689.689 0 01-.522-.346 3.572 3.572 0 01-.483-1.866 6.805 6.805 0 01.29-1.867q.077-.307.483-.23a1.678 1.678 0 00.716 0 4.332 4.332 0 001.354-.712 8.749 8.749 0 001.3-1.193 7.34 7.34 0 00.986-1.386 2.619 2.619 0 00.213-2.482 1.615 1.615 0 00-.986-.847 2.089 2.089 0 00-1.606.1 4.294 4.294 0 00-1.3 1.039 9.266 9.266 0 00-1.044 1.5q-.464.829-.773 1.521a3.865 3.865 0 01-.483.673.95.95 0 00-.29.6 2.449 2.449 0 01-.136 1.02 3.66 3.66 0 00-.212.9 6.14 6.14 0 00-.1 1.866 3.775 3.775 0 00.677 1.751 2.422 2.422 0 001.528 1.021 2.54 2.54 0 001.876-.212 3.553 3.553 0 00.542-.327q.232-.174.5-.366a17.792 17.792 0 001.585-1.463q.7-.731 1.3-1.482t1.141-1.578q.54-.826 1.082-1.789a.644.644 0 00.078-.289.528.528 0 00-.193-.327c-.156-.155-.272-.142-.35.037zm-7.155.731q.425-.77.812-1.54a6.607 6.607 0 01.967-1.424 2.463 2.463 0 01.542-.4 1.338 1.338 0 01.773-.135c.257 0 .361.1.309.307a7.6 7.6 0 01-1.237 1.867 6.249 6.249 0 01-1.972 1.443h-.155a.065.065 0 00-.039-.058q-.038-.021 0-.059z"/><path data-name="パス 70" d="M167.502 11.006a9.619 9.619 0 00-.929-4.233 11.17 11.17 0 00-2.514-3.386 11.86 11.86 0 00-5.724-3.04A16.545 16.545 0 00155.86 0h-1.006a17.811 17.811 0 00-3.558.5 16.8 16.8 0 00-3.287 1.193 24.775 24.775 0 00-7.561 5.349 33.819 33.819 0 00-7.213 11.95 19.069 19.069 0 00-.967 4.753 1.751 1.751 0 00-.039.346 1.785 1.785 0 01-.039.347q.038.346.058.673t.058.673a.811.811 0 01.116.424 4.541 4.541 0 001.373 2.251 3.079 3.079 0 002.186.827q.579-.038.579-.385a1.505 1.505 0 00-.077-.539 1.935 1.935 0 00-.619-.789 1.442 1.442 0 00-.889-.327q-.581.039-.677-.249a3.082 3.082 0 01-.136-.6 8.435 8.435 0 01-.116-1.386 13.927 13.927 0 01.638-3.714 29.225 29.225 0 011.374-3.483 31.761 31.761 0 014.525-7 26.161 26.161 0 016.343-5.35.225.225 0 01.155-.076.346.346 0 00.156-.039.545.545 0 01-.039.231 231.323 231.323 0 00-3.829 26.438 3.531 3.531 0 01-.348 1.078 1.9 1.9 0 01-.812.732q-1.549.769-3.018 1.6a14.9 14.9 0 01-3.209 1.327.548.548 0 01-.62-.231 2.882 2.882 0 00-.27-.308.3.3 0 00-.348-.077.405.405 0 00-.251.289 1.661 1.661 0 00-.058.443 2.454 2.454 0 001.044 1.963 2.426 2.426 0 002.2.193 15.427 15.427 0 002.533-1.04q1.18-.615 2.379-1.269a.294.294 0 00.174-.077c.064-.052.083 0 .058.154q-.038.615-.174 1.943t-.271 2.809q-.135 1.481-.29 2.809t-.231 1.943a2.625 2.625 0 00.29 1.636 2.088 2.088 0 001.3 1.019.771.771 0 00.406.039c.116-.026.186-.142.212-.346q.117-1.079.291-2.867t.366-3.753q.195-1.963.368-3.752t.252-2.867a.766.766 0 01.309-.5q3.134-1.848 6-3.887a50.424 50.424 0 005.492-4.541q2.553-2.424 4.873-5a32.7 32.7 0 004.1-5.7 9.689 9.689 0 001.386-4.774zm-1.992 1.232a14.248 14.248 0 01-1.335 2.655 28.536 28.536 0 01-3.558 4.426q-1.973 2-4.062 3.926-2.475 2.27-5.028 4.348a51.363 51.363 0 01-5.415 3.849 2.989 2.989 0 00-.309.115.887.887 0 00-.019-.173.26.26 0 01.019-.174q.58-5.964 1.1-11.834t1.411-11.757c.025-.128.052-.269.078-.423l.077-.462c.025-.128.045-.25.058-.366s.136-.1.368.057c.077.052.135.052.173 0a.307.307 0 00.058-.192v-.75a3.87 3.87 0 00-.077-.75.644.644 0 01.386-.616q1.277-.5 2.553-.866a16.288 16.288 0 012.592-.52 13.444 13.444 0 012.688-.038 11.921 11.921 0 012.765.578 11.289 11.289 0 013.481 1.847 7.33 7.33 0 012.282 3.233 1.47 1.47 0 01.057.25 1.451 1.451 0 00.058.25 1.35 1.35 0 00.039.385 7.447 7.447 0 01-.44 3.002z"/><path data-name="パス 71" d="M167.348 24.552a1.332 1.332 0 00-.668-.326c-.184-.012-.33.2-.435.635q-.119.73-.258 1.924t-.257 2.463q-.118 1.269-.178 2.463t-.059 1.924a1.348 1.348 0 00.336.923 2.195 2.195 0 00.774.578.719.719 0 00.356.115c.1 0 .145-.1.12-.307v-.539a4.6 4.6 0 01.039-.577q.037-.693.135-1.809t.213-2.347.213-2.347.135-1.809a.77.77 0 00-.117-.539 2.8 2.8 0 00-.349-.425z"/><path data-name="パス 72" d="M168.082 20.32a1.147 1.147 0 00-.232-.4.713.713 0 00-.464-.211.4.4 0 00-.464.307 1.349 1.349 0 00-.078.616 2.089 2.089 0 00.252.846 1.053 1.053 0 00.754.5c.257.052.387-.019.387-.211a.745.745 0 01.155-.481 1.521 1.521 0 01-.174-.462 4.762 4.762 0 00-.136-.504z"/><path data-name="パス 73" d="M177.517 20.126a1.21 1.21 0 00-.773-.577.68.68 0 00-.793.173l-.522.673c-.052.077-.11.167-.174.27s-.123.206-.174.308a40.8 40.8 0 00-1.954 4.445q-.832 2.25-1.682 4.56a4.356 4.356 0 00-.232.423 2.3 2.3 0 01.039-.5q.193-2.693.56-5.368t.716-5.369a1.052 1.052 0 00-.174-.847 3.117 3.117 0 00-.638-.577q-.464-.308-.582.231l-.237.981q-.117.481-.235.943-.551 2.771-1.1 5.5a32.869 32.869 0 00-.63 5.619 7.924 7.924 0 01.059 1.25 3.458 3.458 0 00.217 1.289 2.01 2.01 0 001.889 1.385q.582.039.7-.4a6.754 6.754 0 01.27-.828 31.956 31.956 0 001.1-3.483q.445-1.752 1.025-3.484.5-1.5.987-3a13.258 13.258 0 011.334-2.887l.174-.347a.207.207 0 01.291-.115.32.32 0 01.212.288 1.413 1.413 0 01-.019.4 1.158 1.158 0 00.039.519c.052.168.181.238.387.213s.3-.122.29-.289a3.845 3.845 0 00-.057-.442 2.845 2.845 0 00-.313-.957z"/><path data-name="パス 74" d="M192.796 27.477c-.181-.051-.31-.039-.387.038a1.6 1.6 0 00-.193.232 14.084 14.084 0 00-.832 1.539q-.521 1.077-1.121 2.175a20.576 20.576 0 01-1.18 1.924q-.581.828-.967.789t-.581-.6a6 6 0 01-.27-1.386 16.11 16.11 0 01-.058-1.828q.019-1 .058-1.9t.058-1.6a3.26 3.26 0 00-.058-.924 1.19 1.19 0 00-.078-.6c-.077-.192-.193-.288-.349-.288a.8.8 0 01-.715-.25 1.112 1.112 0 00-.638-.365 2.5 2.5 0 00-.368-.116 1.73 1.73 0 00-.367-.039 3.153 3.153 0 00-1.915.674 10.655 10.655 0 00-1.45 1.4 15.826 15.826 0 00-1.16 1.636 13.882 13.882 0 00-1.064 2.04 9.34 9.34 0 00-.619 2.136 3.279 3.279 0 00.213 1.924 1.535 1.535 0 00.986.981 1.376 1.376 0 001.257-.52q.309-.307.619-.635c.206-.218.412-.443.619-.673q1.082-1.27 2.031-2.636t1.876-2.713l.155-.192a.075.075 0 00.019.058.082.082 0 01.018.057 8.586 8.586 0 00-.1.981q-.02.481-.059.981a11.692 11.692 0 00-.018 1.193q.018.655.1 1.309a6.934 6.934 0 00.27 1.27 3.517 3.517 0 00.541 1.078 1.907 1.907 0 001.335.9 1.377 1.377 0 001.257-.827 29.737 29.737 0 001.624-3.156q.813-1.808 1.7-3.464.274-.443-.189-.603zm-6.827-1.539a.729.729 0 01-.136.193q-.464.655-1.2 1.77t-1.547 2.271q-.812 1.154-1.624 2.1a4.79 4.79 0 01-1.47 1.25 8.053 8.053 0 011.2-4.31 11.96 11.96 0 012.9-3.117 2.991 2.991 0 011.431-.5c.257 0 .413.052.465.154a.212.212 0 01-.019.188z"/><path data-name="パス 75" d="M219.871 11.506a3.944 3.944 0 00-.6-1.212 2.226 2.226 0 00-.986-.789 7.686 7.686 0 00-2.011-.482c-.67-.062-1.341-.1-2.011-.1a48.36 48.36 0 00-6.266.4q-3.094.4-6.149 1.058h-.194a.429.429 0 01.039-.192 18.8 18.8 0 00.484-2.29 13.489 13.489 0 00.135-2.405 4.274 4.274 0 00-.329-1.6 1.45 1.45 0 00-.87-.828h-.116l-.155.154a.589.589 0 00-.116.154l-2.785 7.851q0 .231-.155.231a62.172 62.172 0 00-6.285 2.309q-3.036 1.309-6.092 2.694c-.129.026-.207-.012-.232-.115a1.378 1.378 0 00-.31-.616c-.128-.127-.322-.051-.58.231a3.767 3.767 0 01-.387.346 1.167 1.167 0 00-.155 1.578.842.842 0 00.658.462 3.777 3.777 0 00.735-.077 1.422 1.422 0 01.367-.1 1.364 1.364 0 00.367-.1q2.785-1.076 5.493-2.174t5.569-1.982a.22.22 0 00.155-.039.245.245 0 010 .193q-.541 1.924-1.044 3.848t-.929 3.887l-.677 3.463q-.368 1.885-.56 3.791a20.359 20.359 0 00-.058 3.656 7.3 7.3 0 00.87 3.06 4.385 4.385 0 001.2 1.194 3.054 3.054 0 001.18.461 2.8 2.8 0 001.043-.038 3.274 3.274 0 00.832-.309 7.276 7.276 0 001.044-.692 9.222 9.222 0 001.161-1.115 18.921 18.921 0 001.2-1.514 2.833 2.833 0 00.116.321 1.536 1.536 0 00.986.981 1.377 1.377 0 001.258-.52q.308-.307.618-.635c.207-.218.412-.443.619-.673a33.251 33.251 0 002.031-2.636q.947-1.365 1.876-2.713l.155-.192a.081.081 0 00.019.058.076.076 0 01.019.057 8.793 8.793 0 00-.1.981q-.019.482-.057.981-.038.539-.019 1.193c.013.437.045.873.1 1.308a6.887 6.887 0 00.272 1.27 3.534 3.534 0 00.54 1.078 1.908 1.908 0 001.336.9 1.375 1.375 0 001.256-.827A29.567 29.567 0 00215 31.534q.812-1.809 1.7-3.464.27-.461-.194-.616c-.18-.051-.309-.039-.386.038a1.5 1.5 0 00-.193.231 13.966 13.966 0 00-.832 1.539q-.523 1.078-1.122 2.175a20.761 20.761 0 01-1.179 1.924q-.58.827-.968.788t-.579-.6a5.967 5.967 0 01-.272-1.386 16.14 16.14 0 01-.057-1.828q.018-1 .057-1.9t.059-1.6a3.2 3.2 0 00-.059-.923 1.186 1.186 0 00-.077-.6q-.117-.288-.348-.288a.8.8 0 01-.716-.25 1.111 1.111 0 00-.638-.366 2.5 2.5 0 00-.368-.115 1.723 1.723 0 00-.367-.039 3.151 3.151 0 00-1.914.674 10.7 10.7 0 00-1.451 1.4 15.779 15.779 0 00-1.16 1.636 13.877 13.877 0 00-1.063 2.04 9.524 9.524 0 00-.406 1.175c-.064.109-.126.217-.194.326a19.987 19.987 0 01-1.547 2.155 11.913 11.913 0 01-1.586 1.617 2.626 2.626 0 01-1.2.673 1.409 1.409 0 01-1.528-.846 6.91 6.91 0 01-.619-2.483 18.761 18.761 0 01.039-3.386q.174-1.867.5-3.58a29.093 29.093 0 01.735-3.04 7.68 7.68 0 01.715-1.79q.851-1.962 1.644-3.906t1.451-3.983c.051-.128.129-.192.232-.192a66.824 66.824 0 016.673-1.193 50.094 50.094 0 016.826-.385 17.118 17.118 0 011.8.1 5.531 5.531 0 011.8.519 2.4 2.4 0 01.541.366q.232.212-.039.635a.8.8 0 00-.077.365 2.03 2.03 0 00.039.4 1.714 1.714 0 00.038.365.347.347 0 00.232.25.342.342 0 00.29-.077.885.885 0 00.252-.23 1.989 1.989 0 00.483-1.078 3.018 3.018 0 00-.096-1.275zm-12.068 14.586a2.991 2.991 0 011.431-.5q.387 0 .464.154a.212.212 0 01-.019.192.747.747 0 01-.135.192q-.464.655-1.2 1.77t-1.547 2.271q-.813 1.154-1.624 2.1a4.8 4.8 0 01-1.469 1.25 9.236 9.236 0 01.287-2.2l.022-.035a2.776 2.776 0 00.232-.538 2.232 2.232 0 00.1-.464 7.069 7.069 0 01.562-1.076 11.942 11.942 0 012.896-3.116zm-8.276-12.738c-.1.283-.193.552-.27.808s-.155.526-.233.808a.474.474 0 00-.078.116.159.159 0 01.039-.116c.052-.282.109-.557.174-.827s.135-.545.213-.827a.414.414 0 01.193-.154.434.434 0 01-.039.192zm1.509-5.7q-.195.77-.348 1.5t-.348 1.5a.18.18 0 01-.1.1.243.243 0 00-.1.057c-.129 0-.155-.039-.077-.116q.232-.769.444-1.52t.484-1.52a.11.11 0 01.039-.077z"/></g></svg>